G04 #@! TF.GenerationSoftware,KiCad,Pcbnew,(5.1.5)-3*
G04 #@! TF.CreationDate,2020-05-15T21:02:07+03:00*
G04 #@! TF.ProjectId,ButterflyJewel,42757474-6572-4666-9c79-4a6577656c2e,rev?*
G04 #@! TF.SameCoordinates,Original*
G04 #@! TF.FileFunction,Other,Fab,Top*
%FSLAX46Y46*%
G04 Gerber Fmt 4.6, Leading zero omitted, Abs format (unit mm)*
G04 Created by KiCad (PCBNEW (5.1.5)-3) date 2020-05-15 21:02:07*
%MOMM*%
%LPD*%
G04 APERTURE LIST*
%ADD10C,0.100000*%
%ADD11C,0.150000*%
%ADD12C,0.114000*%
%ADD13C,0.120000*%
G04 APERTURE END LIST*
D10*
X209296000Y-30424500D02*
X209613500Y-30107000D01*
X209296000Y-33107000D02*
X209296000Y-30424500D01*
X210566000Y-33107000D02*
X209296000Y-33107000D01*
X210566000Y-30107000D02*
X210566000Y-33107000D01*
X209613500Y-30107000D02*
X210566000Y-30107000D01*
X181610000Y-30488000D02*
X181927500Y-30170500D01*
X181610000Y-33170500D02*
X181610000Y-30488000D01*
X182880000Y-33170500D02*
X181610000Y-33170500D01*
X182880000Y-30170500D02*
X182880000Y-33170500D01*
X181927500Y-30170500D02*
X182880000Y-30170500D01*
X189242500Y-41757500D02*
X189242500Y-40157500D01*
X186042500Y-41757500D02*
X189242500Y-41757500D01*
X186042500Y-40557500D02*
X186042500Y-41757500D01*
X186442500Y-40157500D02*
X186042500Y-40557500D01*
X189242500Y-40157500D02*
X186442500Y-40157500D01*
X206324000Y-42075000D02*
X206324000Y-40475000D01*
X203124000Y-42075000D02*
X206324000Y-42075000D01*
X203124000Y-40875000D02*
X203124000Y-42075000D01*
X203524000Y-40475000D02*
X203124000Y-40875000D01*
X206324000Y-40475000D02*
X203524000Y-40475000D01*
X182937685Y-38654056D02*
X184069056Y-37522685D01*
X180674944Y-36391315D02*
X182937685Y-38654056D01*
X181523472Y-35542786D02*
X180674944Y-36391315D01*
X182089157Y-35542786D02*
X181523472Y-35542786D01*
X184069056Y-37522685D02*
X182089157Y-35542786D01*
X211564556Y-36708815D02*
X210433185Y-35577444D01*
X209301815Y-38971556D02*
X211564556Y-36708815D01*
X208453286Y-38123028D02*
X209301815Y-38971556D01*
X208453286Y-37557343D02*
X208453286Y-38123028D01*
X210433185Y-35577444D02*
X208453286Y-37557343D01*
X188310641Y-34703320D02*
X189110641Y-33317680D01*
X185539359Y-33103320D02*
X188310641Y-34703320D01*
X186139359Y-32064090D02*
X185539359Y-33103320D01*
X186685770Y-31917680D02*
X186139359Y-32064090D01*
X189110641Y-33317680D02*
X186685770Y-31917680D01*
X206128641Y-32976320D02*
X205328641Y-31590680D01*
X203357359Y-34576320D02*
X206128641Y-32976320D01*
X202757359Y-33537090D02*
X203357359Y-34576320D01*
X202903770Y-32990680D02*
X202757359Y-33537090D01*
X205328641Y-31590680D02*
X202903770Y-32990680D01*
X195287154Y-37566180D02*
X196701368Y-37566180D01*
X193165834Y-39687500D02*
X195287154Y-37566180D01*
X195994261Y-42515927D02*
X193165834Y-39687500D01*
X198822688Y-39687500D02*
X195994261Y-42515927D01*
X196701368Y-37566180D02*
X198822688Y-39687500D01*
X209334000Y-42088000D02*
X207734000Y-42088000D01*
X209334000Y-45288000D02*
X209334000Y-42088000D01*
X208134000Y-45288000D02*
X209334000Y-45288000D01*
X207734000Y-44888000D02*
X208134000Y-45288000D01*
X207734000Y-42088000D02*
X207734000Y-44888000D01*
X202171500Y-48679000D02*
X204971500Y-48679000D01*
X204971500Y-48679000D02*
X205371500Y-48279000D01*
X205371500Y-48279000D02*
X205371500Y-47079000D01*
X205371500Y-47079000D02*
X202171500Y-47079000D01*
X202171500Y-47079000D02*
X202171500Y-48679000D01*
X178714500Y-33032500D02*
X180314500Y-33032500D01*
X178714500Y-29832500D02*
X178714500Y-33032500D01*
X179914500Y-29832500D02*
X178714500Y-29832500D01*
X180314500Y-30232500D02*
X179914500Y-29832500D01*
X180314500Y-33032500D02*
X180314500Y-30232500D01*
X184569000Y-41961000D02*
X182969000Y-41961000D01*
X184569000Y-45161000D02*
X184569000Y-41961000D01*
X183369000Y-45161000D02*
X184569000Y-45161000D01*
X182969000Y-44761000D02*
X183369000Y-45161000D01*
X182969000Y-41961000D02*
X182969000Y-44761000D01*
X212052000Y-32842000D02*
X213652000Y-32842000D01*
X212052000Y-29642000D02*
X212052000Y-32842000D01*
X213252000Y-29642000D02*
X212052000Y-29642000D01*
X213652000Y-30042000D02*
X213252000Y-29642000D01*
X213652000Y-32842000D02*
X213652000Y-30042000D01*
X189814000Y-48552000D02*
X189814000Y-46952000D01*
X186614000Y-48552000D02*
X189814000Y-48552000D01*
X186614000Y-47352000D02*
X186614000Y-48552000D01*
X187014000Y-46952000D02*
X186614000Y-47352000D01*
X189814000Y-46952000D02*
X187014000Y-46952000D01*
D11*
X207954809Y-34619380D02*
X207954809Y-33619380D01*
X209002428Y-34524142D02*
X208954809Y-34571761D01*
X208811952Y-34619380D01*
X208716714Y-34619380D01*
X208573857Y-34571761D01*
X208478619Y-34476523D01*
X208431000Y-34381285D01*
X208383380Y-34190809D01*
X208383380Y-34047952D01*
X208431000Y-33857476D01*
X208478619Y-33762238D01*
X208573857Y-33667000D01*
X208716714Y-33619380D01*
X208811952Y-33619380D01*
X208954809Y-33667000D01*
X209002428Y-33714619D01*
X209383380Y-34571761D02*
X209526238Y-34619380D01*
X209764333Y-34619380D01*
X209859571Y-34571761D01*
X209907190Y-34524142D01*
X209954809Y-34428904D01*
X209954809Y-34333666D01*
X209907190Y-34238428D01*
X209859571Y-34190809D01*
X209764333Y-34143190D01*
X209573857Y-34095571D01*
X209478619Y-34047952D01*
X209431000Y-34000333D01*
X209383380Y-33905095D01*
X209383380Y-33809857D01*
X209431000Y-33714619D01*
X209478619Y-33667000D01*
X209573857Y-33619380D01*
X209811952Y-33619380D01*
X209954809Y-33667000D01*
X210383380Y-34619380D02*
X210383380Y-33619380D01*
X210764333Y-33619380D01*
X210859571Y-33667000D01*
X210907190Y-33714619D01*
X210954809Y-33809857D01*
X210954809Y-33952714D01*
X210907190Y-34047952D01*
X210859571Y-34095571D01*
X210764333Y-34143190D01*
X210383380Y-34143190D01*
X211954809Y-34619380D02*
X211621476Y-34143190D01*
X211383380Y-34619380D02*
X211383380Y-33619380D01*
X211764333Y-33619380D01*
X211859571Y-33667000D01*
X211907190Y-33714619D01*
X211954809Y-33809857D01*
X211954809Y-33952714D01*
X211907190Y-34047952D01*
X211859571Y-34095571D01*
X211764333Y-34143190D01*
X211383380Y-34143190D01*
D12*
X209514809Y-31860333D02*
X210057666Y-31860333D01*
X210166238Y-31896523D01*
X210238619Y-31968904D01*
X210274809Y-32077476D01*
X210274809Y-32149857D01*
X209587190Y-31534619D02*
X209551000Y-31498428D01*
X209514809Y-31426047D01*
X209514809Y-31245095D01*
X209551000Y-31172714D01*
X209587190Y-31136523D01*
X209659571Y-31100333D01*
X209731952Y-31100333D01*
X209840523Y-31136523D01*
X210274809Y-31570809D01*
X210274809Y-31100333D01*
D11*
X180364047Y-34682880D02*
X180364047Y-33682880D01*
X181411666Y-34587642D02*
X181364047Y-34635261D01*
X181221190Y-34682880D01*
X181125952Y-34682880D01*
X180983095Y-34635261D01*
X180887857Y-34540023D01*
X180840238Y-34444785D01*
X180792619Y-34254309D01*
X180792619Y-34111452D01*
X180840238Y-33920976D01*
X180887857Y-33825738D01*
X180983095Y-33730500D01*
X181125952Y-33682880D01*
X181221190Y-33682880D01*
X181364047Y-33730500D01*
X181411666Y-33778119D01*
X181792619Y-34635261D02*
X181935476Y-34682880D01*
X182173571Y-34682880D01*
X182268809Y-34635261D01*
X182316428Y-34587642D01*
X182364047Y-34492404D01*
X182364047Y-34397166D01*
X182316428Y-34301928D01*
X182268809Y-34254309D01*
X182173571Y-34206690D01*
X181983095Y-34159071D01*
X181887857Y-34111452D01*
X181840238Y-34063833D01*
X181792619Y-33968595D01*
X181792619Y-33873357D01*
X181840238Y-33778119D01*
X181887857Y-33730500D01*
X181983095Y-33682880D01*
X182221190Y-33682880D01*
X182364047Y-33730500D01*
X182792619Y-34682880D02*
X182792619Y-33682880D01*
X183173571Y-33682880D01*
X183268809Y-33730500D01*
X183316428Y-33778119D01*
X183364047Y-33873357D01*
X183364047Y-34016214D01*
X183316428Y-34111452D01*
X183268809Y-34159071D01*
X183173571Y-34206690D01*
X182792619Y-34206690D01*
X184268809Y-34682880D02*
X183792619Y-34682880D01*
X183792619Y-33682880D01*
D12*
X181828809Y-31923833D02*
X182371666Y-31923833D01*
X182480238Y-31960023D01*
X182552619Y-32032404D01*
X182588809Y-32140976D01*
X182588809Y-32213357D01*
X182588809Y-31163833D02*
X182588809Y-31598119D01*
X182588809Y-31380976D02*
X181828809Y-31380976D01*
X181937380Y-31453357D01*
X182009761Y-31525738D01*
X182045952Y-31598119D01*
D11*
X186999642Y-43229880D02*
X186523452Y-43229880D01*
X186523452Y-42229880D01*
X187332976Y-42706071D02*
X187666309Y-42706071D01*
X187809166Y-43229880D02*
X187332976Y-43229880D01*
X187332976Y-42229880D01*
X187809166Y-42229880D01*
X188237738Y-43229880D02*
X188237738Y-42229880D01*
X188475833Y-42229880D01*
X188618690Y-42277500D01*
X188713928Y-42372738D01*
X188761547Y-42467976D01*
X188809166Y-42658452D01*
X188809166Y-42801309D01*
X188761547Y-42991785D01*
X188713928Y-43087023D01*
X188618690Y-43182261D01*
X188475833Y-43229880D01*
X188237738Y-43229880D01*
D13*
X186629071Y-40938404D02*
X186629071Y-40138404D01*
X186819547Y-40138404D01*
X186933833Y-40176500D01*
X187010023Y-40252690D01*
X187048119Y-40328880D01*
X187086214Y-40481261D01*
X187086214Y-40595547D01*
X187048119Y-40747928D01*
X187010023Y-40824119D01*
X186933833Y-40900309D01*
X186819547Y-40938404D01*
X186629071Y-40938404D01*
X187848119Y-40938404D02*
X187390976Y-40938404D01*
X187619547Y-40938404D02*
X187619547Y-40138404D01*
X187543357Y-40252690D01*
X187467166Y-40328880D01*
X187390976Y-40366976D01*
X188152880Y-40214595D02*
X188190976Y-40176500D01*
X188267166Y-40138404D01*
X188457642Y-40138404D01*
X188533833Y-40176500D01*
X188571928Y-40214595D01*
X188610023Y-40290785D01*
X188610023Y-40366976D01*
X188571928Y-40481261D01*
X188114785Y-40938404D01*
X188610023Y-40938404D01*
D11*
X204081142Y-43547380D02*
X203604952Y-43547380D01*
X203604952Y-42547380D01*
X204414476Y-43023571D02*
X204747809Y-43023571D01*
X204890666Y-43547380D02*
X204414476Y-43547380D01*
X204414476Y-42547380D01*
X204890666Y-42547380D01*
X205319238Y-43547380D02*
X205319238Y-42547380D01*
X205557333Y-42547380D01*
X205700190Y-42595000D01*
X205795428Y-42690238D01*
X205843047Y-42785476D01*
X205890666Y-42975952D01*
X205890666Y-43118809D01*
X205843047Y-43309285D01*
X205795428Y-43404523D01*
X205700190Y-43499761D01*
X205557333Y-43547380D01*
X205319238Y-43547380D01*
D13*
X203752571Y-41636904D02*
X203752571Y-40836904D01*
X203943047Y-40836904D01*
X204057333Y-40875000D01*
X204133523Y-40951190D01*
X204171619Y-41027380D01*
X204209714Y-41179761D01*
X204209714Y-41294047D01*
X204171619Y-41446428D01*
X204133523Y-41522619D01*
X204057333Y-41598809D01*
X203943047Y-41636904D01*
X203752571Y-41636904D01*
X204971619Y-41636904D02*
X204514476Y-41636904D01*
X204743047Y-41636904D02*
X204743047Y-40836904D01*
X204666857Y-40951190D01*
X204590666Y-41027380D01*
X204514476Y-41065476D01*
X205733523Y-41636904D02*
X205276380Y-41636904D01*
X205504952Y-41636904D02*
X205504952Y-40836904D01*
X205428761Y-40951190D01*
X205352571Y-41027380D01*
X205276380Y-41065476D01*
D11*
X180310615Y-38109246D02*
X179973898Y-37772529D01*
X180681004Y-37065422D01*
X180916707Y-37974559D02*
X181152409Y-38210262D01*
X180883035Y-38681666D02*
X180546317Y-38344949D01*
X181253424Y-37637842D01*
X181590142Y-37974559D01*
X181186081Y-38984712D02*
X181893188Y-38277605D01*
X182061546Y-38445964D01*
X182128890Y-38580651D01*
X182128890Y-38715338D01*
X182095218Y-38816353D01*
X181994203Y-38984712D01*
X181893188Y-39085727D01*
X181724829Y-39186743D01*
X181623814Y-39220414D01*
X181489127Y-39220414D01*
X181354440Y-39153071D01*
X181186081Y-38984712D01*
D13*
X181429190Y-36526001D02*
X181994876Y-35960316D01*
X182129563Y-36095003D01*
X182183438Y-36202752D01*
X182183438Y-36310502D01*
X182156500Y-36391314D01*
X182075688Y-36526001D01*
X181994876Y-36606813D01*
X181860189Y-36687625D01*
X181779377Y-36714563D01*
X181671627Y-36714563D01*
X181563877Y-36660688D01*
X181429190Y-36526001D01*
X182291187Y-37387998D02*
X181967938Y-37064749D01*
X182129563Y-37226374D02*
X182695248Y-36660688D01*
X182560561Y-36687625D01*
X182452812Y-36687625D01*
X182372000Y-36660688D01*
X183207059Y-37172499D02*
X183260934Y-37226374D01*
X183287871Y-37307186D01*
X183287871Y-37361061D01*
X183260934Y-37441873D01*
X183180122Y-37576560D01*
X183045435Y-37711247D01*
X182910748Y-37792059D01*
X182829935Y-37818996D01*
X182776061Y-37818996D01*
X182695248Y-37792059D01*
X182641374Y-37738184D01*
X182614436Y-37657372D01*
X182614436Y-37603497D01*
X182641374Y-37522685D01*
X182722186Y-37387998D01*
X182856873Y-37253311D01*
X182991560Y-37172499D01*
X183072372Y-37145561D01*
X183126247Y-37145561D01*
X183207059Y-37172499D01*
D11*
X211019746Y-39335884D02*
X210683029Y-39672601D01*
X209975922Y-38965495D01*
X210885059Y-38729792D02*
X211120762Y-38494090D01*
X211592166Y-38763464D02*
X211255449Y-39100182D01*
X210548342Y-38393075D01*
X210885059Y-38056357D01*
X211895212Y-38460418D02*
X211188105Y-37753311D01*
X211356464Y-37584953D01*
X211491151Y-37517609D01*
X211625838Y-37517609D01*
X211726853Y-37551281D01*
X211895212Y-37652296D01*
X211996227Y-37753311D01*
X212097243Y-37921670D01*
X212130914Y-38022685D01*
X212130914Y-38157372D01*
X212063571Y-38292059D01*
X211895212Y-38460418D01*
D13*
X209705875Y-37947935D02*
X209140190Y-37382249D01*
X209274877Y-37247562D01*
X209382626Y-37193687D01*
X209490376Y-37193687D01*
X209571188Y-37220625D01*
X209705875Y-37301437D01*
X209786687Y-37382249D01*
X209867500Y-37516936D01*
X209894437Y-37597748D01*
X209894437Y-37705498D01*
X209840562Y-37813248D01*
X209705875Y-37947935D01*
X210298498Y-37355312D02*
X210406248Y-37247562D01*
X210433185Y-37166750D01*
X210433185Y-37112875D01*
X210406248Y-36978188D01*
X210325435Y-36843501D01*
X210109936Y-36628002D01*
X210029124Y-36601064D01*
X209975249Y-36601064D01*
X209894437Y-36628002D01*
X209786687Y-36735751D01*
X209759750Y-36816564D01*
X209759750Y-36870438D01*
X209786687Y-36951251D01*
X209921374Y-37085938D01*
X210002187Y-37112875D01*
X210056061Y-37112875D01*
X210136874Y-37085938D01*
X210244623Y-36978188D01*
X210271561Y-36897376D01*
X210271561Y-36843501D01*
X210244623Y-36762689D01*
X186632680Y-33228680D02*
X187032680Y-32535860D01*
X187197637Y-32631098D01*
X187277564Y-32721232D01*
X187305451Y-32825310D01*
X187300348Y-32910341D01*
X187257148Y-33061354D01*
X187200006Y-33160329D01*
X187090824Y-33273247D01*
X187019737Y-33320182D01*
X186915659Y-33348070D01*
X186797637Y-33323918D01*
X186632680Y-33228680D01*
X187653046Y-33289926D02*
X187606111Y-33218839D01*
X187592167Y-33166800D01*
X187597271Y-33081769D01*
X187616318Y-33048778D01*
X187687405Y-33001843D01*
X187739444Y-32987899D01*
X187824474Y-32993003D01*
X187956440Y-33069193D01*
X188003375Y-33140280D01*
X188017319Y-33192319D01*
X188012215Y-33277349D01*
X187993168Y-33310341D01*
X187922081Y-33357276D01*
X187870042Y-33371220D01*
X187785012Y-33366116D01*
X187653046Y-33289926D01*
X187568015Y-33284822D01*
X187515976Y-33298766D01*
X187444890Y-33345701D01*
X187368699Y-33477667D01*
X187363595Y-33562697D01*
X187377539Y-33614736D01*
X187424474Y-33685823D01*
X187556440Y-33762013D01*
X187641471Y-33767117D01*
X187693510Y-33753173D01*
X187764596Y-33706238D01*
X187840787Y-33574272D01*
X187845891Y-33489242D01*
X187831947Y-33437203D01*
X187785012Y-33366116D01*
D11*
X204922459Y-35372867D02*
X204510066Y-35610963D01*
X204010066Y-34744937D01*
X204949230Y-34752568D02*
X205237905Y-34585902D01*
X205623528Y-34968106D02*
X205211134Y-35206201D01*
X204711134Y-34340175D01*
X205123528Y-34102080D01*
X205994681Y-34753820D02*
X205494681Y-33887794D01*
X205700878Y-33768747D01*
X205848405Y-33738558D01*
X205978503Y-33773417D01*
X206067361Y-33832086D01*
X206203839Y-33973234D01*
X206275267Y-34096952D01*
X206329266Y-34285719D01*
X206335646Y-34392007D01*
X206300786Y-34522104D01*
X206200878Y-34634772D01*
X205994681Y-34753820D01*
D13*
X204012584Y-33692156D02*
X203612584Y-32999336D01*
X203777542Y-32904098D01*
X203895564Y-32879946D01*
X203999642Y-32907834D01*
X204070728Y-32954769D01*
X204179910Y-33067688D01*
X204237053Y-33166662D01*
X204280252Y-33317675D01*
X204285356Y-33402706D01*
X204257468Y-33506784D01*
X204177542Y-33596918D01*
X204012584Y-33692156D01*
X204239422Y-32637431D02*
X204701302Y-32370765D01*
X204804379Y-33235013D01*
D11*
X193601218Y-42008420D02*
X193937935Y-42345137D01*
X193331844Y-42143107D02*
X194274653Y-41671702D01*
X193803248Y-42614511D01*
X194645042Y-42042092D02*
X195049103Y-42446153D01*
X194139966Y-42951229D02*
X194847072Y-42244122D01*
X194948088Y-42816542D02*
X195217462Y-43085916D01*
X195284805Y-42681855D02*
X194678714Y-43287946D01*
X194645042Y-43388962D01*
X194678714Y-43489977D01*
X194746057Y-43557320D01*
X194981759Y-43793023D02*
X195453164Y-43321618D01*
X195688866Y-43085916D02*
X195621523Y-43085916D01*
X195621523Y-43153259D01*
X195688866Y-43153259D01*
X195688866Y-43085916D01*
X195621523Y-43153259D01*
X195789881Y-43658336D02*
X195318477Y-44129740D01*
X195722538Y-43725679D02*
X195789881Y-43725679D01*
X195890897Y-43759351D01*
X195991912Y-43860366D01*
X196025584Y-43961381D01*
X195991912Y-44062397D01*
X195621523Y-44432786D01*
X196362301Y-44230755D02*
X196059255Y-44870519D01*
X196699019Y-44567473D02*
X196059255Y-44870519D01*
X195823553Y-44971534D01*
X195756210Y-44971534D01*
X195655194Y-44937862D01*
X197002064Y-45005206D02*
X196968393Y-44904190D01*
X196968393Y-44836847D01*
X197002064Y-44735832D01*
X197035736Y-44702160D01*
X197136751Y-44668488D01*
X197204095Y-44668488D01*
X197305110Y-44702160D01*
X197439797Y-44836847D01*
X197473469Y-44937862D01*
X197473469Y-45005206D01*
X197439797Y-45106221D01*
X197406125Y-45139893D01*
X197305110Y-45173564D01*
X197237767Y-45173564D01*
X197136751Y-45139893D01*
X197002064Y-45005206D01*
X196901049Y-44971534D01*
X196833706Y-44971534D01*
X196732690Y-45005206D01*
X196598003Y-45139893D01*
X196564332Y-45240908D01*
X196564332Y-45308251D01*
X196598003Y-45409267D01*
X196732690Y-45543954D01*
X196833706Y-45577625D01*
X196901049Y-45577625D01*
X197002064Y-45543954D01*
X197136751Y-45409267D01*
X197170423Y-45308251D01*
X197170423Y-45240908D01*
X197136751Y-45139893D01*
X198214248Y-45611297D02*
X197877530Y-45274580D01*
X197507141Y-45577625D01*
X197574484Y-45577625D01*
X197675499Y-45611297D01*
X197843858Y-45779656D01*
X197877530Y-45880671D01*
X197877530Y-45948015D01*
X197843858Y-46049030D01*
X197675500Y-46217389D01*
X197574484Y-46251061D01*
X197507141Y-46251061D01*
X197406125Y-46217389D01*
X197237767Y-46049030D01*
X197204095Y-45948015D01*
X197204095Y-45880671D01*
X198113232Y-46385748D02*
X198651980Y-46924496D01*
X199325415Y-46857152D02*
X199392759Y-46857152D01*
X199493774Y-46890824D01*
X199662133Y-47059183D01*
X199695805Y-47160198D01*
X199695805Y-47227541D01*
X199662133Y-47328557D01*
X199594789Y-47395900D01*
X199460102Y-47463244D01*
X198651980Y-47463244D01*
X199089713Y-47900976D01*
X200234553Y-47631602D02*
X200301896Y-47698946D01*
X200335568Y-47799961D01*
X200335568Y-47867305D01*
X200301896Y-47968320D01*
X200200881Y-48136679D01*
X200032522Y-48305037D01*
X199864163Y-48406053D01*
X199763148Y-48439724D01*
X199695805Y-48439724D01*
X199594789Y-48406053D01*
X199527446Y-48338709D01*
X199493774Y-48237694D01*
X199493774Y-48170350D01*
X199527446Y-48069335D01*
X199628461Y-47900976D01*
X199796820Y-47732618D01*
X199965179Y-47631602D01*
X200066194Y-47597931D01*
X200133537Y-47597931D01*
X200234553Y-47631602D01*
X200066194Y-48877457D02*
X200773301Y-48170350D01*
X200503927Y-48911129D01*
X201244705Y-48641755D01*
X200537598Y-49348862D01*
X201581423Y-48978472D02*
X201009003Y-49550892D01*
X200975331Y-49651907D01*
X200975331Y-49719251D01*
X201009003Y-49820266D01*
X201143690Y-49954953D01*
X201244705Y-49988625D01*
X201312049Y-49988625D01*
X201413064Y-49954953D01*
X201985484Y-49382533D01*
X195842738Y-38761526D02*
X195270318Y-39333946D01*
X195236646Y-39434961D01*
X195236646Y-39502305D01*
X195270318Y-39603320D01*
X195405005Y-39738007D01*
X195506020Y-39771679D01*
X195573364Y-39771679D01*
X195674379Y-39738007D01*
X196246799Y-39165587D01*
X196246799Y-40579801D02*
X195842738Y-40175740D01*
X196044768Y-40377770D02*
X196751875Y-39670664D01*
X196583516Y-39704335D01*
X196448829Y-39704335D01*
X196347814Y-39670664D01*
X210806380Y-44330857D02*
X210806380Y-44807047D01*
X209806380Y-44807047D01*
X210282571Y-43997523D02*
X210282571Y-43664190D01*
X210806380Y-43521333D02*
X210806380Y-43997523D01*
X209806380Y-43997523D01*
X209806380Y-43521333D01*
X210806380Y-43092761D02*
X209806380Y-43092761D01*
X209806380Y-42854666D01*
X209854000Y-42711809D01*
X209949238Y-42616571D01*
X210044476Y-42568952D01*
X210234952Y-42521333D01*
X210377809Y-42521333D01*
X210568285Y-42568952D01*
X210663523Y-42616571D01*
X210758761Y-42711809D01*
X210806380Y-42854666D01*
X210806380Y-43092761D01*
D13*
X208895904Y-44278476D02*
X208095904Y-44278476D01*
X208095904Y-44088000D01*
X208134000Y-43973714D01*
X208210190Y-43897523D01*
X208286380Y-43859428D01*
X208438761Y-43821333D01*
X208553047Y-43821333D01*
X208705428Y-43859428D01*
X208781619Y-43897523D01*
X208857809Y-43973714D01*
X208895904Y-44088000D01*
X208895904Y-44278476D01*
X208095904Y-43097523D02*
X208095904Y-43478476D01*
X208476857Y-43516571D01*
X208438761Y-43478476D01*
X208400666Y-43402285D01*
X208400666Y-43211809D01*
X208438761Y-43135619D01*
X208476857Y-43097523D01*
X208553047Y-43059428D01*
X208743523Y-43059428D01*
X208819714Y-43097523D01*
X208857809Y-43135619D01*
X208895904Y-43211809D01*
X208895904Y-43402285D01*
X208857809Y-43478476D01*
X208819714Y-43516571D01*
D11*
X191302285Y-20518380D02*
X191302285Y-19518380D01*
X191635619Y-20232666D01*
X191968952Y-19518380D01*
X191968952Y-20518380D01*
X192588000Y-20518380D02*
X192492761Y-20470761D01*
X192445142Y-20423142D01*
X192397523Y-20327904D01*
X192397523Y-20042190D01*
X192445142Y-19946952D01*
X192492761Y-19899333D01*
X192588000Y-19851714D01*
X192730857Y-19851714D01*
X192826095Y-19899333D01*
X192873714Y-19946952D01*
X192921333Y-20042190D01*
X192921333Y-20327904D01*
X192873714Y-20423142D01*
X192826095Y-20470761D01*
X192730857Y-20518380D01*
X192588000Y-20518380D01*
X193778476Y-19851714D02*
X193778476Y-20518380D01*
X193349904Y-19851714D02*
X193349904Y-20375523D01*
X193397523Y-20470761D01*
X193492761Y-20518380D01*
X193635619Y-20518380D01*
X193730857Y-20470761D01*
X193778476Y-20423142D01*
X194254666Y-19851714D02*
X194254666Y-20518380D01*
X194254666Y-19946952D02*
X194302285Y-19899333D01*
X194397523Y-19851714D01*
X194540380Y-19851714D01*
X194635619Y-19899333D01*
X194683238Y-19994571D01*
X194683238Y-20518380D01*
X195016571Y-19851714D02*
X195397523Y-19851714D01*
X195159428Y-19518380D02*
X195159428Y-20375523D01*
X195207047Y-20470761D01*
X195302285Y-20518380D01*
X195397523Y-20518380D01*
X195730857Y-20518380D02*
X195730857Y-19851714D01*
X195730857Y-19518380D02*
X195683238Y-19566000D01*
X195730857Y-19613619D01*
X195778476Y-19566000D01*
X195730857Y-19518380D01*
X195730857Y-19613619D01*
X196207047Y-19851714D02*
X196207047Y-20518380D01*
X196207047Y-19946952D02*
X196254666Y-19899333D01*
X196349904Y-19851714D01*
X196492761Y-19851714D01*
X196588000Y-19899333D01*
X196635619Y-19994571D01*
X196635619Y-20518380D01*
X197540380Y-19851714D02*
X197540380Y-20661238D01*
X197492761Y-20756476D01*
X197445142Y-20804095D01*
X197349904Y-20851714D01*
X197207047Y-20851714D01*
X197111809Y-20804095D01*
X197540380Y-20470761D02*
X197445142Y-20518380D01*
X197254666Y-20518380D01*
X197159428Y-20470761D01*
X197111809Y-20423142D01*
X197064190Y-20327904D01*
X197064190Y-20042190D01*
X197111809Y-19946952D01*
X197159428Y-19899333D01*
X197254666Y-19851714D01*
X197445142Y-19851714D01*
X197540380Y-19899333D01*
X198016571Y-20518380D02*
X198016571Y-19518380D01*
X198016571Y-19994571D02*
X198588000Y-19994571D01*
X198588000Y-20518380D02*
X198588000Y-19518380D01*
X199207047Y-20518380D02*
X199111809Y-20470761D01*
X199064190Y-20423142D01*
X199016571Y-20327904D01*
X199016571Y-20042190D01*
X199064190Y-19946952D01*
X199111809Y-19899333D01*
X199207047Y-19851714D01*
X199349904Y-19851714D01*
X199445142Y-19899333D01*
X199492761Y-19946952D01*
X199540380Y-20042190D01*
X199540380Y-20327904D01*
X199492761Y-20423142D01*
X199445142Y-20470761D01*
X199349904Y-20518380D01*
X199207047Y-20518380D01*
X200111809Y-20518380D02*
X200016571Y-20470761D01*
X199968952Y-20375523D01*
X199968952Y-19518380D01*
X200873714Y-20470761D02*
X200778476Y-20518380D01*
X200588000Y-20518380D01*
X200492761Y-20470761D01*
X200445142Y-20375523D01*
X200445142Y-19994571D01*
X200492761Y-19899333D01*
X200588000Y-19851714D01*
X200778476Y-19851714D01*
X200873714Y-19899333D01*
X200921333Y-19994571D01*
X200921333Y-20089809D01*
X200445142Y-20185047D01*
X196469095Y-24709380D02*
X196469095Y-23709380D01*
X196469095Y-24185571D02*
X197040523Y-24185571D01*
X197040523Y-24709380D02*
X197040523Y-23709380D01*
X198040523Y-24709380D02*
X197469095Y-24709380D01*
X197754809Y-24709380D02*
X197754809Y-23709380D01*
X197659571Y-23852238D01*
X197564333Y-23947476D01*
X197469095Y-23995095D01*
X203128642Y-46511380D02*
X202652452Y-46511380D01*
X202652452Y-45511380D01*
X203461976Y-45987571D02*
X203795309Y-45987571D01*
X203938166Y-46511380D02*
X203461976Y-46511380D01*
X203461976Y-45511380D01*
X203938166Y-45511380D01*
X204366738Y-46511380D02*
X204366738Y-45511380D01*
X204604833Y-45511380D01*
X204747690Y-45559000D01*
X204842928Y-45654238D01*
X204890547Y-45749476D01*
X204938166Y-45939952D01*
X204938166Y-46082809D01*
X204890547Y-46273285D01*
X204842928Y-46368523D01*
X204747690Y-46463761D01*
X204604833Y-46511380D01*
X204366738Y-46511380D01*
D13*
X203181023Y-48240904D02*
X203181023Y-47440904D01*
X203371500Y-47440904D01*
X203485785Y-47479000D01*
X203561976Y-47555190D01*
X203600071Y-47631380D01*
X203638166Y-47783761D01*
X203638166Y-47898047D01*
X203600071Y-48050428D01*
X203561976Y-48126619D01*
X203485785Y-48202809D01*
X203371500Y-48240904D01*
X203181023Y-48240904D01*
X203904833Y-47440904D02*
X204400071Y-47440904D01*
X204133404Y-47745666D01*
X204247690Y-47745666D01*
X204323880Y-47783761D01*
X204361976Y-47821857D01*
X204400071Y-47898047D01*
X204400071Y-48088523D01*
X204361976Y-48164714D01*
X204323880Y-48202809D01*
X204247690Y-48240904D01*
X204019119Y-48240904D01*
X203942928Y-48202809D01*
X203904833Y-48164714D01*
D11*
X178146880Y-32075357D02*
X178146880Y-32551547D01*
X177146880Y-32551547D01*
X177623071Y-31742023D02*
X177623071Y-31408690D01*
X178146880Y-31265833D02*
X178146880Y-31742023D01*
X177146880Y-31742023D01*
X177146880Y-31265833D01*
X178146880Y-30837261D02*
X177146880Y-30837261D01*
X177146880Y-30599166D01*
X177194500Y-30456309D01*
X177289738Y-30361071D01*
X177384976Y-30313452D01*
X177575452Y-30265833D01*
X177718309Y-30265833D01*
X177908785Y-30313452D01*
X178004023Y-30361071D01*
X178099261Y-30456309D01*
X178146880Y-30599166D01*
X178146880Y-30837261D01*
D13*
X179685904Y-32149976D02*
X178885904Y-32149976D01*
X178885904Y-31959500D01*
X178924000Y-31845214D01*
X179000190Y-31769023D01*
X179076380Y-31730928D01*
X179228761Y-31692833D01*
X179343047Y-31692833D01*
X179495428Y-31730928D01*
X179571619Y-31769023D01*
X179647809Y-31845214D01*
X179685904Y-31959500D01*
X179685904Y-32149976D01*
X178885904Y-31007119D02*
X178885904Y-31159500D01*
X178924000Y-31235690D01*
X178962095Y-31273785D01*
X179076380Y-31349976D01*
X179228761Y-31388071D01*
X179533523Y-31388071D01*
X179609714Y-31349976D01*
X179647809Y-31311880D01*
X179685904Y-31235690D01*
X179685904Y-31083309D01*
X179647809Y-31007119D01*
X179609714Y-30969023D01*
X179533523Y-30930928D01*
X179343047Y-30930928D01*
X179266857Y-30969023D01*
X179228761Y-31007119D01*
X179190666Y-31083309D01*
X179190666Y-31235690D01*
X179228761Y-31311880D01*
X179266857Y-31349976D01*
X179343047Y-31388071D01*
D11*
X186041380Y-44203857D02*
X186041380Y-44680047D01*
X185041380Y-44680047D01*
X185517571Y-43870523D02*
X185517571Y-43537190D01*
X186041380Y-43394333D02*
X186041380Y-43870523D01*
X185041380Y-43870523D01*
X185041380Y-43394333D01*
X186041380Y-42965761D02*
X185041380Y-42965761D01*
X185041380Y-42727666D01*
X185089000Y-42584809D01*
X185184238Y-42489571D01*
X185279476Y-42441952D01*
X185469952Y-42394333D01*
X185612809Y-42394333D01*
X185803285Y-42441952D01*
X185898523Y-42489571D01*
X185993761Y-42584809D01*
X186041380Y-42727666D01*
X186041380Y-42965761D01*
D13*
X184130904Y-44151476D02*
X183330904Y-44151476D01*
X183330904Y-43961000D01*
X183369000Y-43846714D01*
X183445190Y-43770523D01*
X183521380Y-43732428D01*
X183673761Y-43694333D01*
X183788047Y-43694333D01*
X183940428Y-43732428D01*
X184016619Y-43770523D01*
X184092809Y-43846714D01*
X184130904Y-43961000D01*
X184130904Y-44151476D01*
X183597571Y-43008619D02*
X184130904Y-43008619D01*
X183292809Y-43199095D02*
X183864238Y-43389571D01*
X183864238Y-42894333D01*
D11*
X211484380Y-31884857D02*
X211484380Y-32361047D01*
X210484380Y-32361047D01*
X210960571Y-31551523D02*
X210960571Y-31218190D01*
X211484380Y-31075333D02*
X211484380Y-31551523D01*
X210484380Y-31551523D01*
X210484380Y-31075333D01*
X211484380Y-30646761D02*
X210484380Y-30646761D01*
X210484380Y-30408666D01*
X210532000Y-30265809D01*
X210627238Y-30170571D01*
X210722476Y-30122952D01*
X210912952Y-30075333D01*
X211055809Y-30075333D01*
X211246285Y-30122952D01*
X211341523Y-30170571D01*
X211436761Y-30265809D01*
X211484380Y-30408666D01*
X211484380Y-30646761D01*
D13*
X213213904Y-31832476D02*
X212413904Y-31832476D01*
X212413904Y-31642000D01*
X212452000Y-31527714D01*
X212528190Y-31451523D01*
X212604380Y-31413428D01*
X212756761Y-31375333D01*
X212871047Y-31375333D01*
X213023428Y-31413428D01*
X213099619Y-31451523D01*
X213175809Y-31527714D01*
X213213904Y-31642000D01*
X213213904Y-31832476D01*
X213213904Y-30613428D02*
X213213904Y-31070571D01*
X213213904Y-30842000D02*
X212413904Y-30842000D01*
X212528190Y-30918190D01*
X212604380Y-30994380D01*
X212642476Y-31070571D01*
D11*
X187571142Y-50024380D02*
X187094952Y-50024380D01*
X187094952Y-49024380D01*
X187904476Y-49500571D02*
X188237809Y-49500571D01*
X188380666Y-50024380D02*
X187904476Y-50024380D01*
X187904476Y-49024380D01*
X188380666Y-49024380D01*
X188809238Y-50024380D02*
X188809238Y-49024380D01*
X189047333Y-49024380D01*
X189190190Y-49072000D01*
X189285428Y-49167238D01*
X189333047Y-49262476D01*
X189380666Y-49452952D01*
X189380666Y-49595809D01*
X189333047Y-49786285D01*
X189285428Y-49881523D01*
X189190190Y-49976761D01*
X189047333Y-50024380D01*
X188809238Y-50024380D01*
D13*
X187623523Y-48113904D02*
X187623523Y-47313904D01*
X187814000Y-47313904D01*
X187928285Y-47352000D01*
X188004476Y-47428190D01*
X188042571Y-47504380D01*
X188080666Y-47656761D01*
X188080666Y-47771047D01*
X188042571Y-47923428D01*
X188004476Y-47999619D01*
X187928285Y-48075809D01*
X187814000Y-48113904D01*
X187623523Y-48113904D01*
X188385428Y-47390095D02*
X188423523Y-47352000D01*
X188499714Y-47313904D01*
X188690190Y-47313904D01*
X188766380Y-47352000D01*
X188804476Y-47390095D01*
X188842571Y-47466285D01*
X188842571Y-47542476D01*
X188804476Y-47656761D01*
X188347333Y-48113904D01*
X188842571Y-48113904D01*
M02*
