G04 #@! TF.GenerationSoftware,KiCad,Pcbnew,(5.1.5)-3*
G04 #@! TF.CreationDate,2020-05-15T21:02:07+03:00*
G04 #@! TF.ProjectId,ButterflyJewel,42757474-6572-4666-9c79-4a6577656c2e,rev?*
G04 #@! TF.SameCoordinates,Original*
G04 #@! TF.FileFunction,Other,User*
%FSLAX46Y46*%
G04 Gerber Fmt 4.6, Leading zero omitted, Abs format (unit mm)*
G04 Created by KiCad (PCBNEW (5.1.5)-3) date 2020-05-15 21:02:07*
%MOMM*%
%LPD*%
G04 APERTURE LIST*
%ADD10C,0.050000*%
G04 APERTURE END LIST*
D10*
X211081000Y-29607000D02*
X208781000Y-29607000D01*
X211081000Y-33607000D02*
X211081000Y-29607000D01*
X208781000Y-33607000D02*
X211081000Y-33607000D01*
X208781000Y-29607000D02*
X208781000Y-33607000D01*
X183395000Y-29670500D02*
X181095000Y-29670500D01*
X183395000Y-33670500D02*
X183395000Y-29670500D01*
X181095000Y-33670500D02*
X183395000Y-33670500D01*
X181095000Y-29670500D02*
X181095000Y-33670500D01*
X190092500Y-42077500D02*
X185192500Y-42077500D01*
X190092500Y-39837500D02*
X190092500Y-42077500D01*
X185192500Y-39837500D02*
X190092500Y-39837500D01*
X185192500Y-42077500D02*
X185192500Y-39837500D01*
X207174000Y-42395000D02*
X202274000Y-42395000D01*
X207174000Y-40155000D02*
X207174000Y-42395000D01*
X202274000Y-40155000D02*
X207174000Y-40155000D01*
X202274000Y-42395000D02*
X202274000Y-40155000D01*
X183312452Y-39481371D02*
X179847629Y-36016548D01*
X184896371Y-37897452D02*
X183312452Y-39481371D01*
X181431548Y-34432629D02*
X184896371Y-37897452D01*
X179847629Y-36016548D02*
X181431548Y-34432629D01*
X212391871Y-36334048D02*
X208927048Y-39798871D01*
X210807952Y-34750129D02*
X212391871Y-36334048D01*
X207343129Y-38214952D02*
X210807952Y-34750129D01*
X208927048Y-39798871D02*
X207343129Y-38214952D01*
X188886762Y-35405448D02*
X184643238Y-32955448D01*
X190006762Y-33465552D02*
X188886762Y-35405448D01*
X185763238Y-31015552D02*
X190006762Y-33465552D01*
X184643238Y-32955448D02*
X185763238Y-31015552D01*
X207024762Y-32828448D02*
X202781238Y-35278448D01*
X205904762Y-30888552D02*
X207024762Y-32828448D01*
X201661238Y-33338552D02*
X205904762Y-30888552D01*
X202781238Y-35278448D02*
X201661238Y-33338552D01*
X199671216Y-39687500D02*
X195994261Y-36010545D01*
X195994261Y-43364455D02*
X199671216Y-39687500D01*
X192317306Y-39687500D02*
X195994261Y-43364455D01*
X195994261Y-36010545D02*
X192317306Y-39687500D01*
X209654000Y-41238000D02*
X209654000Y-46138000D01*
X207414000Y-41238000D02*
X209654000Y-41238000D01*
X207414000Y-46138000D02*
X207414000Y-41238000D01*
X209654000Y-46138000D02*
X207414000Y-46138000D01*
X198374500Y-32702500D02*
G75*
G03X198374500Y-32702500I-2350000J0D01*
G01*
X206221500Y-46759000D02*
X206221500Y-48999000D01*
X206221500Y-48999000D02*
X201321500Y-48999000D01*
X201321500Y-48999000D02*
X201321500Y-46759000D01*
X201321500Y-46759000D02*
X206221500Y-46759000D01*
X178394500Y-33882500D02*
X178394500Y-28982500D01*
X180634500Y-33882500D02*
X178394500Y-33882500D01*
X180634500Y-28982500D02*
X180634500Y-33882500D01*
X178394500Y-28982500D02*
X180634500Y-28982500D01*
X184889000Y-41111000D02*
X184889000Y-46011000D01*
X182649000Y-41111000D02*
X184889000Y-41111000D01*
X182649000Y-46011000D02*
X182649000Y-41111000D01*
X184889000Y-46011000D02*
X182649000Y-46011000D01*
X211732000Y-33692000D02*
X211732000Y-28792000D01*
X213972000Y-33692000D02*
X211732000Y-33692000D01*
X213972000Y-28792000D02*
X213972000Y-33692000D01*
X211732000Y-28792000D02*
X213972000Y-28792000D01*
X190664000Y-48872000D02*
X185764000Y-48872000D01*
X190664000Y-46632000D02*
X190664000Y-48872000D01*
X185764000Y-46632000D02*
X190664000Y-46632000D01*
X185764000Y-48872000D02*
X185764000Y-46632000D01*
M02*
