G04 #@! TF.GenerationSoftware,KiCad,Pcbnew,(5.1.5)-3*
G04 #@! TF.CreationDate,2020-05-15T21:02:07+03:00*
G04 #@! TF.ProjectId,ButterflyJewel,42757474-6572-4666-9c79-4a6577656c2e,rev?*
G04 #@! TF.SameCoordinates,Original*
G04 #@! TF.FileFunction,Paste,Bot*
G04 #@! TF.FilePolarity,Positive*
%FSLAX46Y46*%
G04 Gerber Fmt 4.6, Leading zero omitted, Abs format (unit mm)*
G04 Created by KiCad (PCBNEW (5.1.5)-3) date 2020-05-15 21:02:07*
%MOMM*%
%LPD*%
G04 APERTURE LIST*
%ADD10R,1.700000X0.550000*%
%ADD11R,0.900000X1.000000*%
%ADD12C,0.100000*%
%ADD13R,3.500000X3.300000*%
G04 APERTURE END LIST*
D10*
X207835500Y-37874000D03*
D11*
X205785500Y-37249000D03*
X205785500Y-35649000D03*
X209885500Y-37249000D03*
X209885500Y-35649000D03*
D12*
G36*
X187267504Y-44465204D02*
G01*
X187291773Y-44468804D01*
X187315571Y-44474765D01*
X187338671Y-44483030D01*
X187360849Y-44493520D01*
X187381893Y-44506133D01*
X187401598Y-44520747D01*
X187419777Y-44537223D01*
X187436253Y-44555402D01*
X187450867Y-44575107D01*
X187463480Y-44596151D01*
X187473970Y-44618329D01*
X187482235Y-44641429D01*
X187488196Y-44665227D01*
X187491796Y-44689496D01*
X187493000Y-44714000D01*
X187493000Y-45964000D01*
X187491796Y-45988504D01*
X187488196Y-46012773D01*
X187482235Y-46036571D01*
X187473970Y-46059671D01*
X187463480Y-46081849D01*
X187450867Y-46102893D01*
X187436253Y-46122598D01*
X187419777Y-46140777D01*
X187401598Y-46157253D01*
X187381893Y-46171867D01*
X187360849Y-46184480D01*
X187338671Y-46194970D01*
X187315571Y-46203235D01*
X187291773Y-46209196D01*
X187267504Y-46212796D01*
X187243000Y-46214000D01*
X186318000Y-46214000D01*
X186293496Y-46212796D01*
X186269227Y-46209196D01*
X186245429Y-46203235D01*
X186222329Y-46194970D01*
X186200151Y-46184480D01*
X186179107Y-46171867D01*
X186159402Y-46157253D01*
X186141223Y-46140777D01*
X186124747Y-46122598D01*
X186110133Y-46102893D01*
X186097520Y-46081849D01*
X186087030Y-46059671D01*
X186078765Y-46036571D01*
X186072804Y-46012773D01*
X186069204Y-45988504D01*
X186068000Y-45964000D01*
X186068000Y-44714000D01*
X186069204Y-44689496D01*
X186072804Y-44665227D01*
X186078765Y-44641429D01*
X186087030Y-44618329D01*
X186097520Y-44596151D01*
X186110133Y-44575107D01*
X186124747Y-44555402D01*
X186141223Y-44537223D01*
X186159402Y-44520747D01*
X186179107Y-44506133D01*
X186200151Y-44493520D01*
X186222329Y-44483030D01*
X186245429Y-44474765D01*
X186269227Y-44468804D01*
X186293496Y-44465204D01*
X186318000Y-44464000D01*
X187243000Y-44464000D01*
X187267504Y-44465204D01*
G37*
G36*
X184292504Y-44465204D02*
G01*
X184316773Y-44468804D01*
X184340571Y-44474765D01*
X184363671Y-44483030D01*
X184385849Y-44493520D01*
X184406893Y-44506133D01*
X184426598Y-44520747D01*
X184444777Y-44537223D01*
X184461253Y-44555402D01*
X184475867Y-44575107D01*
X184488480Y-44596151D01*
X184498970Y-44618329D01*
X184507235Y-44641429D01*
X184513196Y-44665227D01*
X184516796Y-44689496D01*
X184518000Y-44714000D01*
X184518000Y-45964000D01*
X184516796Y-45988504D01*
X184513196Y-46012773D01*
X184507235Y-46036571D01*
X184498970Y-46059671D01*
X184488480Y-46081849D01*
X184475867Y-46102893D01*
X184461253Y-46122598D01*
X184444777Y-46140777D01*
X184426598Y-46157253D01*
X184406893Y-46171867D01*
X184385849Y-46184480D01*
X184363671Y-46194970D01*
X184340571Y-46203235D01*
X184316773Y-46209196D01*
X184292504Y-46212796D01*
X184268000Y-46214000D01*
X183343000Y-46214000D01*
X183318496Y-46212796D01*
X183294227Y-46209196D01*
X183270429Y-46203235D01*
X183247329Y-46194970D01*
X183225151Y-46184480D01*
X183204107Y-46171867D01*
X183184402Y-46157253D01*
X183166223Y-46140777D01*
X183149747Y-46122598D01*
X183135133Y-46102893D01*
X183122520Y-46081849D01*
X183112030Y-46059671D01*
X183103765Y-46036571D01*
X183097804Y-46012773D01*
X183094204Y-45988504D01*
X183093000Y-45964000D01*
X183093000Y-44714000D01*
X183094204Y-44689496D01*
X183097804Y-44665227D01*
X183103765Y-44641429D01*
X183112030Y-44618329D01*
X183122520Y-44596151D01*
X183135133Y-44575107D01*
X183149747Y-44555402D01*
X183166223Y-44537223D01*
X183184402Y-44520747D01*
X183204107Y-44506133D01*
X183225151Y-44493520D01*
X183247329Y-44483030D01*
X183270429Y-44474765D01*
X183294227Y-44468804D01*
X183318496Y-44465204D01*
X183343000Y-44464000D01*
X184268000Y-44464000D01*
X184292504Y-44465204D01*
G37*
G36*
X186505504Y-35892704D02*
G01*
X186529773Y-35896304D01*
X186553571Y-35902265D01*
X186576671Y-35910530D01*
X186598849Y-35921020D01*
X186619893Y-35933633D01*
X186639598Y-35948247D01*
X186657777Y-35964723D01*
X186674253Y-35982902D01*
X186688867Y-36002607D01*
X186701480Y-36023651D01*
X186711970Y-36045829D01*
X186720235Y-36068929D01*
X186726196Y-36092727D01*
X186729796Y-36116996D01*
X186731000Y-36141500D01*
X186731000Y-37391500D01*
X186729796Y-37416004D01*
X186726196Y-37440273D01*
X186720235Y-37464071D01*
X186711970Y-37487171D01*
X186701480Y-37509349D01*
X186688867Y-37530393D01*
X186674253Y-37550098D01*
X186657777Y-37568277D01*
X186639598Y-37584753D01*
X186619893Y-37599367D01*
X186598849Y-37611980D01*
X186576671Y-37622470D01*
X186553571Y-37630735D01*
X186529773Y-37636696D01*
X186505504Y-37640296D01*
X186481000Y-37641500D01*
X185556000Y-37641500D01*
X185531496Y-37640296D01*
X185507227Y-37636696D01*
X185483429Y-37630735D01*
X185460329Y-37622470D01*
X185438151Y-37611980D01*
X185417107Y-37599367D01*
X185397402Y-37584753D01*
X185379223Y-37568277D01*
X185362747Y-37550098D01*
X185348133Y-37530393D01*
X185335520Y-37509349D01*
X185325030Y-37487171D01*
X185316765Y-37464071D01*
X185310804Y-37440273D01*
X185307204Y-37416004D01*
X185306000Y-37391500D01*
X185306000Y-36141500D01*
X185307204Y-36116996D01*
X185310804Y-36092727D01*
X185316765Y-36068929D01*
X185325030Y-36045829D01*
X185335520Y-36023651D01*
X185348133Y-36002607D01*
X185362747Y-35982902D01*
X185379223Y-35964723D01*
X185397402Y-35948247D01*
X185417107Y-35933633D01*
X185438151Y-35921020D01*
X185460329Y-35910530D01*
X185483429Y-35902265D01*
X185507227Y-35896304D01*
X185531496Y-35892704D01*
X185556000Y-35891500D01*
X186481000Y-35891500D01*
X186505504Y-35892704D01*
G37*
G36*
X183530504Y-35892704D02*
G01*
X183554773Y-35896304D01*
X183578571Y-35902265D01*
X183601671Y-35910530D01*
X183623849Y-35921020D01*
X183644893Y-35933633D01*
X183664598Y-35948247D01*
X183682777Y-35964723D01*
X183699253Y-35982902D01*
X183713867Y-36002607D01*
X183726480Y-36023651D01*
X183736970Y-36045829D01*
X183745235Y-36068929D01*
X183751196Y-36092727D01*
X183754796Y-36116996D01*
X183756000Y-36141500D01*
X183756000Y-37391500D01*
X183754796Y-37416004D01*
X183751196Y-37440273D01*
X183745235Y-37464071D01*
X183736970Y-37487171D01*
X183726480Y-37509349D01*
X183713867Y-37530393D01*
X183699253Y-37550098D01*
X183682777Y-37568277D01*
X183664598Y-37584753D01*
X183644893Y-37599367D01*
X183623849Y-37611980D01*
X183601671Y-37622470D01*
X183578571Y-37630735D01*
X183554773Y-37636696D01*
X183530504Y-37640296D01*
X183506000Y-37641500D01*
X182581000Y-37641500D01*
X182556496Y-37640296D01*
X182532227Y-37636696D01*
X182508429Y-37630735D01*
X182485329Y-37622470D01*
X182463151Y-37611980D01*
X182442107Y-37599367D01*
X182422402Y-37584753D01*
X182404223Y-37568277D01*
X182387747Y-37550098D01*
X182373133Y-37530393D01*
X182360520Y-37509349D01*
X182350030Y-37487171D01*
X182341765Y-37464071D01*
X182335804Y-37440273D01*
X182332204Y-37416004D01*
X182331000Y-37391500D01*
X182331000Y-36141500D01*
X182332204Y-36116996D01*
X182335804Y-36092727D01*
X182341765Y-36068929D01*
X182350030Y-36045829D01*
X182360520Y-36023651D01*
X182373133Y-36002607D01*
X182387747Y-35982902D01*
X182404223Y-35964723D01*
X182422402Y-35948247D01*
X182442107Y-35933633D01*
X182463151Y-35921020D01*
X182485329Y-35910530D01*
X182508429Y-35902265D01*
X182532227Y-35896304D01*
X182556496Y-35892704D01*
X182581000Y-35891500D01*
X183506000Y-35891500D01*
X183530504Y-35892704D01*
G37*
G36*
X208349504Y-44719204D02*
G01*
X208373773Y-44722804D01*
X208397571Y-44728765D01*
X208420671Y-44737030D01*
X208442849Y-44747520D01*
X208463893Y-44760133D01*
X208483598Y-44774747D01*
X208501777Y-44791223D01*
X208518253Y-44809402D01*
X208532867Y-44829107D01*
X208545480Y-44850151D01*
X208555970Y-44872329D01*
X208564235Y-44895429D01*
X208570196Y-44919227D01*
X208573796Y-44943496D01*
X208575000Y-44968000D01*
X208575000Y-46218000D01*
X208573796Y-46242504D01*
X208570196Y-46266773D01*
X208564235Y-46290571D01*
X208555970Y-46313671D01*
X208545480Y-46335849D01*
X208532867Y-46356893D01*
X208518253Y-46376598D01*
X208501777Y-46394777D01*
X208483598Y-46411253D01*
X208463893Y-46425867D01*
X208442849Y-46438480D01*
X208420671Y-46448970D01*
X208397571Y-46457235D01*
X208373773Y-46463196D01*
X208349504Y-46466796D01*
X208325000Y-46468000D01*
X207400000Y-46468000D01*
X207375496Y-46466796D01*
X207351227Y-46463196D01*
X207327429Y-46457235D01*
X207304329Y-46448970D01*
X207282151Y-46438480D01*
X207261107Y-46425867D01*
X207241402Y-46411253D01*
X207223223Y-46394777D01*
X207206747Y-46376598D01*
X207192133Y-46356893D01*
X207179520Y-46335849D01*
X207169030Y-46313671D01*
X207160765Y-46290571D01*
X207154804Y-46266773D01*
X207151204Y-46242504D01*
X207150000Y-46218000D01*
X207150000Y-44968000D01*
X207151204Y-44943496D01*
X207154804Y-44919227D01*
X207160765Y-44895429D01*
X207169030Y-44872329D01*
X207179520Y-44850151D01*
X207192133Y-44829107D01*
X207206747Y-44809402D01*
X207223223Y-44791223D01*
X207241402Y-44774747D01*
X207261107Y-44760133D01*
X207282151Y-44747520D01*
X207304329Y-44737030D01*
X207327429Y-44728765D01*
X207351227Y-44722804D01*
X207375496Y-44719204D01*
X207400000Y-44718000D01*
X208325000Y-44718000D01*
X208349504Y-44719204D01*
G37*
G36*
X205374504Y-44719204D02*
G01*
X205398773Y-44722804D01*
X205422571Y-44728765D01*
X205445671Y-44737030D01*
X205467849Y-44747520D01*
X205488893Y-44760133D01*
X205508598Y-44774747D01*
X205526777Y-44791223D01*
X205543253Y-44809402D01*
X205557867Y-44829107D01*
X205570480Y-44850151D01*
X205580970Y-44872329D01*
X205589235Y-44895429D01*
X205595196Y-44919227D01*
X205598796Y-44943496D01*
X205600000Y-44968000D01*
X205600000Y-46218000D01*
X205598796Y-46242504D01*
X205595196Y-46266773D01*
X205589235Y-46290571D01*
X205580970Y-46313671D01*
X205570480Y-46335849D01*
X205557867Y-46356893D01*
X205543253Y-46376598D01*
X205526777Y-46394777D01*
X205508598Y-46411253D01*
X205488893Y-46425867D01*
X205467849Y-46438480D01*
X205445671Y-46448970D01*
X205422571Y-46457235D01*
X205398773Y-46463196D01*
X205374504Y-46466796D01*
X205350000Y-46468000D01*
X204425000Y-46468000D01*
X204400496Y-46466796D01*
X204376227Y-46463196D01*
X204352429Y-46457235D01*
X204329329Y-46448970D01*
X204307151Y-46438480D01*
X204286107Y-46425867D01*
X204266402Y-46411253D01*
X204248223Y-46394777D01*
X204231747Y-46376598D01*
X204217133Y-46356893D01*
X204204520Y-46335849D01*
X204194030Y-46313671D01*
X204185765Y-46290571D01*
X204179804Y-46266773D01*
X204176204Y-46242504D01*
X204175000Y-46218000D01*
X204175000Y-44968000D01*
X204176204Y-44943496D01*
X204179804Y-44919227D01*
X204185765Y-44895429D01*
X204194030Y-44872329D01*
X204204520Y-44850151D01*
X204217133Y-44829107D01*
X204231747Y-44809402D01*
X204248223Y-44791223D01*
X204266402Y-44774747D01*
X204286107Y-44760133D01*
X204307151Y-44747520D01*
X204329329Y-44737030D01*
X204352429Y-44728765D01*
X204376227Y-44722804D01*
X204400496Y-44719204D01*
X204425000Y-44718000D01*
X205350000Y-44718000D01*
X205374504Y-44719204D01*
G37*
D13*
X203988000Y-41402000D03*
X188188000Y-41402000D03*
D12*
G36*
X186072561Y-31410552D02*
G01*
X186096698Y-31414944D01*
X186120289Y-31421680D01*
X186143106Y-31430697D01*
X186164929Y-31441907D01*
X186966003Y-31904407D01*
X186986622Y-31917701D01*
X187005839Y-31932953D01*
X187023469Y-31950015D01*
X187039341Y-31968723D01*
X187053304Y-31988896D01*
X187065221Y-32010341D01*
X187074979Y-32032850D01*
X187082484Y-32056208D01*
X187087664Y-32080189D01*
X187090468Y-32104562D01*
X187090869Y-32129093D01*
X187088864Y-32153544D01*
X187084472Y-32177682D01*
X187077736Y-32201273D01*
X187068719Y-32224090D01*
X187057509Y-32245913D01*
X186432509Y-33328445D01*
X186419215Y-33349064D01*
X186403963Y-33368281D01*
X186386901Y-33385911D01*
X186368193Y-33401783D01*
X186348020Y-33415746D01*
X186326575Y-33427663D01*
X186304066Y-33437421D01*
X186280708Y-33444926D01*
X186256727Y-33450106D01*
X186232354Y-33452910D01*
X186207823Y-33453311D01*
X186183371Y-33451306D01*
X186159234Y-33446914D01*
X186135643Y-33440178D01*
X186112826Y-33431161D01*
X186091003Y-33419951D01*
X185289929Y-32957451D01*
X185269310Y-32944157D01*
X185250093Y-32928905D01*
X185232463Y-32911843D01*
X185216591Y-32893135D01*
X185202628Y-32872962D01*
X185190711Y-32851517D01*
X185180953Y-32829008D01*
X185173448Y-32805650D01*
X185168268Y-32781669D01*
X185165464Y-32757296D01*
X185165063Y-32732765D01*
X185167068Y-32708314D01*
X185171460Y-32684176D01*
X185178196Y-32660585D01*
X185187213Y-32637768D01*
X185198423Y-32615945D01*
X185823423Y-31533413D01*
X185836717Y-31512794D01*
X185851969Y-31493577D01*
X185869031Y-31475947D01*
X185887739Y-31460075D01*
X185907912Y-31446112D01*
X185929357Y-31434195D01*
X185951866Y-31424437D01*
X185975224Y-31416932D01*
X185999205Y-31411752D01*
X186023578Y-31408948D01*
X186048109Y-31408547D01*
X186072561Y-31410552D01*
G37*
G36*
X188648987Y-32898052D02*
G01*
X188673124Y-32902444D01*
X188696715Y-32909180D01*
X188719532Y-32918197D01*
X188741355Y-32929407D01*
X189542429Y-33391907D01*
X189563048Y-33405201D01*
X189582265Y-33420453D01*
X189599895Y-33437515D01*
X189615767Y-33456223D01*
X189629730Y-33476396D01*
X189641647Y-33497841D01*
X189651405Y-33520350D01*
X189658910Y-33543708D01*
X189664090Y-33567689D01*
X189666894Y-33592062D01*
X189667295Y-33616593D01*
X189665290Y-33641044D01*
X189660898Y-33665182D01*
X189654162Y-33688773D01*
X189645145Y-33711590D01*
X189633935Y-33733413D01*
X189008935Y-34815945D01*
X188995641Y-34836564D01*
X188980389Y-34855781D01*
X188963327Y-34873411D01*
X188944619Y-34889283D01*
X188924446Y-34903246D01*
X188903001Y-34915163D01*
X188880492Y-34924921D01*
X188857134Y-34932426D01*
X188833153Y-34937606D01*
X188808780Y-34940410D01*
X188784249Y-34940811D01*
X188759797Y-34938806D01*
X188735660Y-34934414D01*
X188712069Y-34927678D01*
X188689252Y-34918661D01*
X188667429Y-34907451D01*
X187866355Y-34444951D01*
X187845736Y-34431657D01*
X187826519Y-34416405D01*
X187808889Y-34399343D01*
X187793017Y-34380635D01*
X187779054Y-34360462D01*
X187767137Y-34339017D01*
X187757379Y-34316508D01*
X187749874Y-34293150D01*
X187744694Y-34269169D01*
X187741890Y-34244796D01*
X187741489Y-34220265D01*
X187743494Y-34195814D01*
X187747886Y-34171676D01*
X187754622Y-34148085D01*
X187763639Y-34125268D01*
X187774849Y-34103445D01*
X188399849Y-33020913D01*
X188413143Y-33000294D01*
X188428395Y-32981077D01*
X188445457Y-32963447D01*
X188464165Y-32947575D01*
X188484338Y-32933612D01*
X188505783Y-32921695D01*
X188528292Y-32911937D01*
X188551650Y-32904432D01*
X188575631Y-32899252D01*
X188600004Y-32896448D01*
X188624535Y-32896047D01*
X188648987Y-32898052D01*
G37*
M02*
