G04 #@! TF.GenerationSoftware,KiCad,Pcbnew,(5.1.5)-3*
G04 #@! TF.CreationDate,2020-05-15T21:02:07+03:00*
G04 #@! TF.ProjectId,ButterflyJewel,42757474-6572-4666-9c79-4a6577656c2e,rev?*
G04 #@! TF.SameCoordinates,Original*
G04 #@! TF.FileFunction,Profile,NP*
%FSLAX46Y46*%
G04 Gerber Fmt 4.6, Leading zero omitted, Abs format (unit mm)*
G04 Created by KiCad (PCBNEW (5.1.5)-3) date 2020-05-15 21:02:07*
%MOMM*%
%LPD*%
G04 APERTURE LIST*
%ADD10C,0.050000*%
G04 APERTURE END LIST*
D10*
X194183000Y-45466000D02*
X194818000Y-45148500D01*
X194881500Y-34925000D02*
X194945000Y-35115500D01*
X194691000Y-34544000D02*
X194881500Y-34925000D01*
X194328659Y-34235087D02*
X194691000Y-34544000D01*
X197167500Y-34988500D02*
X197104000Y-35115500D01*
X197485000Y-34671000D02*
X197167500Y-34988500D01*
X198119999Y-33654999D02*
X197485000Y-34671000D01*
X194328659Y-34235087D02*
G75*
G02X198119999Y-33654999I1695841J1596087D01*
G01*
X195199000Y-35750500D02*
X194945000Y-35115500D01*
X195008500Y-35877500D02*
X195199000Y-35750500D01*
X196850000Y-35814000D02*
X197104000Y-35115500D01*
X197929500Y-35496500D02*
X196850000Y-35814000D01*
X200977500Y-33337500D02*
X197929500Y-35496500D01*
X203390500Y-31686500D02*
X200977500Y-33337500D01*
X205803500Y-30289500D02*
X203390500Y-31686500D01*
X207708500Y-29337000D02*
X205803500Y-30289500D01*
X210121500Y-28575000D02*
X207708500Y-29337000D01*
X212153500Y-28321000D02*
X210121500Y-28575000D01*
X213487000Y-28448000D02*
X212153500Y-28321000D01*
X214439500Y-28765500D02*
X213487000Y-28448000D01*
X215328500Y-29337000D02*
X214439500Y-28765500D01*
X215836500Y-30099000D02*
X215328500Y-29337000D01*
X216027000Y-30861000D02*
X215836500Y-30099000D01*
X215836500Y-31623000D02*
X216027000Y-30861000D01*
X215201500Y-32512000D02*
X215836500Y-31623000D01*
X214122000Y-34099500D02*
X215201500Y-32512000D01*
X213042500Y-35750500D02*
X214122000Y-34099500D01*
X212344000Y-37020500D02*
X213042500Y-35750500D01*
X211328000Y-38925500D02*
X212344000Y-37020500D01*
X210566000Y-39814500D02*
X211328000Y-38925500D01*
X210185000Y-40068500D02*
X210566000Y-39814500D01*
X210185000Y-40386000D02*
X210185000Y-40068500D01*
X210629500Y-41338500D02*
X210185000Y-40386000D01*
X210820000Y-42164000D02*
X210629500Y-41338500D01*
X210883500Y-42926000D02*
X210820000Y-42164000D01*
X210629500Y-44386500D02*
X210883500Y-42926000D01*
X210121500Y-45720000D02*
X210629500Y-44386500D01*
X209042000Y-47180500D02*
X210121500Y-45720000D01*
X207772000Y-48450500D02*
X209042000Y-47180500D01*
X206375000Y-49403000D02*
X207772000Y-48450500D01*
X205105000Y-49974500D02*
X206375000Y-49403000D01*
X203708000Y-50165000D02*
X205105000Y-49974500D01*
X202565000Y-50101500D02*
X203708000Y-50165000D01*
X201295000Y-49530000D02*
X202565000Y-50101500D01*
X200469500Y-48831500D02*
X201295000Y-49530000D01*
X199390000Y-47561500D02*
X200469500Y-48831500D01*
X198374000Y-46037500D02*
X199390000Y-47561500D01*
X197358000Y-45148500D02*
X198374000Y-46037500D01*
X196977000Y-45148500D02*
X197358000Y-45148500D01*
X196723000Y-46736000D02*
X196977000Y-45148500D01*
X196342000Y-47180500D02*
X196723000Y-46736000D01*
X195897500Y-47180500D02*
X196342000Y-47180500D01*
X195516500Y-46990000D02*
X195897500Y-47180500D01*
X195199000Y-45910500D02*
X195516500Y-46990000D01*
X195008500Y-45148500D02*
X195199000Y-45910500D01*
X194818000Y-45148500D02*
X195008500Y-45148500D01*
X193675000Y-46164500D02*
X194183000Y-45466000D01*
X192214500Y-48133000D02*
X193675000Y-46164500D01*
X190881000Y-49530000D02*
X192214500Y-48133000D01*
X189357000Y-50228500D02*
X190881000Y-49530000D01*
X187642500Y-50228500D02*
X189357000Y-50228500D01*
X186245500Y-49784000D02*
X187642500Y-50228500D01*
X185039000Y-49022000D02*
X186245500Y-49784000D01*
X183515000Y-47815500D02*
X185039000Y-49022000D01*
X182245000Y-46101000D02*
X183515000Y-47815500D01*
X181419500Y-44767500D02*
X182245000Y-46101000D01*
X181102000Y-42926000D02*
X181419500Y-44767500D01*
X181356000Y-41529000D02*
X181102000Y-42926000D01*
X181864000Y-40195500D02*
X181356000Y-41529000D01*
X181419500Y-39878000D02*
X181864000Y-40195500D01*
X180784500Y-39116000D02*
X181419500Y-39878000D01*
X179260500Y-36258500D02*
X180784500Y-39116000D01*
X177609500Y-33782000D02*
X179260500Y-36258500D01*
X176149000Y-31432500D02*
X177609500Y-33782000D01*
X176022000Y-30416500D02*
X176149000Y-31432500D01*
X176530000Y-29400500D02*
X176022000Y-30416500D01*
X177800000Y-28575000D02*
X176530000Y-29400500D01*
X179070000Y-28257500D02*
X177800000Y-28575000D01*
X180975000Y-28321000D02*
X179070000Y-28257500D01*
X184023000Y-29210000D02*
X180975000Y-28321000D01*
X186626500Y-30416500D02*
X184023000Y-29210000D01*
X195008500Y-35877500D02*
X186626500Y-30416500D01*
M02*
