M48
; DRILL file {KiCad (5.1.5)-3} date 5/15/2020 9:02:11 PM
; FORMAT={-:-/ absolute / metric / decimal}
; #@! TF.CreationDate,2020-05-15T21:02:11+03:00
; #@! TF.GenerationSoftware,Kicad,Pcbnew,(5.1.5)-3
; #@! TF.FileFunction,Plated,1,2,PTH
FMAT,2
METRIC
T1C0.400
T2C0.500
%
G90
G05
T1
X182.689Y-40.513
X183.744Y-40.195
X184.785Y-39.56
X186.283Y-38.855
X188.273Y-36.889
X188.531Y-44.712
X188.917Y-38.295
X188.918Y-36.125
X190.5Y-34.099
X190.627Y-36.449
X190.694Y-45.249
X191.262Y-38.291
X191.452Y-35.75
X193.616Y-35.746
X195.994Y-39.688
X200.088Y-46.609
X200.85Y-47.625
X201.388Y-45.11
X201.612Y-36.703
X202.882Y-45.402
X202.91Y-35.905
X204.025Y-37.465
X204.153Y-48.197
X204.787Y-38.608
X204.787Y-44.102
X206.349Y-44.069
X207.2Y-30.734
X207.327Y-47.307
X207.581Y-39.497
T2
X182.245Y-30.67
X182.245Y-31.67
X182.245Y-32.67
X209.931Y-30.607
X209.931Y-31.607
X209.931Y-32.607
T0
M30
