G04 #@! TF.GenerationSoftware,KiCad,Pcbnew,(5.1.5)-3*
G04 #@! TF.CreationDate,2020-05-15T21:02:07+03:00*
G04 #@! TF.ProjectId,ButterflyJewel,42757474-6572-4666-9c79-4a6577656c2e,rev?*
G04 #@! TF.SameCoordinates,Original*
G04 #@! TF.FileFunction,Other,User*
%FSLAX46Y46*%
G04 Gerber Fmt 4.6, Leading zero omitted, Abs format (unit mm)*
G04 Created by KiCad (PCBNEW (5.1.5)-3) date 2020-05-15 21:02:07*
%MOMM*%
%LPD*%
G04 APERTURE LIST*
%ADD10C,0.050000*%
G04 APERTURE END LIST*
D10*
X205035500Y-38249000D02*
X210635500Y-38249000D01*
X210635500Y-38249000D02*
X210635500Y-34649000D01*
X210635500Y-34649000D02*
X205035500Y-34649000D01*
X205035500Y-34649000D02*
X205035500Y-38249000D01*
X187743000Y-44219000D02*
X182843000Y-44219000D01*
X187743000Y-46459000D02*
X187743000Y-44219000D01*
X182843000Y-46459000D02*
X187743000Y-46459000D01*
X182843000Y-44219000D02*
X182843000Y-46459000D01*
X186981000Y-35646500D02*
X182081000Y-35646500D01*
X186981000Y-37886500D02*
X186981000Y-35646500D01*
X182081000Y-37886500D02*
X186981000Y-37886500D01*
X182081000Y-35646500D02*
X182081000Y-37886500D01*
X208825000Y-44473000D02*
X203925000Y-44473000D01*
X208825000Y-46713000D02*
X208825000Y-44473000D01*
X203925000Y-46713000D02*
X208825000Y-46713000D01*
X203925000Y-44473000D02*
X203925000Y-46713000D01*
X190798000Y-34642000D02*
X201378000Y-34642000D01*
X206238000Y-39252000D02*
X203338000Y-39252000D01*
X206238000Y-43552000D02*
X206238000Y-39252000D01*
X203338000Y-43552000D02*
X206238000Y-43552000D01*
X185938000Y-39252000D02*
X188838000Y-39252000D01*
X185938000Y-43552000D02*
X185938000Y-39252000D01*
X188838000Y-43552000D02*
X185938000Y-43552000D01*
X188838000Y-43552000D02*
X188838000Y-45202000D01*
X188838000Y-45202000D02*
X191438000Y-47802000D01*
X191438000Y-47802000D02*
X191438000Y-48752000D01*
X191438000Y-48752000D02*
X200738000Y-48752000D01*
X200738000Y-47802000D02*
X200738000Y-48752000D01*
X203338000Y-45202000D02*
X200738000Y-47802000D01*
X203338000Y-43552000D02*
X203338000Y-45202000D01*
X203338000Y-39252000D02*
X203338000Y-36602000D01*
X188838000Y-39252000D02*
X188838000Y-36602000D01*
X188838000Y-36602000D02*
G75*
G02X190798000Y-34642000I1960000J0D01*
G01*
X203338000Y-36602000D02*
G75*
G03X201378000Y-34642000I-1960000J0D01*
G01*
X184734417Y-32919627D02*
X188977941Y-35369627D01*
X185854417Y-30979731D02*
X184734417Y-32919627D01*
X190097941Y-33429731D02*
X185854417Y-30979731D01*
X188977941Y-35369627D02*
X190097941Y-33429731D01*
M02*
