G04 #@! TF.GenerationSoftware,KiCad,Pcbnew,(5.1.5)-3*
G04 #@! TF.CreationDate,2020-05-15T21:02:07+03:00*
G04 #@! TF.ProjectId,ButterflyJewel,42757474-6572-4666-9c79-4a6577656c2e,rev?*
G04 #@! TF.SameCoordinates,Original*
G04 #@! TF.FileFunction,Legend,Bot*
G04 #@! TF.FilePolarity,Positive*
%FSLAX46Y46*%
G04 Gerber Fmt 4.6, Leading zero omitted, Abs format (unit mm)*
G04 Created by KiCad (PCBNEW (5.1.5)-3) date 2020-05-15 21:02:07*
%MOMM*%
%LPD*%
G04 APERTURE LIST*
%ADD10C,0.120000*%
%ADD11C,0.150000*%
G04 APERTURE END LIST*
D10*
X206685500Y-37999000D02*
X205635500Y-37999000D01*
X210035500Y-36399000D02*
X210035500Y-36499000D01*
X205635500Y-34899000D02*
X210035500Y-34899000D01*
X210035500Y-37999000D02*
X208985500Y-37999000D01*
X205635500Y-36399000D02*
X205635500Y-36499000D01*
X184690936Y-44429000D02*
X185895064Y-44429000D01*
X184690936Y-46249000D02*
X185895064Y-46249000D01*
X183928936Y-35856500D02*
X185133064Y-35856500D01*
X183928936Y-37676500D02*
X185133064Y-37676500D01*
X205772936Y-44683000D02*
X206977064Y-44683000D01*
X205772936Y-46503000D02*
X206977064Y-46503000D01*
X202838000Y-44852000D02*
X202838000Y-43402000D01*
X200238000Y-47452000D02*
X202838000Y-44852000D01*
X200238000Y-48252000D02*
X200238000Y-47452000D01*
X191938000Y-48252000D02*
X200238000Y-48252000D01*
X191938000Y-47452000D02*
X191938000Y-48252000D01*
X189338000Y-44852000D02*
X191938000Y-47452000D01*
X189338000Y-43402000D02*
X189338000Y-44852000D01*
X189338000Y-39402000D02*
X189338000Y-37302000D01*
X202838000Y-39402000D02*
X202838000Y-37302000D01*
X189338000Y-37352000D02*
G75*
G02X190788000Y-35802000I1500000J50000D01*
G01*
X202838000Y-37352000D02*
G75*
G03X201388000Y-35802000I-1500000J50000D01*
G01*
X190673385Y-35817840D02*
G75*
G02X191588000Y-36202000I124615J-984160D01*
G01*
X201502615Y-35817840D02*
G75*
G03X200588000Y-36202000I-124615J-984160D01*
G01*
X187482582Y-34263794D02*
X186439776Y-33661730D01*
X188392582Y-32687628D02*
X187349776Y-32085564D01*
D11*
X209168833Y-39303761D02*
X209025976Y-39351380D01*
X208787880Y-39351380D01*
X208692642Y-39303761D01*
X208645023Y-39256142D01*
X208597404Y-39160904D01*
X208597404Y-39065666D01*
X208645023Y-38970428D01*
X208692642Y-38922809D01*
X208787880Y-38875190D01*
X208978357Y-38827571D01*
X209073595Y-38779952D01*
X209121214Y-38732333D01*
X209168833Y-38637095D01*
X209168833Y-38541857D01*
X209121214Y-38446619D01*
X209073595Y-38399000D01*
X208978357Y-38351380D01*
X208740261Y-38351380D01*
X208597404Y-38399000D01*
X208264071Y-38351380D02*
X208025976Y-39351380D01*
X207835500Y-38637095D01*
X207645023Y-39351380D01*
X207406928Y-38351380D01*
X206502166Y-39351380D02*
X207073595Y-39351380D01*
X206787880Y-39351380D02*
X206787880Y-38351380D01*
X206883119Y-38494238D01*
X206978357Y-38589476D01*
X207073595Y-38637095D01*
X185459666Y-47611380D02*
X185793000Y-47135190D01*
X186031095Y-47611380D02*
X186031095Y-46611380D01*
X185650142Y-46611380D01*
X185554904Y-46659000D01*
X185507285Y-46706619D01*
X185459666Y-46801857D01*
X185459666Y-46944714D01*
X185507285Y-47039952D01*
X185554904Y-47087571D01*
X185650142Y-47135190D01*
X186031095Y-47135190D01*
X184554904Y-46611380D02*
X185031095Y-46611380D01*
X185078714Y-47087571D01*
X185031095Y-47039952D01*
X184935857Y-46992333D01*
X184697761Y-46992333D01*
X184602523Y-47039952D01*
X184554904Y-47087571D01*
X184507285Y-47182809D01*
X184507285Y-47420904D01*
X184554904Y-47516142D01*
X184602523Y-47563761D01*
X184697761Y-47611380D01*
X184935857Y-47611380D01*
X185031095Y-47563761D01*
X185078714Y-47516142D01*
X184697666Y-39038880D02*
X185031000Y-38562690D01*
X185269095Y-39038880D02*
X185269095Y-38038880D01*
X184888142Y-38038880D01*
X184792904Y-38086500D01*
X184745285Y-38134119D01*
X184697666Y-38229357D01*
X184697666Y-38372214D01*
X184745285Y-38467452D01*
X184792904Y-38515071D01*
X184888142Y-38562690D01*
X185269095Y-38562690D01*
X183840523Y-38372214D02*
X183840523Y-39038880D01*
X184078619Y-37991261D02*
X184316714Y-38705547D01*
X183697666Y-38705547D01*
X206541666Y-47865380D02*
X206875000Y-47389190D01*
X207113095Y-47865380D02*
X207113095Y-46865380D01*
X206732142Y-46865380D01*
X206636904Y-46913000D01*
X206589285Y-46960619D01*
X206541666Y-47055857D01*
X206541666Y-47198714D01*
X206589285Y-47293952D01*
X206636904Y-47341571D01*
X206732142Y-47389190D01*
X207113095Y-47389190D01*
X206160714Y-46960619D02*
X206113095Y-46913000D01*
X206017857Y-46865380D01*
X205779761Y-46865380D01*
X205684523Y-46913000D01*
X205636904Y-46960619D01*
X205589285Y-47055857D01*
X205589285Y-47151095D01*
X205636904Y-47293952D01*
X206208333Y-47865380D01*
X205589285Y-47865380D01*
X197302285Y-49330571D02*
X197159428Y-49378190D01*
X197111809Y-49425809D01*
X197064190Y-49521047D01*
X197064190Y-49663904D01*
X197111809Y-49759142D01*
X197159428Y-49806761D01*
X197254666Y-49854380D01*
X197635619Y-49854380D01*
X197635619Y-48854380D01*
X197302285Y-48854380D01*
X197207047Y-48902000D01*
X197159428Y-48949619D01*
X197111809Y-49044857D01*
X197111809Y-49140095D01*
X197159428Y-49235333D01*
X197207047Y-49282952D01*
X197302285Y-49330571D01*
X197635619Y-49330571D01*
X196683238Y-49568666D02*
X196207047Y-49568666D01*
X196778476Y-49854380D02*
X196445142Y-48854380D01*
X196111809Y-49854380D01*
X195921333Y-48854380D02*
X195349904Y-48854380D01*
X195635619Y-49854380D02*
X195635619Y-48854380D01*
X194492761Y-49854380D02*
X195064190Y-49854380D01*
X194778476Y-49854380D02*
X194778476Y-48854380D01*
X194873714Y-48997238D01*
X194968952Y-49092476D01*
X195064190Y-49140095D01*
X188244326Y-32073619D02*
X188771096Y-31827893D01*
X188739197Y-32359334D02*
X189239197Y-31493308D01*
X188909283Y-31302832D01*
X188802995Y-31296452D01*
X188737946Y-31313882D01*
X188649087Y-31372551D01*
X188577659Y-31496269D01*
X188571279Y-31602557D01*
X188588709Y-31667606D01*
X188647378Y-31756464D01*
X188977292Y-31946940D01*
X187419539Y-31597429D02*
X187914411Y-31883143D01*
X187666975Y-31740286D02*
X188166975Y-30874260D01*
X188178025Y-31045597D01*
X188212885Y-31175695D01*
X188271554Y-31264553D01*
M02*
