%FSLAX45Y45*%
G04 Gerber Fmt 4.5, Leading zero omitted, Abs format (unit mm)*
G04 Created by KiCad (PCBNEW (5.1.5)-3) date 2020-05-15 20:59:00*
%MOMM*%
%LPD*%
G04 APERTURE LIST*
%TA.AperFunction,Profile*%
%ADD10C,0.050000*%
%TD*%
%ADD11C,0.200000*%
%ADD12C,0.300000*%
G04 APERTURE END LIST*
D10*
X19418300Y-4546600D02*
X19481800Y-4514850D01*
X19488150Y-3492500D02*
X19494500Y-3511550D01*
X19469100Y-3454400D02*
X19488150Y-3492500D01*
X19432866Y-3423509D02*
X19469100Y-3454400D01*
X19716750Y-3498850D02*
X19710400Y-3511550D01*
X19748500Y-3467100D02*
X19716750Y-3498850D01*
X19812000Y-3365500D02*
X19748500Y-3467100D01*
X19432866Y-3423509D02*
G75*
G02X19812000Y-3365500I169584J159609D01*
G01*
X19519900Y-3575050D02*
X19494500Y-3511550D01*
X19500850Y-3587750D02*
X19519900Y-3575050D01*
X19685000Y-3581400D02*
X19710400Y-3511550D01*
X19792950Y-3549650D02*
X19685000Y-3581400D01*
X20097750Y-3333750D02*
X19792950Y-3549650D01*
X20339050Y-3168650D02*
X20097750Y-3333750D01*
X20580350Y-3028950D02*
X20339050Y-3168650D01*
X20770850Y-2933700D02*
X20580350Y-3028950D01*
X21012150Y-2857500D02*
X20770850Y-2933700D01*
X21215350Y-2832100D02*
X21012150Y-2857500D01*
X21348700Y-2844800D02*
X21215350Y-2832100D01*
X21443950Y-2876550D02*
X21348700Y-2844800D01*
X21532850Y-2933700D02*
X21443950Y-2876550D01*
X21583650Y-3009900D02*
X21532850Y-2933700D01*
X21602700Y-3086100D02*
X21583650Y-3009900D01*
X21583650Y-3162300D02*
X21602700Y-3086100D01*
X21520150Y-3251200D02*
X21583650Y-3162300D01*
X21412200Y-3409950D02*
X21520150Y-3251200D01*
X21304250Y-3575050D02*
X21412200Y-3409950D01*
X21234400Y-3702050D02*
X21304250Y-3575050D01*
X21132800Y-3892550D02*
X21234400Y-3702050D01*
X21056600Y-3981450D02*
X21132800Y-3892550D01*
X21018500Y-4006850D02*
X21056600Y-3981450D01*
X21018500Y-4038600D02*
X21018500Y-4006850D01*
X21062950Y-4133850D02*
X21018500Y-4038600D01*
X21082000Y-4216400D02*
X21062950Y-4133850D01*
X21088350Y-4292600D02*
X21082000Y-4216400D01*
X21062950Y-4438650D02*
X21088350Y-4292600D01*
X21012150Y-4572000D02*
X21062950Y-4438650D01*
X20904200Y-4718050D02*
X21012150Y-4572000D01*
X20777200Y-4845050D02*
X20904200Y-4718050D01*
X20637500Y-4940300D02*
X20777200Y-4845050D01*
X20510500Y-4997450D02*
X20637500Y-4940300D01*
X20370800Y-5016500D02*
X20510500Y-4997450D01*
X20256500Y-5010150D02*
X20370800Y-5016500D01*
X20129500Y-4953000D02*
X20256500Y-5010150D01*
X20046950Y-4883150D02*
X20129500Y-4953000D01*
X19939000Y-4756150D02*
X20046950Y-4883150D01*
X19837400Y-4603750D02*
X19939000Y-4756150D01*
X19735800Y-4514850D02*
X19837400Y-4603750D01*
X19697700Y-4514850D02*
X19735800Y-4514850D01*
X19672300Y-4673600D02*
X19697700Y-4514850D01*
X19634200Y-4718050D02*
X19672300Y-4673600D01*
X19589750Y-4718050D02*
X19634200Y-4718050D01*
X19551650Y-4699000D02*
X19589750Y-4718050D01*
X19519900Y-4591050D02*
X19551650Y-4699000D01*
X19500850Y-4514850D02*
X19519900Y-4591050D01*
X19481800Y-4514850D02*
X19500850Y-4514850D01*
X19367500Y-4616450D02*
X19418300Y-4546600D01*
X19221450Y-4813300D02*
X19367500Y-4616450D01*
X19088100Y-4953000D02*
X19221450Y-4813300D01*
X18935700Y-5022850D02*
X19088100Y-4953000D01*
X18764250Y-5022850D02*
X18935700Y-5022850D01*
X18624550Y-4978400D02*
X18764250Y-5022850D01*
X18503900Y-4902200D02*
X18624550Y-4978400D01*
X18351500Y-4781550D02*
X18503900Y-4902200D01*
X18224500Y-4610100D02*
X18351500Y-4781550D01*
X18141950Y-4476750D02*
X18224500Y-4610100D01*
X18110200Y-4292600D02*
X18141950Y-4476750D01*
X18135600Y-4152900D02*
X18110200Y-4292600D01*
X18186400Y-4019550D02*
X18135600Y-4152900D01*
X18141950Y-3987800D02*
X18186400Y-4019550D01*
X18078450Y-3911600D02*
X18141950Y-3987800D01*
X17926050Y-3625850D02*
X18078450Y-3911600D01*
X17760950Y-3378200D02*
X17926050Y-3625850D01*
X17614900Y-3143250D02*
X17760950Y-3378200D01*
X17602200Y-3041650D02*
X17614900Y-3143250D01*
X17653000Y-2940050D02*
X17602200Y-3041650D01*
X17780000Y-2857500D02*
X17653000Y-2940050D01*
X17907000Y-2825750D02*
X17780000Y-2857500D01*
X18097500Y-2832100D02*
X17907000Y-2825750D01*
X18402300Y-2921000D02*
X18097500Y-2832100D01*
X18662650Y-3041650D02*
X18402300Y-2921000D01*
X19500850Y-3587750D02*
X18662650Y-3041650D01*
D11*
X19452450Y-3120250D02*
X19752450Y-3420250D01*
X19752450Y-3120250D02*
X19452450Y-3420250D01*
D12*
X17886128Y-5491064D02*
X17886128Y-5191064D01*
X17957557Y-5191064D01*
X18000414Y-5205350D01*
X18028986Y-5233922D01*
X18043271Y-5262493D01*
X18057557Y-5319636D01*
X18057557Y-5362493D01*
X18043271Y-5419636D01*
X18028986Y-5448207D01*
X18000414Y-5476779D01*
X17957557Y-5491064D01*
X17886128Y-5491064D01*
X18186128Y-5491064D02*
X18186128Y-5291064D01*
X18186128Y-5348207D02*
X18200414Y-5319636D01*
X18214700Y-5305350D01*
X18243271Y-5291064D01*
X18271843Y-5291064D01*
X18371843Y-5491064D02*
X18371843Y-5291064D01*
X18371843Y-5191064D02*
X18357557Y-5205350D01*
X18371843Y-5219636D01*
X18386128Y-5205350D01*
X18371843Y-5191064D01*
X18371843Y-5219636D01*
X18557557Y-5491064D02*
X18528986Y-5476779D01*
X18514700Y-5448207D01*
X18514700Y-5191064D01*
X18714700Y-5491064D02*
X18686128Y-5476779D01*
X18671843Y-5448207D01*
X18671843Y-5191064D01*
X19057557Y-5491064D02*
X19057557Y-5191064D01*
X19157557Y-5405350D01*
X19257557Y-5191064D01*
X19257557Y-5491064D01*
X19528986Y-5491064D02*
X19528986Y-5333922D01*
X19514700Y-5305350D01*
X19486128Y-5291064D01*
X19428986Y-5291064D01*
X19400414Y-5305350D01*
X19528986Y-5476779D02*
X19500414Y-5491064D01*
X19428986Y-5491064D01*
X19400414Y-5476779D01*
X19386128Y-5448207D01*
X19386128Y-5419636D01*
X19400414Y-5391064D01*
X19428986Y-5376779D01*
X19500414Y-5376779D01*
X19528986Y-5362493D01*
X19671843Y-5291064D02*
X19671843Y-5591064D01*
X19671843Y-5305350D02*
X19700414Y-5291064D01*
X19757557Y-5291064D01*
X19786128Y-5305350D01*
X19800414Y-5319636D01*
X19814700Y-5348207D01*
X19814700Y-5433922D01*
X19800414Y-5462493D01*
X19786128Y-5476779D01*
X19757557Y-5491064D01*
X19700414Y-5491064D01*
X19671843Y-5476779D01*
X19943271Y-5462493D02*
X19957557Y-5476779D01*
X19943271Y-5491064D01*
X19928986Y-5476779D01*
X19943271Y-5462493D01*
X19943271Y-5491064D01*
X19943271Y-5305350D02*
X19957557Y-5319636D01*
X19943271Y-5333922D01*
X19928986Y-5319636D01*
X19943271Y-5305350D01*
X19943271Y-5333922D01*
X17299700Y-5835350D02*
X17599700Y-6135350D01*
X17599700Y-5835350D02*
X17299700Y-6135350D01*
X17857557Y-5821064D02*
X18043271Y-5821064D01*
X17943271Y-5935350D01*
X17986128Y-5935350D01*
X18014700Y-5949636D01*
X18028986Y-5963921D01*
X18043271Y-5992493D01*
X18043271Y-6063921D01*
X18028986Y-6092493D01*
X18014700Y-6106779D01*
X17986128Y-6121064D01*
X17900414Y-6121064D01*
X17871843Y-6106779D01*
X17857557Y-6092493D01*
X18171843Y-6092493D02*
X18186128Y-6106779D01*
X18171843Y-6121064D01*
X18157557Y-6106779D01*
X18171843Y-6092493D01*
X18171843Y-6121064D01*
X18371843Y-5821064D02*
X18400414Y-5821064D01*
X18428986Y-5835350D01*
X18443271Y-5849636D01*
X18457557Y-5878207D01*
X18471843Y-5935350D01*
X18471843Y-6006779D01*
X18457557Y-6063921D01*
X18443271Y-6092493D01*
X18428986Y-6106779D01*
X18400414Y-6121064D01*
X18371843Y-6121064D01*
X18343271Y-6106779D01*
X18328986Y-6092493D01*
X18314700Y-6063921D01*
X18300414Y-6006779D01*
X18300414Y-5935350D01*
X18314700Y-5878207D01*
X18328986Y-5849636D01*
X18343271Y-5835350D01*
X18371843Y-5821064D01*
X18657557Y-5821064D02*
X18686128Y-5821064D01*
X18714700Y-5835350D01*
X18728986Y-5849636D01*
X18743271Y-5878207D01*
X18757557Y-5935350D01*
X18757557Y-6006779D01*
X18743271Y-6063921D01*
X18728986Y-6092493D01*
X18714700Y-6106779D01*
X18686128Y-6121064D01*
X18657557Y-6121064D01*
X18628986Y-6106779D01*
X18614700Y-6092493D01*
X18600414Y-6063921D01*
X18586128Y-6006779D01*
X18586128Y-5935350D01*
X18600414Y-5878207D01*
X18614700Y-5849636D01*
X18628986Y-5835350D01*
X18657557Y-5821064D01*
X18886128Y-6121064D02*
X18886128Y-5921064D01*
X18886128Y-5949636D02*
X18900414Y-5935350D01*
X18928986Y-5921064D01*
X18971843Y-5921064D01*
X19000414Y-5935350D01*
X19014700Y-5963921D01*
X19014700Y-6121064D01*
X19014700Y-5963921D02*
X19028986Y-5935350D01*
X19057557Y-5921064D01*
X19100414Y-5921064D01*
X19128986Y-5935350D01*
X19143271Y-5963921D01*
X19143271Y-6121064D01*
X19286128Y-6121064D02*
X19286128Y-5921064D01*
X19286128Y-5949636D02*
X19300414Y-5935350D01*
X19328986Y-5921064D01*
X19371843Y-5921064D01*
X19400414Y-5935350D01*
X19414700Y-5963921D01*
X19414700Y-6121064D01*
X19414700Y-5963921D02*
X19428986Y-5935350D01*
X19457557Y-5921064D01*
X19500414Y-5921064D01*
X19528986Y-5935350D01*
X19543271Y-5963921D01*
X19543271Y-6121064D01*
X20128986Y-5806779D02*
X19871843Y-6192493D01*
X20514700Y-5821064D02*
X20543271Y-5821064D01*
X20571843Y-5835350D01*
X20586128Y-5849636D01*
X20600414Y-5878207D01*
X20614700Y-5935350D01*
X20614700Y-6006779D01*
X20600414Y-6063921D01*
X20586128Y-6092493D01*
X20571843Y-6106779D01*
X20543271Y-6121064D01*
X20514700Y-6121064D01*
X20486128Y-6106779D01*
X20471843Y-6092493D01*
X20457557Y-6063921D01*
X20443271Y-6006779D01*
X20443271Y-5935350D01*
X20457557Y-5878207D01*
X20471843Y-5849636D01*
X20486128Y-5835350D01*
X20514700Y-5821064D01*
X20743271Y-6092493D02*
X20757557Y-6106779D01*
X20743271Y-6121064D01*
X20728986Y-6106779D01*
X20743271Y-6092493D01*
X20743271Y-6121064D01*
X21043271Y-6121064D02*
X20871843Y-6121064D01*
X20957557Y-6121064D02*
X20957557Y-5821064D01*
X20928986Y-5863921D01*
X20900414Y-5892493D01*
X20871843Y-5906779D01*
X21328986Y-6121064D02*
X21157557Y-6121064D01*
X21243271Y-6121064D02*
X21243271Y-5821064D01*
X21214700Y-5863921D01*
X21186128Y-5892493D01*
X21157557Y-5906779D01*
X21500414Y-5949636D02*
X21471843Y-5935350D01*
X21457557Y-5921064D01*
X21443271Y-5892493D01*
X21443271Y-5878207D01*
X21457557Y-5849636D01*
X21471843Y-5835350D01*
X21500414Y-5821064D01*
X21557557Y-5821064D01*
X21586128Y-5835350D01*
X21600414Y-5849636D01*
X21614700Y-5878207D01*
X21614700Y-5892493D01*
X21600414Y-5921064D01*
X21586128Y-5935350D01*
X21557557Y-5949636D01*
X21500414Y-5949636D01*
X21471843Y-5963921D01*
X21457557Y-5978207D01*
X21443271Y-6006779D01*
X21443271Y-6063921D01*
X21457557Y-6092493D01*
X21471843Y-6106779D01*
X21500414Y-6121064D01*
X21557557Y-6121064D01*
X21586128Y-6106779D01*
X21600414Y-6092493D01*
X21614700Y-6063921D01*
X21614700Y-6006779D01*
X21600414Y-5978207D01*
X21586128Y-5963921D01*
X21557557Y-5949636D01*
X21728986Y-5821064D02*
X21728986Y-5878207D01*
X21843271Y-5821064D02*
X21843271Y-5878207D01*
X22286128Y-6235350D02*
X22271843Y-6221064D01*
X22243271Y-6178207D01*
X22228986Y-6149636D01*
X22214700Y-6106779D01*
X22200414Y-6035350D01*
X22200414Y-5978207D01*
X22214700Y-5906779D01*
X22228986Y-5863921D01*
X22243271Y-5835350D01*
X22271843Y-5792493D01*
X22286128Y-5778207D01*
X22557557Y-6121064D02*
X22386128Y-6121064D01*
X22471843Y-6121064D02*
X22471843Y-5821064D01*
X22443271Y-5863921D01*
X22414700Y-5892493D01*
X22386128Y-5906779D01*
X22914700Y-6121064D02*
X22914700Y-5821064D01*
X23043271Y-6121064D02*
X23043271Y-5963921D01*
X23028986Y-5935350D01*
X23000414Y-5921064D01*
X22957557Y-5921064D01*
X22928986Y-5935350D01*
X22914700Y-5949636D01*
X23228986Y-6121064D02*
X23200414Y-6106779D01*
X23186128Y-6092493D01*
X23171843Y-6063921D01*
X23171843Y-5978207D01*
X23186128Y-5949636D01*
X23200414Y-5935350D01*
X23228986Y-5921064D01*
X23271843Y-5921064D01*
X23300414Y-5935350D01*
X23314700Y-5949636D01*
X23328986Y-5978207D01*
X23328986Y-6063921D01*
X23314700Y-6092493D01*
X23300414Y-6106779D01*
X23271843Y-6121064D01*
X23228986Y-6121064D01*
X23500414Y-6121064D02*
X23471843Y-6106779D01*
X23457557Y-6078207D01*
X23457557Y-5821064D01*
X23728986Y-6106779D02*
X23700414Y-6121064D01*
X23643271Y-6121064D01*
X23614700Y-6106779D01*
X23600414Y-6078207D01*
X23600414Y-5963921D01*
X23614700Y-5935350D01*
X23643271Y-5921064D01*
X23700414Y-5921064D01*
X23728986Y-5935350D01*
X23743271Y-5963921D01*
X23743271Y-5992493D01*
X23600414Y-6021064D01*
X23843271Y-6235350D02*
X23857557Y-6221064D01*
X23886128Y-6178207D01*
X23900414Y-6149636D01*
X23914700Y-6106779D01*
X23928986Y-6035350D01*
X23928986Y-5978207D01*
X23914700Y-5906779D01*
X23900414Y-5863921D01*
X23886128Y-5835350D01*
X23857557Y-5792493D01*
X23843271Y-5778207D01*
X24386128Y-6235350D02*
X24371843Y-6221064D01*
X24343271Y-6178207D01*
X24328986Y-6149636D01*
X24314700Y-6106779D01*
X24300414Y-6035350D01*
X24300414Y-5978207D01*
X24314700Y-5906779D01*
X24328986Y-5863921D01*
X24343271Y-5835350D01*
X24371843Y-5792493D01*
X24386128Y-5778207D01*
X24500414Y-5921064D02*
X24500414Y-6121064D01*
X24500414Y-5949636D02*
X24514700Y-5935350D01*
X24543271Y-5921064D01*
X24586128Y-5921064D01*
X24614700Y-5935350D01*
X24628986Y-5963921D01*
X24628986Y-6121064D01*
X24814700Y-6121064D02*
X24786128Y-6106779D01*
X24771843Y-6092493D01*
X24757557Y-6063921D01*
X24757557Y-5978207D01*
X24771843Y-5949636D01*
X24786128Y-5935350D01*
X24814700Y-5921064D01*
X24857557Y-5921064D01*
X24886128Y-5935350D01*
X24900414Y-5949636D01*
X24914700Y-5978207D01*
X24914700Y-6063921D01*
X24900414Y-6092493D01*
X24886128Y-6106779D01*
X24857557Y-6121064D01*
X24814700Y-6121064D01*
X25000414Y-5921064D02*
X25114700Y-5921064D01*
X25043271Y-5821064D02*
X25043271Y-6078207D01*
X25057557Y-6106779D01*
X25086128Y-6121064D01*
X25114700Y-6121064D01*
X25443271Y-5921064D02*
X25443271Y-6221064D01*
X25443271Y-5935350D02*
X25471843Y-5921064D01*
X25528986Y-5921064D01*
X25557557Y-5935350D01*
X25571843Y-5949636D01*
X25586128Y-5978207D01*
X25586128Y-6063921D01*
X25571843Y-6092493D01*
X25557557Y-6106779D01*
X25528986Y-6121064D01*
X25471843Y-6121064D01*
X25443271Y-6106779D01*
X25757557Y-6121064D02*
X25728986Y-6106779D01*
X25714700Y-6078207D01*
X25714700Y-5821064D01*
X26000414Y-6121064D02*
X26000414Y-5963921D01*
X25986128Y-5935350D01*
X25957557Y-5921064D01*
X25900414Y-5921064D01*
X25871843Y-5935350D01*
X26000414Y-6106779D02*
X25971843Y-6121064D01*
X25900414Y-6121064D01*
X25871843Y-6106779D01*
X25857557Y-6078207D01*
X25857557Y-6049636D01*
X25871843Y-6021064D01*
X25900414Y-6006779D01*
X25971843Y-6006779D01*
X26000414Y-5992493D01*
X26100414Y-5921064D02*
X26214700Y-5921064D01*
X26143271Y-5821064D02*
X26143271Y-6078207D01*
X26157557Y-6106779D01*
X26186128Y-6121064D01*
X26214700Y-6121064D01*
X26428986Y-6106779D02*
X26400414Y-6121064D01*
X26343271Y-6121064D01*
X26314700Y-6106779D01*
X26300414Y-6078207D01*
X26300414Y-5963921D01*
X26314700Y-5935350D01*
X26343271Y-5921064D01*
X26400414Y-5921064D01*
X26428986Y-5935350D01*
X26443271Y-5963921D01*
X26443271Y-5992493D01*
X26300414Y-6021064D01*
X26700414Y-6121064D02*
X26700414Y-5821064D01*
X26700414Y-6106779D02*
X26671843Y-6121064D01*
X26614700Y-6121064D01*
X26586128Y-6106779D01*
X26571843Y-6092493D01*
X26557557Y-6063921D01*
X26557557Y-5978207D01*
X26571843Y-5949636D01*
X26586128Y-5935350D01*
X26614700Y-5921064D01*
X26671843Y-5921064D01*
X26700414Y-5935350D01*
X26814700Y-6235350D02*
X26828986Y-6221064D01*
X26857557Y-6178207D01*
X26871843Y-6149636D01*
X26886128Y-6106779D01*
X26900414Y-6035350D01*
X26900414Y-5978207D01*
X26886128Y-5906779D01*
X26871843Y-5863921D01*
X26857557Y-5835350D01*
X26828986Y-5792493D01*
X26814700Y-5778207D01*
M02*
