  0
SECTION
  2
HEADER
  9
$ANGBASE
  50
0.0
  9
$ANGDIR
  70
1
  9
$MEASUREMENT
  70
0
  0
ENDSEC
  0
SECTION
  2
TABLES
  0
TABLE
  2
LTYPE
  70
4
  0
LTYPE
  5
40F
  2
CONTINUOUS
  70
0
  3
Solid line
  72
65
  73
0
  40
0.0
  0
LTYPE
  5
410
  2
DASHDOT
 70
0
  3
Dash Dot ____ _ ____ _
 72
65
 73
4
 40
2.0
 49
1.25
 49
-0.25
 49
0.25
 49
-0.25
  0
LTYPE
  5
411
  2
DASHED
 70
0
  3
Dashed __ __ __ __ __
 72
65
 73
2
 40
0.75
 49
0.5
 49
-0.25
  0
LTYPE
  5
43B
  2
DOTTED
 70
0
  3
Dotted .  .  .  .
 72
65
 73
2
 40
0.2
 49
0.0
 49
-0.2
  0
ENDTAB
  0
TABLE
  2
STYLE
  70
4
  0
STYLE
  2
KICAD
  70
0
  40
0
  41
1
  42
1
  50
0
  71
0
  3
isocp.shx
  0
STYLE
  2
KICADB
  70
0
  40
0
  41
1
  42
1
  50
0
  71
0
  3
isocp.shx
  0
STYLE
  2
KICADI
  70
0
  40
0
  41
1
  42
1
  50
15
  71
0
  3
isocp.shx
  0
STYLE
  2
KICADBI
  70
0
  40
0
  41
1
  42
1
  50
15
  71
0
  3
isocp.shx
  0
ENDTAB
  0
TABLE
  2
LAYER
  70
1
  0
LAYER
  2
BLACK
  70
0
  62
7
  6
CONTINUOUS
  0
ENDTAB
  0
ENDSEC
  0
SECTION
  2
ENTITIES
0
LINE
8
BLACK
6
CONTINUOUS
10
5.92589
20
-1.12455
11
5.9261
21
-1.12456
0
LINE
8
BLACK
6
CONTINUOUS
10
5.9261
20
-1.12456
11
6.01468
21
-1.13295
0
LINE
8
BLACK
6
CONTINUOUS
10
6.01468
20
-1.13295
11
6.01478
21
-1.13296
0
LINE
8
BLACK
6
CONTINUOUS
10
6.01478
20
-1.13296
11
6.01488
21
-1.13298
0
LINE
8
BLACK
6
CONTINUOUS
10
6.01488
20
-1.13298
11
6.10048
21
-1.14709
0
LINE
8
BLACK
6
CONTINUOUS
10
6.10048
20
-1.14709
11
6.10056
21
-1.1471
0
LINE
8
BLACK
6
CONTINUOUS
10
6.10056
20
-1.1471
11
6.10061
21
-1.14711
0
LINE
8
BLACK
6
CONTINUOUS
10
6.10061
20
-1.14711
11
6.10064
21
-1.14712
0
LINE
8
BLACK
6
CONTINUOUS
10
6.10064
20
-1.14712
11
6.10068
21
-1.14713
0
LINE
8
BLACK
6
CONTINUOUS
10
6.10068
20
-1.14713
11
6.1008
21
-1.14716
0
LINE
8
BLACK
6
CONTINUOUS
10
6.1008
20
-1.14716
11
6.10085
21
-1.14717
0
LINE
8
BLACK
6
CONTINUOUS
10
6.10085
20
-1.14717
11
6.10086
21
-1.14718
0
LINE
8
BLACK
6
CONTINUOUS
10
6.10086
20
-1.14718
11
6.10088
21
-1.14718
0
LINE
8
BLACK
6
CONTINUOUS
10
6.10088
20
-1.14718
11
6.10108
21
-1.14725
0
LINE
8
BLACK
6
CONTINUOUS
10
6.10108
20
-1.14725
11
6.10108
21
-1.14725
0
LINE
8
BLACK
6
CONTINUOUS
10
6.10108
20
-1.14725
11
6.10108
21
-1.14725
0
LINE
8
BLACK
6
CONTINUOUS
10
6.10108
20
-1.14725
11
6.1011
21
-1.14726
0
LINE
8
BLACK
6
CONTINUOUS
10
6.1011
20
-1.14726
11
6.10126
21
-1.14733
0
LINE
8
BLACK
6
CONTINUOUS
10
6.10126
20
-1.14733
11
6.10129
21
-1.14734
0
LINE
8
BLACK
6
CONTINUOUS
10
6.10129
20
-1.14734
11
6.10131
21
-1.14735
0
LINE
8
BLACK
6
CONTINUOUS
10
6.10131
20
-1.14735
11
6.10135
21
-1.14738
0
LINE
8
BLACK
6
CONTINUOUS
10
6.10135
20
-1.14738
11
6.10145
21
-1.14743
0
LINE
8
BLACK
6
CONTINUOUS
10
6.10145
20
-1.14743
11
6.10149
21
-1.14745
0
LINE
8
BLACK
6
CONTINUOUS
10
6.10149
20
-1.14745
11
6.10152
21
-1.14747
0
LINE
8
BLACK
6
CONTINUOUS
10
6.10152
20
-1.14747
11
6.10156
21
-1.1475
0
LINE
8
BLACK
6
CONTINUOUS
10
6.10156
20
-1.1475
11
6.10162
21
-1.14753
0
LINE
8
BLACK
6
CONTINUOUS
10
6.10162
20
-1.14753
11
6.10169
21
-1.14758
0
LINE
8
BLACK
6
CONTINUOUS
10
6.10169
20
-1.14758
11
6.10173
21
-1.14761
0
LINE
8
BLACK
6
CONTINUOUS
10
6.10173
20
-1.14761
11
6.10176
21
-1.14763
0
LINE
8
BLACK
6
CONTINUOUS
10
6.10176
20
-1.14763
11
6.10179
21
-1.14765
0
LINE
8
BLACK
6
CONTINUOUS
10
6.10179
20
-1.14765
11
6.10188
21
-1.14773
0
LINE
8
BLACK
6
CONTINUOUS
10
6.10188
20
-1.14773
11
6.10192
21
-1.14776
0
LINE
8
BLACK
6
CONTINUOUS
10
6.10192
20
-1.14776
11
6.10194
21
-1.14777
0
LINE
8
BLACK
6
CONTINUOUS
10
6.10194
20
-1.14777
11
6.10195
21
-1.14778
0
LINE
8
BLACK
6
CONTINUOUS
10
6.10195
20
-1.14778
11
6.1021
21
-1.14793
0
LINE
8
BLACK
6
CONTINUOUS
10
6.1021
20
-1.14793
11
6.1021
21
-1.14793
0
LINE
8
BLACK
6
CONTINUOUS
10
6.1021
20
-1.14793
11
6.10211
21
-1.14793
0
LINE
8
BLACK
6
CONTINUOUS
10
6.10211
20
-1.14793
11
6.10212
21
-1.14794
0
LINE
8
BLACK
6
CONTINUOUS
10
6.10212
20
-1.14794
11
6.10224
21
-1.14808
0
LINE
8
BLACK
6
CONTINUOUS
10
6.10224
20
-1.14808
11
6.10226
21
-1.1481
0
LINE
8
BLACK
6
CONTINUOUS
10
6.10226
20
-1.1481
11
6.10227
21
-1.14811
0
LINE
8
BLACK
6
CONTINUOUS
10
6.10227
20
-1.14811
11
6.1023
21
-1.14816
0
LINE
8
BLACK
6
CONTINUOUS
10
6.1023
20
-1.14816
11
6.10237
21
-1.14824
0
LINE
8
BLACK
6
CONTINUOUS
10
6.10237
20
-1.14824
11
6.1024
21
-1.14828
0
LINE
8
BLACK
6
CONTINUOUS
10
6.1024
20
-1.14828
11
6.10242
21
-1.14831
0
LINE
8
BLACK
6
CONTINUOUS
10
6.10242
20
-1.14831
11
6.10245
21
-1.14835
0
LINE
8
BLACK
6
CONTINUOUS
10
6.10245
20
-1.14835
11
6.10249
21
-1.14841
0
LINE
8
BLACK
6
CONTINUOUS
10
6.10249
20
-1.14841
11
6.10253
21
-1.14848
0
LINE
8
BLACK
6
CONTINUOUS
10
6.10253
20
-1.14848
11
6.10255
21
-1.14852
0
LINE
8
BLACK
6
CONTINUOUS
10
6.10255
20
-1.14852
11
6.10257
21
-1.14855
0
LINE
8
BLACK
6
CONTINUOUS
10
6.10257
20
-1.14855
11
6.10259
21
-1.14858
0
LINE
8
BLACK
6
CONTINUOUS
10
6.10259
20
-1.14858
11
6.10264
21
-1.14869
0
LINE
8
BLACK
6
CONTINUOUS
10
6.10264
20
-1.14869
11
6.10267
21
-1.14874
0
LINE
8
BLACK
6
CONTINUOUS
10
6.10267
20
-1.14874
11
6.10268
21
-1.14875
0
LINE
8
BLACK
6
CONTINUOUS
10
6.10268
20
-1.14875
11
6.10268
21
-1.14877
0
LINE
8
BLACK
6
CONTINUOUS
10
6.10268
20
-1.14877
11
6.10276
21
-1.14896
0
LINE
8
BLACK
6
CONTINUOUS
10
6.10276
20
-1.14896
11
6.10276
21
-1.14896
0
LINE
8
BLACK
6
CONTINUOUS
10
6.10276
20
-1.14896
11
6.10277
21
-1.14897
0
LINE
8
BLACK
6
CONTINUOUS
10
6.10277
20
-1.14897
11
6.10277
21
-1.14898
0
LINE
8
BLACK
6
CONTINUOUS
10
6.10277
20
-1.14898
11
6.10283
21
-1.14915
0
LINE
8
BLACK
6
CONTINUOUS
10
6.10283
20
-1.14915
11
6.10284
21
-1.14918
0
LINE
8
BLACK
6
CONTINUOUS
10
6.10284
20
-1.14918
11
6.10284
21
-1.1492
0
LINE
8
BLACK
6
CONTINUOUS
10
6.10284
20
-1.1492
11
6.10285
21
-1.14925
0
LINE
8
BLACK
6
CONTINUOUS
10
6.10285
20
-1.14925
11
6.10288
21
-1.14935
0
LINE
8
BLACK
6
CONTINUOUS
10
6.10288
20
-1.14935
11
6.10289
21
-1.1494
0
LINE
8
BLACK
6
CONTINUOUS
10
6.10289
20
-1.1494
11
6.1029
21
-1.14944
0
LINE
8
BLACK
6
CONTINUOUS
10
6.1029
20
-1.14944
11
6.10291
21
-1.14949
0
LINE
8
BLACK
6
CONTINUOUS
10
6.10291
20
-1.14949
11
6.10292
21
-1.14956
0
LINE
8
BLACK
6
CONTINUOUS
10
6.10292
20
-1.14956
11
6.10293
21
-1.14964
0
LINE
8
BLACK
6
CONTINUOUS
10
6.10293
20
-1.14964
11
6.10294
21
-1.14969
0
LINE
8
BLACK
6
CONTINUOUS
10
6.10294
20
-1.14969
11
6.10294
21
-1.14972
0
LINE
8
BLACK
6
CONTINUOUS
10
6.10294
20
-1.14972
11
6.10294
21
-1.14976
0
LINE
8
BLACK
6
CONTINUOUS
10
6.10294
20
-1.14976
11
6.10295
21
-1.14988
0
LINE
8
BLACK
6
CONTINUOUS
10
6.10295
20
-1.14988
11
6.10295
21
-1.14993
0
LINE
8
BLACK
6
CONTINUOUS
10
6.10295
20
-1.14993
11
6.10468
21
-1.22531
0
LINE
8
BLACK
6
CONTINUOUS
10
6.10468
20
-1.22531
11
6.10468
21
-1.22544
0
LINE
8
BLACK
6
CONTINUOUS
10
6.10468
20
-1.22544
11
6.10468
21
-1.2255
0
LINE
8
BLACK
6
CONTINUOUS
10
6.10468
20
-1.2255
11
6.10468
21
-1.22556
0
LINE
8
BLACK
6
CONTINUOUS
10
6.10468
20
-1.22556
11
6.1001
21
-1.30082
0
LINE
8
BLACK
6
CONTINUOUS
10
6.1001
20
-1.30082
11
6.10009
21
-1.30094
0
LINE
8
BLACK
6
CONTINUOUS
10
6.10009
20
-1.30094
11
6.10008
21
-1.30101
0
LINE
8
BLACK
6
CONTINUOUS
10
6.10008
20
-1.30101
11
6.10007
21
-1.30107
0
LINE
8
BLACK
6
CONTINUOUS
10
6.10007
20
-1.30107
11
6.08921
21
-1.37568
0
LINE
8
BLACK
6
CONTINUOUS
10
6.08921
20
-1.37568
11
6.08919
21
-1.3758
0
LINE
8
BLACK
6
CONTINUOUS
10
6.08919
20
-1.3758
11
6.08917
21
-1.37586
0
LINE
8
BLACK
6
CONTINUOUS
10
6.08917
20
-1.37586
11
6.08916
21
-1.37592
0
LINE
8
BLACK
6
CONTINUOUS
10
6.08916
20
-1.37592
11
6.07209
21
-1.44937
0
LINE
8
BLACK
6
CONTINUOUS
10
6.07209
20
-1.44937
11
6.07206
21
-1.44949
0
LINE
8
BLACK
6
CONTINUOUS
10
6.07206
20
-1.44949
11
6.07205
21
-1.44953
0
LINE
8
BLACK
6
CONTINUOUS
10
6.07205
20
-1.44953
11
6.07203
21
-1.44957
0
LINE
8
BLACK
6
CONTINUOUS
10
6.07203
20
-1.44957
11
6.05574
21
-1.50209
0
LINE
8
BLACK
6
CONTINUOUS
10
6.05574
20
-1.50209
11
6.0557
21
-1.50221
0
LINE
8
BLACK
6
CONTINUOUS
10
6.0557
20
-1.50221
11
6.05561
21
-1.50244
0
LINE
8
BLACK
6
CONTINUOUS
10
6.05561
20
-1.50244
11
6.0555
21
-1.50266
0
LINE
8
BLACK
6
CONTINUOUS
10
6.0555
20
-1.50266
11
6.05537
21
-1.50287
0
LINE
8
BLACK
6
CONTINUOUS
10
6.05537
20
-1.50287
11
6.05522
21
-1.50307
0
LINE
8
BLACK
6
CONTINUOUS
10
6.05522
20
-1.50307
11
6.05506
21
-1.50325
0
LINE
8
BLACK
6
CONTINUOUS
10
6.05506
20
-1.50325
11
6.05488
21
-1.50342
0
LINE
8
BLACK
6
CONTINUOUS
10
6.05488
20
-1.50342
11
6.05469
21
-1.50358
0
LINE
8
BLACK
6
CONTINUOUS
10
6.05469
20
-1.50358
11
6.05449
21
-1.50372
0
LINE
8
BLACK
6
CONTINUOUS
10
6.05449
20
-1.50372
11
6.05427
21
-1.50384
0
LINE
8
BLACK
6
CONTINUOUS
10
6.05427
20
-1.50384
11
6.05405
21
-1.50395
0
LINE
8
BLACK
6
CONTINUOUS
10
6.05405
20
-1.50395
11
6.05381
21
-1.50403
0
LINE
8
BLACK
6
CONTINUOUS
10
6.05381
20
-1.50403
11
6.05358
21
-1.5041
0
LINE
8
BLACK
6
CONTINUOUS
10
6.05358
20
-1.5041
11
6.05333
21
-1.50414
0
LINE
8
BLACK
6
CONTINUOUS
10
6.05333
20
-1.50414
11
6.05309
21
-1.50416
0
LINE
8
BLACK
6
CONTINUOUS
10
6.05309
20
-1.50416
11
6.05284
21
-1.50417
0
LINE
8
BLACK
6
CONTINUOUS
10
6.05284
20
-1.50417
11
6.05259
21
-1.50415
0
LINE
8
BLACK
6
CONTINUOUS
10
6.05259
20
-1.50415
11
6.05235
21
-1.50411
0
LINE
8
BLACK
6
CONTINUOUS
10
6.05235
20
-1.50411
11
6.05211
21
-1.50405
0
LINE
8
BLACK
6
CONTINUOUS
10
6.05211
20
-1.50405
11
6.05187
21
-1.50398
0
LINE
8
BLACK
6
CONTINUOUS
10
6.05187
20
-1.50398
11
6.05165
21
-1.50388
0
LINE
8
BLACK
6
CONTINUOUS
10
6.05165
20
-1.50388
11
6.05143
21
-1.50376
0
LINE
8
BLACK
6
CONTINUOUS
10
6.05143
20
-1.50376
11
6.05122
21
-1.50363
0
LINE
8
BLACK
6
CONTINUOUS
10
6.05122
20
-1.50363
11
6.05102
21
-1.50348
0
LINE
8
BLACK
6
CONTINUOUS
10
6.05102
20
-1.50348
11
6.05084
21
-1.50331
0
LINE
8
BLACK
6
CONTINUOUS
10
6.05084
20
-1.50331
11
6.05083
21
-1.5033
0
LINE
8
BLACK
6
CONTINUOUS
10
6.05083
20
-1.5033
11
6.03393
21
-1.51969
0
LINE
8
BLACK
6
CONTINUOUS
10
6.03393
20
-1.51969
11
5.96953
21
-1.58743
0
LINE
8
BLACK
6
CONTINUOUS
10
5.96953
20
-1.58743
11
5.90961
21
-1.65924
0
LINE
8
BLACK
6
CONTINUOUS
10
5.90961
20
-1.65924
11
5.90953
21
-1.65933
0
LINE
8
BLACK
6
CONTINUOUS
10
5.90953
20
-1.65933
11
5.90939
21
-1.65947
0
LINE
8
BLACK
6
CONTINUOUS
10
5.90939
20
-1.65947
11
5.90925
21
-1.6596
0
LINE
8
BLACK
6
CONTINUOUS
10
5.90925
20
-1.6596
11
5.9091
21
-1.65972
0
LINE
8
BLACK
6
CONTINUOUS
10
5.9091
20
-1.65972
11
5.90895
21
-1.65982
0
LINE
8
BLACK
6
CONTINUOUS
10
5.90895
20
-1.65982
11
5.90878
21
-1.65992
0
LINE
8
BLACK
6
CONTINUOUS
10
5.90878
20
-1.65992
11
5.90861
21
-1.66001
0
LINE
8
BLACK
6
CONTINUOUS
10
5.90861
20
-1.66001
11
5.90844
21
-1.66009
0
LINE
8
BLACK
6
CONTINUOUS
10
5.90844
20
-1.66009
11
5.90826
21
-1.66015
0
LINE
8
BLACK
6
CONTINUOUS
10
5.90826
20
-1.66015
11
5.90808
21
-1.66021
0
LINE
8
BLACK
6
CONTINUOUS
10
5.90808
20
-1.66021
11
5.90789
21
-1.66025
0
LINE
8
BLACK
6
CONTINUOUS
10
5.90789
20
-1.66025
11
5.9077
21
-1.66028
0
LINE
8
BLACK
6
CONTINUOUS
10
5.9077
20
-1.66028
11
5.90751
21
-1.66029
0
LINE
8
BLACK
6
CONTINUOUS
10
5.90751
20
-1.66029
11
5.90732
21
-1.6603
0
LINE
8
BLACK
6
CONTINUOUS
10
5.90732
20
-1.6603
11
5.90713
21
-1.66029
0
LINE
8
BLACK
6
CONTINUOUS
10
5.90713
20
-1.66029
11
5.90694
21
-1.66027
0
LINE
8
BLACK
6
CONTINUOUS
10
5.90694
20
-1.66027
11
5.90675
21
-1.66024
0
LINE
8
BLACK
6
CONTINUOUS
10
5.90675
20
-1.66024
11
5.90657
21
-1.6602
0
LINE
8
BLACK
6
CONTINUOUS
10
5.90657
20
-1.6602
11
5.90639
21
-1.66014
0
LINE
8
BLACK
6
CONTINUOUS
10
5.90639
20
-1.66014
11
5.90621
21
-1.66007
0
LINE
8
BLACK
6
CONTINUOUS
10
5.90621
20
-1.66007
11
5.90603
21
-1.66
0
LINE
8
BLACK
6
CONTINUOUS
10
5.90603
20
-1.66
11
5.90587
21
-1.65991
0
LINE
8
BLACK
6
CONTINUOUS
10
5.90587
20
-1.65991
11
5.9057
21
-1.65981
0
LINE
8
BLACK
6
CONTINUOUS
10
5.9057
20
-1.65981
11
5.90555
21
-1.65969
0
LINE
8
BLACK
6
CONTINUOUS
10
5.90555
20
-1.65969
11
5.9054
21
-1.65957
0
LINE
8
BLACK
6
CONTINUOUS
10
5.9054
20
-1.65957
11
5.90526
21
-1.65944
0
LINE
8
BLACK
6
CONTINUOUS
10
5.90526
20
-1.65944
11
5.90513
21
-1.65931
0
LINE
8
BLACK
6
CONTINUOUS
10
5.90513
20
-1.65931
11
5.90503
21
-1.65918
0
LINE
8
BLACK
6
CONTINUOUS
10
5.90503
20
-1.65918
11
5.7707
21
-1.65379
0
LINE
8
BLACK
6
CONTINUOUS
10
5.7707
20
-1.65379
11
5.90107
21
-1.69724
0
LINE
8
BLACK
6
CONTINUOUS
10
5.90107
20
-1.69724
11
5.90147
21
-1.69742
0
LINE
8
BLACK
6
CONTINUOUS
10
5.90147
20
-1.69742
11
5.90172
21
-1.6976
0
LINE
8
BLACK
6
CONTINUOUS
10
5.90172
20
-1.6976
11
5.90172
21
-1.6976
0
LINE
8
BLACK
6
CONTINUOUS
10
5.90172
20
-1.6976
11
5.90172
21
-1.6976
0
LINE
8
BLACK
6
CONTINUOUS
10
5.90172
20
-1.6976
11
5.90194
21
-1.69776
0
LINE
8
BLACK
6
CONTINUOUS
10
5.90194
20
-1.69776
11
5.90234
21
-1.69818
0
LINE
8
BLACK
6
CONTINUOUS
10
5.90234
20
-1.69818
11
5.90265
21
-1.69867
0
LINE
8
BLACK
6
CONTINUOUS
10
5.90265
20
-1.69867
11
5.90286
21
-1.69922
0
LINE
8
BLACK
6
CONTINUOUS
10
5.90286
20
-1.69922
11
5.90296
21
-1.69979
0
LINE
8
BLACK
6
CONTINUOUS
10
5.90296
20
-1.69979
11
5.90294
21
-1.70037
0
LINE
8
BLACK
6
CONTINUOUS
10
5.90294
20
-1.70037
11
5.90281
21
-1.70094
0
LINE
8
BLACK
6
CONTINUOUS
10
5.90281
20
-1.70094
11
5.90258
21
-1.70147
0
LINE
8
BLACK
6
CONTINUOUS
10
5.90258
20
-1.70147
11
5.90251
21
-1.70156
0
LINE
8
BLACK
6
CONTINUOUS
10
5.90251
20
-1.70156
11
5.85588
21
-1.78793
0
LINE
8
BLACK
6
CONTINUOUS
10
5.85588
20
-1.78793
11
5.85579
21
-1.78809
0
LINE
8
BLACK
6
CONTINUOUS
10
5.85579
20
-1.78809
11
5.80373
21
-1.87151
0
LINE
8
BLACK
6
CONTINUOUS
10
5.80373
20
-1.87151
11
5.80369
21
-1.87157
0
LINE
8
BLACK
6
CONTINUOUS
10
5.80369
20
-1.87157
11
5.80365
21
-1.87163
0
LINE
8
BLACK
6
CONTINUOUS
10
5.80365
20
-1.87163
11
5.7725
21
-1.91651
0
LINE
8
BLACK
6
CONTINUOUS
10
5.7725
20
-1.91651
11
5.77241
21
-1.91663
0
LINE
8
BLACK
6
CONTINUOUS
10
5.77241
20
-1.91663
11
5.7724
21
-1.91665
0
LINE
8
BLACK
6
CONTINUOUS
10
5.7724
20
-1.91665
11
5.7724
21
-1.91665
0
LINE
8
BLACK
6
CONTINUOUS
10
5.7724
20
-1.91665
11
5.77239
21
-1.91666
0
LINE
8
BLACK
6
CONTINUOUS
10
5.77239
20
-1.91666
11
5.77227
21
-1.9168
0
LINE
8
BLACK
6
CONTINUOUS
10
5.77227
20
-1.9168
11
5.77226
21
-1.91682
0
LINE
8
BLACK
6
CONTINUOUS
10
5.77226
20
-1.91682
11
5.77225
21
-1.91683
0
LINE
8
BLACK
6
CONTINUOUS
10
5.77225
20
-1.91683
11
5.77222
21
-1.91685
0
LINE
8
BLACK
6
CONTINUOUS
10
5.77222
20
-1.91685
11
5.77214
21
-1.91694
0
LINE
8
BLACK
6
CONTINUOUS
10
5.77214
20
-1.91694
11
5.77211
21
-1.91697
0
LINE
8
BLACK
6
CONTINUOUS
10
5.77211
20
-1.91697
11
5.77209
21
-1.91699
0
LINE
8
BLACK
6
CONTINUOUS
10
5.77209
20
-1.91699
11
5.77206
21
-1.91702
0
LINE
8
BLACK
6
CONTINUOUS
10
5.77206
20
-1.91702
11
5.772
21
-1.91706
0
LINE
8
BLACK
6
CONTINUOUS
10
5.772
20
-1.91706
11
5.77194
21
-1.91711
0
LINE
8
BLACK
6
CONTINUOUS
10
5.77194
20
-1.91711
11
5.77191
21
-1.91714
0
LINE
8
BLACK
6
CONTINUOUS
10
5.77191
20
-1.91714
11
5.77189
21
-1.91716
0
LINE
8
BLACK
6
CONTINUOUS
10
5.77189
20
-1.91716
11
5.77186
21
-1.91718
0
LINE
8
BLACK
6
CONTINUOUS
10
5.77186
20
-1.91718
11
5.77175
21
-1.91726
0
LINE
8
BLACK
6
CONTINUOUS
10
5.77175
20
-1.91726
11
5.77172
21
-1.91728
0
LINE
8
BLACK
6
CONTINUOUS
10
5.77172
20
-1.91728
11
5.77172
21
-1.91728
0
LINE
8
BLACK
6
CONTINUOUS
10
5.77172
20
-1.91728
11
5.77171
21
-1.91729
0
LINE
8
BLACK
6
CONTINUOUS
10
5.77171
20
-1.91729
11
5.77155
21
-1.91739
0
LINE
8
BLACK
6
CONTINUOUS
10
5.77155
20
-1.91739
11
5.77154
21
-1.91739
0
LINE
8
BLACK
6
CONTINUOUS
10
5.77154
20
-1.91739
11
5.77153
21
-1.9174
0
LINE
8
BLACK
6
CONTINUOUS
10
5.77153
20
-1.9174
11
5.77149
21
-1.91742
0
LINE
8
BLACK
6
CONTINUOUS
10
5.77149
20
-1.91742
11
5.77139
21
-1.91747
0
LINE
8
BLACK
6
CONTINUOUS
10
5.77139
20
-1.91747
11
5.77135
21
-1.91749
0
LINE
8
BLACK
6
CONTINUOUS
10
5.77135
20
-1.91749
11
5.77132
21
-1.91751
0
LINE
8
BLACK
6
CONTINUOUS
10
5.77132
20
-1.91751
11
5.69809
21
-1.95157
0
LINE
8
BLACK
6
CONTINUOUS
10
5.69809
20
-1.95157
11
5.69788
21
-1.95166
0
LINE
8
BLACK
6
CONTINUOUS
10
5.69788
20
-1.95166
11
5.69788
21
-1.95166
0
LINE
8
BLACK
6
CONTINUOUS
10
5.69788
20
-1.95166
11
5.62221
21
-1.97987
0
LINE
8
BLACK
6
CONTINUOUS
10
5.62221
20
-1.97987
11
5.62221
21
-1.97987
0
LINE
8
BLACK
6
CONTINUOUS
10
5.62221
20
-1.97987
11
5.62206
21
-1.97992
0
LINE
8
BLACK
6
CONTINUOUS
10
5.62206
20
-1.97992
11
5.62199
21
-1.97994
0
LINE
8
BLACK
6
CONTINUOUS
10
5.62199
20
-1.97994
11
5.62199
21
-1.97994
0
LINE
8
BLACK
6
CONTINUOUS
10
5.62199
20
-1.97994
11
5.54433
21
-2.00213
0
LINE
8
BLACK
6
CONTINUOUS
10
5.54433
20
-2.00213
11
5.54411
21
-2.00218
0
LINE
8
BLACK
6
CONTINUOUS
10
5.54411
20
-2.00218
11
5.54411
21
-2.00218
0
LINE
8
BLACK
6
CONTINUOUS
10
5.54411
20
-2.00218
11
5.46496
21
-2.01821
0
LINE
8
BLACK
6
CONTINUOUS
10
5.46496
20
-2.01821
11
5.46485
21
-2.01823
0
LINE
8
BLACK
6
CONTINUOUS
10
5.46485
20
-2.01823
11
5.46475
21
-2.01824
0
LINE
8
BLACK
6
CONTINUOUS
10
5.46475
20
-2.01824
11
5.40263
21
-2.02636
0
LINE
8
BLACK
6
CONTINUOUS
10
5.40263
20
-2.02636
11
5.40251
21
-2.02639
0
LINE
8
BLACK
6
CONTINUOUS
10
5.40251
20
-2.02639
11
5.40223
21
-2.0264
0
LINE
8
BLACK
6
CONTINUOUS
10
5.40223
20
-2.0264
11
5.40223
21
-2.0264
0
LINE
8
BLACK
6
CONTINUOUS
10
5.40223
20
-2.0264
11
5.40223
21
-2.0264
0
LINE
8
BLACK
6
CONTINUOUS
10
5.40223
20
-2.0264
11
5.40193
21
-2.02642
0
LINE
8
BLACK
6
CONTINUOUS
10
5.40193
20
-2.02642
11
5.40135
21
-2.02633
0
LINE
8
BLACK
6
CONTINUOUS
10
5.40135
20
-2.02633
11
5.40109
21
-2.02624
0
LINE
8
BLACK
6
CONTINUOUS
10
5.40109
20
-2.02624
11
5.40109
21
-2.02624
0
LINE
8
BLACK
6
CONTINUOUS
10
5.40109
20
-2.02624
11
5.40109
21
-2.02624
0
LINE
8
BLACK
6
CONTINUOUS
10
5.40109
20
-2.02624
11
5.40094
21
-2.02619
0
LINE
8
BLACK
6
CONTINUOUS
10
5.40094
20
-2.02619
11
5.3
21
-1.97827
0
LINE
8
BLACK
6
CONTINUOUS
10
5.3
20
-1.97827
11
5.1988
21
-2.02602
0
LINE
8
BLACK
6
CONTINUOUS
10
5.1988
20
-2.02602
11
5.19839
21
-2.02617
0
LINE
8
BLACK
6
CONTINUOUS
10
5.19839
20
-2.02617
11
5.19781
21
-2.02625
0
LINE
8
BLACK
6
CONTINUOUS
10
5.19781
20
-2.02625
11
5.19723
21
-2.02623
0
LINE
8
BLACK
6
CONTINUOUS
10
5.19723
20
-2.02623
11
5.19711
21
-2.02619
0
LINE
8
BLACK
6
CONTINUOUS
10
5.19711
20
-2.02619
11
5.11728
21
-2.01503
0
LINE
8
BLACK
6
CONTINUOUS
10
5.11728
20
-2.01503
11
5.11728
21
-2.01503
0
LINE
8
BLACK
6
CONTINUOUS
10
5.11728
20
-2.01503
11
5.11724
21
-2.01502
0
LINE
8
BLACK
6
CONTINUOUS
10
5.11724
20
-2.01502
11
5.11706
21
-2.01499
0
LINE
8
BLACK
6
CONTINUOUS
10
5.11706
20
-2.01499
11
5.11706
21
-2.01499
0
LINE
8
BLACK
6
CONTINUOUS
10
5.11706
20
-2.01499
11
5.03821
21
-1.99757
0
LINE
8
BLACK
6
CONTINUOUS
10
5.03821
20
-1.99757
11
5.03799
21
-1.99751
0
LINE
8
BLACK
6
CONTINUOUS
10
5.03799
20
-1.99751
11
4.96075
21
-1.97395
0
LINE
8
BLACK
6
CONTINUOUS
10
4.96075
20
-1.97395
11
4.96075
21
-1.97395
0
LINE
8
BLACK
6
CONTINUOUS
10
4.96075
20
-1.97395
11
4.96053
21
-1.97388
0
LINE
8
BLACK
6
CONTINUOUS
10
4.96053
20
-1.97388
11
4.88538
21
-1.94433
0
LINE
8
BLACK
6
CONTINUOUS
10
4.88538
20
-1.94433
11
4.88529
21
-1.94429
0
LINE
8
BLACK
6
CONTINUOUS
10
4.88529
20
-1.94429
11
4.88519
21
-1.94425
0
LINE
8
BLACK
6
CONTINUOUS
10
4.88519
20
-1.94425
11
4.82955
21
-1.91776
0
LINE
8
BLACK
6
CONTINUOUS
10
4.82955
20
-1.91776
11
4.82945
21
-1.91774
0
LINE
8
BLACK
6
CONTINUOUS
10
4.82945
20
-1.91774
11
4.82927
21
-1.91771
0
LINE
8
BLACK
6
CONTINUOUS
10
4.82927
20
-1.91771
11
4.82909
21
-1.91766
0
LINE
8
BLACK
6
CONTINUOUS
10
4.82909
20
-1.91766
11
4.82891
21
-1.9176
0
LINE
8
BLACK
6
CONTINUOUS
10
4.82891
20
-1.9176
11
4.82874
21
-1.91753
0
LINE
8
BLACK
6
CONTINUOUS
10
4.82874
20
-1.91753
11
4.82857
21
-1.91745
0
LINE
8
BLACK
6
CONTINUOUS
10
4.82857
20
-1.91745
11
4.82841
21
-1.91736
0
LINE
8
BLACK
6
CONTINUOUS
10
4.82841
20
-1.91736
11
4.82826
21
-1.91726
0
LINE
8
BLACK
6
CONTINUOUS
10
4.82826
20
-1.91726
11
4.82811
21
-1.91715
0
LINE
8
BLACK
6
CONTINUOUS
10
4.82811
20
-1.91715
11
4.82796
21
-1.91704
0
LINE
8
BLACK
6
CONTINUOUS
10
4.82796
20
-1.91704
11
4.82783
21
-1.91691
0
LINE
8
BLACK
6
CONTINUOUS
10
4.82783
20
-1.91691
11
4.8277
21
-1.91677
0
LINE
8
BLACK
6
CONTINUOUS
10
4.8277
20
-1.91677
11
4.82759
21
-1.91663
0
LINE
8
BLACK
6
CONTINUOUS
10
4.82759
20
-1.91663
11
4.82748
21
-1.91648
0
LINE
8
BLACK
6
CONTINUOUS
10
4.82748
20
-1.91648
11
4.82743
21
-1.91641
0
LINE
8
BLACK
6
CONTINUOUS
10
4.82743
20
-1.91641
11
4.82741
21
-1.91638
0
LINE
8
BLACK
6
CONTINUOUS
10
4.82741
20
-1.91638
11
4.82727
21
-1.91619
0
LINE
8
BLACK
6
CONTINUOUS
10
4.82727
20
-1.91619
11
4.82719
21
-1.91605
0
LINE
8
BLACK
6
CONTINUOUS
10
4.82719
20
-1.91605
11
4.77254
21
-1.83492
0
LINE
8
BLACK
6
CONTINUOUS
10
4.77254
20
-1.83492
11
4.77244
21
-1.83477
0
LINE
8
BLACK
6
CONTINUOUS
10
4.77244
20
-1.83477
11
4.72273
21
-1.74993
0
LINE
8
BLACK
6
CONTINUOUS
10
4.72273
20
-1.74993
11
4.7227
21
-1.74986
0
LINE
8
BLACK
6
CONTINUOUS
10
4.7227
20
-1.74986
11
4.72266
21
-1.7498
0
LINE
8
BLACK
6
CONTINUOUS
10
4.72266
20
-1.7498
11
4.69745
21
-1.70149
0
LINE
8
BLACK
6
CONTINUOUS
10
4.69745
20
-1.70149
11
4.69736
21
-1.70136
0
LINE
8
BLACK
6
CONTINUOUS
10
4.69736
20
-1.70136
11
4.69715
21
-1.70082
0
LINE
8
BLACK
6
CONTINUOUS
10
4.69715
20
-1.70082
11
4.69704
21
-1.70024
0
LINE
8
BLACK
6
CONTINUOUS
10
4.69704
20
-1.70024
11
4.69705
21
-1.69966
0
LINE
8
BLACK
6
CONTINUOUS
10
4.69705
20
-1.69966
11
4.69718
21
-1.69909
0
LINE
8
BLACK
6
CONTINUOUS
10
4.69718
20
-1.69909
11
4.69741
21
-1.69856
0
LINE
8
BLACK
6
CONTINUOUS
10
4.69741
20
-1.69856
11
4.69774
21
-1.69808
0
LINE
8
BLACK
6
CONTINUOUS
10
4.69774
20
-1.69808
11
4.69816
21
-1.69768
0
LINE
8
BLACK
6
CONTINUOUS
10
4.69816
20
-1.69768
11
4.69864
21
-1.69736
0
LINE
8
BLACK
6
CONTINUOUS
10
4.69864
20
-1.69736
11
4.69905
21
-1.6972
0
LINE
8
BLACK
6
CONTINUOUS
10
4.69905
20
-1.6972
11
4.85045
21
-1.65394
0
LINE
8
BLACK
6
CONTINUOUS
10
4.85045
20
-1.65394
11
4.69263
21
-1.6603
0
LINE
8
BLACK
6
CONTINUOUS
10
4.69263
20
-1.6603
11
4.69248
21
-1.66029
0
LINE
8
BLACK
6
CONTINUOUS
10
4.69248
20
-1.66029
11
4.69248
21
-1.66029
0
LINE
8
BLACK
6
CONTINUOUS
10
4.69248
20
-1.66029
11
4.69248
21
-1.66029
0
LINE
8
BLACK
6
CONTINUOUS
10
4.69248
20
-1.66029
11
4.6922
21
-1.66028
0
LINE
8
BLACK
6
CONTINUOUS
10
4.6922
20
-1.66028
11
4.69192
21
-1.66021
0
LINE
8
BLACK
6
CONTINUOUS
10
4.69192
20
-1.66021
11
4.69192
21
-1.66021
0
LINE
8
BLACK
6
CONTINUOUS
10
4.69192
20
-1.66021
11
4.69192
21
-1.66021
0
LINE
8
BLACK
6
CONTINUOUS
10
4.69192
20
-1.66021
11
4.69164
21
-1.66013
0
LINE
8
BLACK
6
CONTINUOUS
10
4.69164
20
-1.66013
11
4.69139
21
-1.66001
0
LINE
8
BLACK
6
CONTINUOUS
10
4.69139
20
-1.66001
11
4.69138
21
-1.66001
0
LINE
8
BLACK
6
CONTINUOUS
10
4.69138
20
-1.66001
11
4.69138
21
-1.66001
0
LINE
8
BLACK
6
CONTINUOUS
10
4.69138
20
-1.66001
11
4.69111
21
-1.65988
0
LINE
8
BLACK
6
CONTINUOUS
10
4.69111
20
-1.65988
11
4.69065
21
-1.65953
0
LINE
8
BLACK
6
CONTINUOUS
10
4.69065
20
-1.65953
11
4.69026
21
-1.65909
0
LINE
8
BLACK
6
CONTINUOUS
10
4.69026
20
-1.65909
11
4.69022
21
-1.65902
0
LINE
8
BLACK
6
CONTINUOUS
10
4.69022
20
-1.65902
11
4.67463
21
-1.63943
0
LINE
8
BLACK
6
CONTINUOUS
10
4.67463
20
-1.63943
11
4.6135
21
-1.56872
0
LINE
8
BLACK
6
CONTINUOUS
10
4.6135
20
-1.56872
11
4.54855
21
-1.50273
0
LINE
8
BLACK
6
CONTINUOUS
10
4.54855
20
-1.50273
11
4.54833
21
-1.50275
0
LINE
8
BLACK
6
CONTINUOUS
10
4.54833
20
-1.50275
11
4.54808
21
-1.50276
0
LINE
8
BLACK
6
CONTINUOUS
10
4.54808
20
-1.50276
11
4.54784
21
-1.50274
0
LINE
8
BLACK
6
CONTINUOUS
10
4.54784
20
-1.50274
11
4.54759
21
-1.50271
0
LINE
8
BLACK
6
CONTINUOUS
10
4.54759
20
-1.50271
11
4.54735
21
-1.50265
0
LINE
8
BLACK
6
CONTINUOUS
10
4.54735
20
-1.50265
11
4.54712
21
-1.50257
0
LINE
8
BLACK
6
CONTINUOUS
10
4.54712
20
-1.50257
11
4.54689
21
-1.50247
0
LINE
8
BLACK
6
CONTINUOUS
10
4.54689
20
-1.50247
11
4.54667
21
-1.50236
0
LINE
8
BLACK
6
CONTINUOUS
10
4.54667
20
-1.50236
11
4.54646
21
-1.50222
0
LINE
8
BLACK
6
CONTINUOUS
10
4.54646
20
-1.50222
11
4.54626
21
-1.50207
0
LINE
8
BLACK
6
CONTINUOUS
10
4.54626
20
-1.50207
11
4.54608
21
-1.50191
0
LINE
8
BLACK
6
CONTINUOUS
10
4.54608
20
-1.50191
11
4.54591
21
-1.50173
0
LINE
8
BLACK
6
CONTINUOUS
10
4.54591
20
-1.50173
11
4.54576
21
-1.50153
0
LINE
8
BLACK
6
CONTINUOUS
10
4.54576
20
-1.50153
11
4.54562
21
-1.50133
0
LINE
8
BLACK
6
CONTINUOUS
10
4.54562
20
-1.50133
11
4.54551
21
-1.50111
0
LINE
8
BLACK
6
CONTINUOUS
10
4.54551
20
-1.50111
11
4.54541
21
-1.50088
0
LINE
8
BLACK
6
CONTINUOUS
10
4.54541
20
-1.50088
11
4.54533
21
-1.50065
0
LINE
8
BLACK
6
CONTINUOUS
10
4.54533
20
-1.50065
11
4.52377
21
-1.42814
0
LINE
8
BLACK
6
CONTINUOUS
10
4.52377
20
-1.42814
11
4.52374
21
-1.42802
0
LINE
8
BLACK
6
CONTINUOUS
10
4.52374
20
-1.42802
11
4.52373
21
-1.42796
0
LINE
8
BLACK
6
CONTINUOUS
10
4.52373
20
-1.42796
11
4.52371
21
-1.4279
0
LINE
8
BLACK
6
CONTINUOUS
10
4.52371
20
-1.4279
11
4.5083
21
-1.35384
0
LINE
8
BLACK
6
CONTINUOUS
10
4.5083
20
-1.35384
11
4.50828
21
-1.35372
0
LINE
8
BLACK
6
CONTINUOUS
10
4.50828
20
-1.35372
11
4.50827
21
-1.35366
0
LINE
8
BLACK
6
CONTINUOUS
10
4.50827
20
-1.35366
11
4.50826
21
-1.35359
0
LINE
8
BLACK
6
CONTINUOUS
10
4.50826
20
-1.35359
11
4.4991
21
-1.2785
0
LINE
8
BLACK
6
CONTINUOUS
10
4.4991
20
-1.2785
11
4.49909
21
-1.27838
0
LINE
8
BLACK
6
CONTINUOUS
10
4.49909
20
-1.27838
11
4.49908
21
-1.27832
0
LINE
8
BLACK
6
CONTINUOUS
10
4.49908
20
-1.27832
11
4.49908
21
-1.27826
0
LINE
8
BLACK
6
CONTINUOUS
10
4.49908
20
-1.27826
11
4.49623
21
-1.20266
0
LINE
8
BLACK
6
CONTINUOUS
10
4.49623
20
-1.20266
11
4.49623
21
-1.20254
0
LINE
8
BLACK
6
CONTINUOUS
10
4.49623
20
-1.20254
11
4.49623
21
-1.2025
0
LINE
8
BLACK
6
CONTINUOUS
10
4.49623
20
-1.2025
11
4.49623
21
-1.20246
0
LINE
8
BLACK
6
CONTINUOUS
10
4.49623
20
-1.20246
11
4.49772
21
-1.1551
0
LINE
8
BLACK
6
CONTINUOUS
10
4.49772
20
-1.1551
11
4.49767
21
-1.155
0
LINE
8
BLACK
6
CONTINUOUS
10
4.49767
20
-1.155
11
4.49759
21
-1.15481
0
LINE
8
BLACK
6
CONTINUOUS
10
4.49759
20
-1.15481
11
4.49753
21
-1.15462
0
LINE
8
BLACK
6
CONTINUOUS
10
4.49753
20
-1.15462
11
4.49748
21
-1.15442
0
LINE
8
BLACK
6
CONTINUOUS
10
4.49748
20
-1.15442
11
4.49744
21
-1.15423
0
LINE
8
BLACK
6
CONTINUOUS
10
4.49744
20
-1.15423
11
4.49742
21
-1.15403
0
LINE
8
BLACK
6
CONTINUOUS
10
4.49742
20
-1.15403
11
4.49741
21
-1.15383
0
LINE
8
BLACK
6
CONTINUOUS
10
4.49741
20
-1.15383
11
4.49741
21
-1.15363
0
LINE
8
BLACK
6
CONTINUOUS
10
4.49741
20
-1.15363
11
4.49743
21
-1.15343
0
LINE
8
BLACK
6
CONTINUOUS
10
4.49743
20
-1.15343
11
4.49746
21
-1.15323
0
LINE
8
BLACK
6
CONTINUOUS
10
4.49746
20
-1.15323
11
4.4975
21
-1.15303
0
LINE
8
BLACK
6
CONTINUOUS
10
4.4975
20
-1.15303
11
4.49756
21
-1.15284
0
LINE
8
BLACK
6
CONTINUOUS
10
4.49756
20
-1.15284
11
4.49763
21
-1.15265
0
LINE
8
BLACK
6
CONTINUOUS
10
4.49763
20
-1.15265
11
4.49772
21
-1.15247
0
LINE
8
BLACK
6
CONTINUOUS
10
4.49772
20
-1.15247
11
4.49781
21
-1.15229
0
LINE
8
BLACK
6
CONTINUOUS
10
4.49781
20
-1.15229
11
4.49792
21
-1.15212
0
LINE
8
BLACK
6
CONTINUOUS
10
4.49792
20
-1.15212
11
4.49804
21
-1.15196
0
LINE
8
BLACK
6
CONTINUOUS
10
4.49804
20
-1.15196
11
4.49817
21
-1.15181
0
LINE
8
BLACK
6
CONTINUOUS
10
4.49817
20
-1.15181
11
4.49831
21
-1.15166
0
LINE
8
BLACK
6
CONTINUOUS
10
4.49831
20
-1.15166
11
4.49846
21
-1.15153
0
LINE
8
BLACK
6
CONTINUOUS
10
4.49846
20
-1.15153
11
4.49861
21
-1.1514
0
LINE
8
BLACK
6
CONTINUOUS
10
4.49861
20
-1.1514
11
4.49878
21
-1.15129
0
LINE
8
BLACK
6
CONTINUOUS
10
4.49878
20
-1.15129
11
4.49895
21
-1.15119
0
LINE
8
BLACK
6
CONTINUOUS
10
4.49895
20
-1.15119
11
4.49913
21
-1.1511
0
LINE
8
BLACK
6
CONTINUOUS
10
4.49913
20
-1.1511
11
4.49932
21
-1.15102
0
LINE
8
BLACK
6
CONTINUOUS
10
4.49932
20
-1.15102
11
4.49951
21
-1.15096
0
LINE
8
BLACK
6
CONTINUOUS
10
4.49951
20
-1.15096
11
4.4997
21
-1.1509
0
LINE
8
BLACK
6
CONTINUOUS
10
4.4997
20
-1.1509
11
4.4999
21
-1.15087
0
LINE
8
BLACK
6
CONTINUOUS
10
4.4999
20
-1.15087
11
4.5
21
-1.15085
0
LINE
8
BLACK
6
CONTINUOUS
10
4.5
20
-1.15085
11
4.50001
21
-1.15085
0
LINE
8
BLACK
6
CONTINUOUS
10
4.50001
20
-1.15085
11
4.50025
21
-1.1508
0
LINE
8
BLACK
6
CONTINUOUS
10
4.50025
20
-1.1508
11
4.5005
21
-1.15077
0
LINE
8
BLACK
6
CONTINUOUS
10
4.5005
20
-1.15077
11
4.50051
21
-1.15077
0
LINE
8
BLACK
6
CONTINUOUS
10
4.50051
20
-1.15077
11
4.58921
21
-1.1368
0
LINE
8
BLACK
6
CONTINUOUS
10
4.58921
20
-1.1368
11
4.58924
21
-1.13679
0
LINE
8
BLACK
6
CONTINUOUS
10
4.58924
20
-1.13679
11
4.58933
21
-1.13678
0
LINE
8
BLACK
6
CONTINUOUS
10
4.58933
20
-1.13678
11
4.58941
21
-1.13677
0
LINE
8
BLACK
6
CONTINUOUS
10
4.58941
20
-1.13677
11
4.67947
21
-1.12881
0
LINE
8
BLACK
6
CONTINUOUS
10
4.67947
20
-1.12881
11
4.6795
21
-1.12881
0
LINE
8
BLACK
6
CONTINUOUS
10
4.6795
20
-1.12881
11
4.67959
21
-1.12881
0
LINE
8
BLACK
6
CONTINUOUS
10
4.67959
20
-1.12881
11
4.67967
21
-1.1288
0
LINE
8
BLACK
6
CONTINUOUS
10
4.67967
20
-1.1288
11
4.77007
21
-1.12699
0
LINE
8
BLACK
6
CONTINUOUS
10
4.77007
20
-1.12699
11
4.7701
21
-1.12699
0
LINE
8
BLACK
6
CONTINUOUS
10
4.7701
20
-1.12699
11
4.77018
21
-1.12699
0
LINE
8
BLACK
6
CONTINUOUS
10
4.77018
20
-1.12699
11
4.77027
21
-1.12699
0
LINE
8
BLACK
6
CONTINUOUS
10
4.77027
20
-1.12699
11
4.86058
21
-1.13133
0
LINE
8
BLACK
6
CONTINUOUS
10
4.86058
20
-1.13133
11
4.86061
21
-1.13133
0
LINE
8
BLACK
6
CONTINUOUS
10
4.86061
20
-1.13133
11
4.86069
21
-1.13133
0
LINE
8
BLACK
6
CONTINUOUS
10
4.86069
20
-1.13133
11
4.86078
21
-1.13134
0
LINE
8
BLACK
6
CONTINUOUS
10
4.86078
20
-1.13134
11
4.95058
21
-1.14181
0
LINE
8
BLACK
6
CONTINUOUS
10
4.95058
20
-1.14181
11
4.95061
21
-1.14181
0
LINE
8
BLACK
6
CONTINUOUS
10
4.95061
20
-1.14181
11
4.9507
21
-1.14183
0
LINE
8
BLACK
6
CONTINUOUS
10
4.9507
20
-1.14183
11
4.95078
21
-1.14184
0
LINE
8
BLACK
6
CONTINUOUS
10
4.95078
20
-1.14184
11
5.03967
21
-1.15839
0
LINE
8
BLACK
6
CONTINUOUS
10
5.03967
20
-1.15839
11
5.0397
21
-1.1584
0
LINE
8
BLACK
6
CONTINUOUS
10
5.0397
20
-1.1584
11
5.03978
21
-1.15842
0
LINE
8
BLACK
6
CONTINUOUS
10
5.03978
20
-1.15842
11
5.03986
21
-1.15844
0
LINE
8
BLACK
6
CONTINUOUS
10
5.03986
20
-1.15844
11
5.12742
21
-1.181
0
LINE
8
BLACK
6
CONTINUOUS
10
5.12742
20
-1.181
11
5.12745
21
-1.181
0
LINE
8
BLACK
6
CONTINUOUS
10
5.12745
20
-1.181
11
5.12752
21
-1.18103
0
LINE
8
BLACK
6
CONTINUOUS
10
5.12752
20
-1.18103
11
5.1276
21
-1.18105
0
LINE
8
BLACK
6
CONTINUOUS
10
5.1276
20
-1.18105
11
5.1922
21
-1.20216
0
LINE
8
BLACK
6
CONTINUOUS
10
5.1922
20
-1.20216
11
5.18444
21
-1.18177
0
LINE
8
BLACK
6
CONTINUOUS
10
5.18444
20
-1.18177
11
5.18444
21
-1.18177
0
LINE
8
BLACK
6
CONTINUOUS
10
5.18444
20
-1.18177
11
5.18444
21
-1.18177
0
LINE
8
BLACK
6
CONTINUOUS
10
5.18444
20
-1.18177
11
5.18442
21
-1.18173
0
LINE
8
BLACK
6
CONTINUOUS
10
5.18442
20
-1.18173
11
5.18435
21
-1.18147
0
LINE
8
BLACK
6
CONTINUOUS
10
5.18435
20
-1.18147
11
5.18428
21
-1.18121
0
LINE
8
BLACK
6
CONTINUOUS
10
5.18428
20
-1.18121
11
5.18047
21
-1.15872
0
LINE
8
BLACK
6
CONTINUOUS
10
5.18047
20
-1.15872
11
5.18047
21
-1.15872
0
LINE
8
BLACK
6
CONTINUOUS
10
5.18047
20
-1.15872
11
5.18047
21
-1.15872
0
LINE
8
BLACK
6
CONTINUOUS
10
5.18047
20
-1.15872
11
5.18046
21
-1.15868
0
LINE
8
BLACK
6
CONTINUOUS
10
5.18046
20
-1.15868
11
5.18044
21
-1.15841
0
LINE
8
BLACK
6
CONTINUOUS
10
5.18044
20
-1.15841
11
5.18043
21
-1.15814
0
LINE
8
BLACK
6
CONTINUOUS
10
5.18043
20
-1.15814
11
5.18105
21
-1.13533
0
LINE
8
BLACK
6
CONTINUOUS
10
5.18105
20
-1.13533
11
5.18105
21
-1.13529
0
LINE
8
BLACK
6
CONTINUOUS
10
5.18105
20
-1.13529
11
5.18109
21
-1.13503
0
LINE
8
BLACK
6
CONTINUOUS
10
5.18109
20
-1.13503
11
5.18112
21
-1.13476
0
LINE
8
BLACK
6
CONTINUOUS
10
5.18112
20
-1.13476
11
5.18616
21
-1.11251
0
LINE
8
BLACK
6
CONTINUOUS
10
5.18616
20
-1.11251
11
5.18617
21
-1.11247
0
LINE
8
BLACK
6
CONTINUOUS
10
5.18617
20
-1.11247
11
5.18626
21
-1.11222
0
LINE
8
BLACK
6
CONTINUOUS
10
5.18626
20
-1.11222
11
5.18634
21
-1.11196
0
LINE
8
BLACK
6
CONTINUOUS
10
5.18634
20
-1.11196
11
5.19561
21
-1.09111
0
LINE
8
BLACK
6
CONTINUOUS
10
5.19561
20
-1.09111
11
5.19563
21
-1.09107
0
LINE
8
BLACK
6
CONTINUOUS
10
5.19563
20
-1.09107
11
5.19577
21
-1.09084
0
LINE
8
BLACK
6
CONTINUOUS
10
5.19577
20
-1.09084
11
5.1959
21
-1.09061
0
LINE
8
BLACK
6
CONTINUOUS
10
5.1959
20
-1.09061
11
5.20904
21
-1.07196
0
LINE
8
BLACK
6
CONTINUOUS
10
5.20904
20
-1.07196
11
5.20906
21
-1.07192
0
LINE
8
BLACK
6
CONTINUOUS
10
5.20906
20
-1.07192
11
5.20924
21
-1.07172
0
LINE
8
BLACK
6
CONTINUOUS
10
5.20924
20
-1.07172
11
5.20942
21
-1.07152
0
LINE
8
BLACK
6
CONTINUOUS
10
5.20942
20
-1.07152
11
5.22593
21
-1.05578
0
LINE
8
BLACK
6
CONTINUOUS
10
5.22593
20
-1.05578
11
5.22593
21
-1.05578
0
LINE
8
BLACK
6
CONTINUOUS
10
5.22593
20
-1.05578
11
5.22593
21
-1.05578
0
LINE
8
BLACK
6
CONTINUOUS
10
5.22593
20
-1.05578
11
5.22596
21
-1.05575
0
LINE
8
BLACK
6
CONTINUOUS
10
5.22596
20
-1.05575
11
5.22617
21
-1.05559
0
LINE
8
BLACK
6
CONTINUOUS
10
5.22617
20
-1.05559
11
5.22638
21
-1.05542
0
LINE
8
BLACK
6
CONTINUOUS
10
5.22638
20
-1.05542
11
5.24564
21
-1.04318
0
LINE
8
BLACK
6
CONTINUOUS
10
5.24564
20
-1.04318
11
5.24564
21
-1.04318
0
LINE
8
BLACK
6
CONTINUOUS
10
5.24564
20
-1.04318
11
5.24564
21
-1.04318
0
LINE
8
BLACK
6
CONTINUOUS
10
5.24564
20
-1.04318
11
5.24568
21
-1.04316
0
LINE
8
BLACK
6
CONTINUOUS
10
5.24568
20
-1.04316
11
5.24592
21
-1.04304
0
LINE
8
BLACK
6
CONTINUOUS
10
5.24592
20
-1.04304
11
5.24616
21
-1.04292
0
LINE
8
BLACK
6
CONTINUOUS
10
5.24616
20
-1.04292
11
5.26743
21
-1.03466
0
LINE
8
BLACK
6
CONTINUOUS
10
5.26743
20
-1.03466
11
5.26743
21
-1.03466
0
LINE
8
BLACK
6
CONTINUOUS
10
5.26743
20
-1.03466
11
5.26743
21
-1.03466
0
LINE
8
BLACK
6
CONTINUOUS
10
5.26743
20
-1.03466
11
5.26746
21
-1.03465
0
LINE
8
BLACK
6
CONTINUOUS
10
5.26746
20
-1.03465
11
5.26772
21
-1.03458
0
LINE
8
BLACK
6
CONTINUOUS
10
5.26772
20
-1.03458
11
5.26798
21
-1.0345
0
LINE
8
BLACK
6
CONTINUOUS
10
5.26798
20
-1.0345
11
5.29045
21
-1.03053
0
LINE
8
BLACK
6
CONTINUOUS
10
5.29045
20
-1.03053
11
5.29049
21
-1.03052
0
LINE
8
BLACK
6
CONTINUOUS
10
5.29049
20
-1.03052
11
5.29076
21
-1.03051
0
LINE
8
BLACK
6
CONTINUOUS
10
5.29076
20
-1.03051
11
5.29102
21
-1.03048
0
LINE
8
BLACK
6
CONTINUOUS
10
5.29102
20
-1.03048
11
5.31384
21
-1.03095
0
LINE
8
BLACK
6
CONTINUOUS
10
5.31384
20
-1.03095
11
5.31384
21
-1.03095
0
LINE
8
BLACK
6
CONTINUOUS
10
5.31384
20
-1.03095
11
5.31384
21
-1.03095
0
LINE
8
BLACK
6
CONTINUOUS
10
5.31384
20
-1.03095
11
5.31388
21
-1.03095
0
LINE
8
BLACK
6
CONTINUOUS
10
5.31388
20
-1.03095
11
5.31414
21
-1.03099
0
LINE
8
BLACK
6
CONTINUOUS
10
5.31414
20
-1.03099
11
5.31441
21
-1.03102
0
LINE
8
BLACK
6
CONTINUOUS
10
5.31441
20
-1.03102
11
5.3367
21
-1.0359
0
LINE
8
BLACK
6
CONTINUOUS
10
5.3367
20
-1.0359
11
5.33674
21
-1.03591
0
LINE
8
BLACK
6
CONTINUOUS
10
5.33674
20
-1.03591
11
5.33699
21
-1.036
0
LINE
8
BLACK
6
CONTINUOUS
10
5.33699
20
-1.036
11
5.33724
21
-1.03608
0
LINE
8
BLACK
6
CONTINUOUS
10
5.33724
20
-1.03608
11
5.35816
21
-1.0452
0
LINE
8
BLACK
6
CONTINUOUS
10
5.35816
20
-1.0452
11
5.35816
21
-1.0452
0
LINE
8
BLACK
6
CONTINUOUS
10
5.35816
20
-1.0452
11
5.35816
21
-1.0452
0
LINE
8
BLACK
6
CONTINUOUS
10
5.35816
20
-1.0452
11
5.3582
21
-1.04522
0
LINE
8
BLACK
6
CONTINUOUS
10
5.3582
20
-1.04522
11
5.35843
21
-1.04536
0
LINE
8
BLACK
6
CONTINUOUS
10
5.35843
20
-1.04536
11
5.35866
21
-1.04549
0
LINE
8
BLACK
6
CONTINUOUS
10
5.35866
20
-1.04549
11
5.37741
21
-1.0585
0
LINE
8
BLACK
6
CONTINUOUS
10
5.37741
20
-1.0585
11
5.37741
21
-1.0585
0
LINE
8
BLACK
6
CONTINUOUS
10
5.37741
20
-1.0585
11
5.37741
21
-1.0585
0
LINE
8
BLACK
6
CONTINUOUS
10
5.37741
20
-1.0585
11
5.37744
21
-1.05852
0
LINE
8
BLACK
6
CONTINUOUS
10
5.37744
20
-1.05852
11
5.37764
21
-1.0587
0
LINE
8
BLACK
6
CONTINUOUS
10
5.37764
20
-1.0587
11
5.37784
21
-1.05887
0
LINE
8
BLACK
6
CONTINUOUS
10
5.37784
20
-1.05887
11
5.3937
21
-1.07527
0
LINE
8
BLACK
6
CONTINUOUS
10
5.3937
20
-1.07527
11
5.3937
21
-1.07527
0
LINE
8
BLACK
6
CONTINUOUS
10
5.3937
20
-1.07527
11
5.3937
21
-1.07527
0
LINE
8
BLACK
6
CONTINUOUS
10
5.3937
20
-1.07527
11
5.39373
21
-1.0753
0
LINE
8
BLACK
6
CONTINUOUS
10
5.39373
20
-1.0753
11
5.3939
21
-1.07552
0
LINE
8
BLACK
6
CONTINUOUS
10
5.3939
20
-1.07552
11
5.39406
21
-1.07573
0
LINE
8
BLACK
6
CONTINUOUS
10
5.39406
20
-1.07573
11
5.40643
21
-1.0949
0
LINE
8
BLACK
6
CONTINUOUS
10
5.40643
20
-1.0949
11
5.40646
21
-1.09493
0
LINE
8
BLACK
6
CONTINUOUS
10
5.40646
20
-1.09493
11
5.40658
21
-1.09517
0
LINE
8
BLACK
6
CONTINUOUS
10
5.40658
20
-1.09517
11
5.4067
21
-1.09541
0
LINE
8
BLACK
6
CONTINUOUS
10
5.4067
20
-1.09541
11
5.41511
21
-1.11662
0
LINE
8
BLACK
6
CONTINUOUS
10
5.41511
20
-1.11662
11
5.41511
21
-1.11662
0
LINE
8
BLACK
6
CONTINUOUS
10
5.41511
20
-1.11662
11
5.41511
21
-1.11662
0
LINE
8
BLACK
6
CONTINUOUS
10
5.41511
20
-1.11662
11
5.41512
21
-1.11666
0
LINE
8
BLACK
6
CONTINUOUS
10
5.41512
20
-1.11666
11
5.41519
21
-1.11692
0
LINE
8
BLACK
6
CONTINUOUS
10
5.41519
20
-1.11692
11
5.41527
21
-1.11717
0
LINE
8
BLACK
6
CONTINUOUS
10
5.41527
20
-1.11717
11
5.4194
21
-1.13961
0
LINE
8
BLACK
6
CONTINUOUS
10
5.4194
20
-1.13961
11
5.41941
21
-1.13966
0
LINE
8
BLACK
6
CONTINUOUS
10
5.41941
20
-1.13966
11
5.41943
21
-1.13992
0
LINE
8
BLACK
6
CONTINUOUS
10
5.41943
20
-1.13992
11
5.41945
21
-1.14019
0
LINE
8
BLACK
6
CONTINUOUS
10
5.41945
20
-1.14019
11
5.41914
21
-1.163
0
LINE
8
BLACK
6
CONTINUOUS
10
5.41914
20
-1.163
11
5.41914
21
-1.163
0
LINE
8
BLACK
6
CONTINUOUS
10
5.41914
20
-1.163
11
5.41914
21
-1.163
0
LINE
8
BLACK
6
CONTINUOUS
10
5.41914
20
-1.163
11
5.41914
21
-1.16305
0
LINE
8
BLACK
6
CONTINUOUS
10
5.41914
20
-1.16305
11
5.41911
21
-1.16331
0
LINE
8
BLACK
6
CONTINUOUS
10
5.41911
20
-1.16331
11
5.41908
21
-1.16358
0
LINE
8
BLACK
6
CONTINUOUS
10
5.41908
20
-1.16358
11
5.41435
21
-1.1859
0
LINE
8
BLACK
6
CONTINUOUS
10
5.41435
20
-1.1859
11
5.41435
21
-1.1859
0
LINE
8
BLACK
6
CONTINUOUS
10
5.41435
20
-1.1859
11
5.41435
21
-1.1859
0
LINE
8
BLACK
6
CONTINUOUS
10
5.41435
20
-1.1859
11
5.41434
21
-1.18594
0
LINE
8
BLACK
6
CONTINUOUS
10
5.41434
20
-1.18594
11
5.41426
21
-1.18619
0
LINE
8
BLACK
6
CONTINUOUS
10
5.41426
20
-1.18619
11
5.41418
21
-1.18645
0
LINE
8
BLACK
6
CONTINUOUS
10
5.41418
20
-1.18645
11
5.40772
21
-1.20153
0
LINE
8
BLACK
6
CONTINUOUS
10
5.40772
20
-1.20153
11
5.48509
21
-1.17551
0
LINE
8
BLACK
6
CONTINUOUS
10
5.48509
20
-1.17551
11
5.48524
21
-1.17547
0
LINE
8
BLACK
6
CONTINUOUS
10
5.48524
20
-1.17547
11
5.48529
21
-1.17545
0
LINE
8
BLACK
6
CONTINUOUS
10
5.48529
20
-1.17545
11
5.57139
21
-1.15304
0
LINE
8
BLACK
6
CONTINUOUS
10
5.57139
20
-1.15304
11
5.57147
21
-1.15302
0
LINE
8
BLACK
6
CONTINUOUS
10
5.57147
20
-1.15302
11
5.57159
21
-1.15299
0
LINE
8
BLACK
6
CONTINUOUS
10
5.57159
20
-1.15299
11
5.65905
21
-1.13664
0
LINE
8
BLACK
6
CONTINUOUS
10
5.65905
20
-1.13664
11
5.65926
21
-1.13661
0
LINE
8
BLACK
6
CONTINUOUS
10
5.65926
20
-1.13661
11
5.74765
21
-1.1264
0
LINE
8
BLACK
6
CONTINUOUS
10
5.74765
20
-1.1264
11
5.74784
21
-1.12639
0
LINE
8
BLACK
6
CONTINUOUS
10
5.74784
20
-1.12639
11
5.74785
21
-1.12638
0
LINE
8
BLACK
6
CONTINUOUS
10
5.74785
20
-1.12638
11
5.83674
21
-1.12236
0
LINE
8
BLACK
6
CONTINUOUS
10
5.83674
20
-1.12236
11
5.83674
21
-1.12236
0
LINE
8
BLACK
6
CONTINUOUS
10
5.83674
20
-1.12236
11
5.83694
21
-1.12236
0
LINE
8
BLACK
6
CONTINUOUS
10
5.83694
20
-1.12236
11
5.83694
21
-1.12236
0
LINE
8
BLACK
6
CONTINUOUS
10
5.83694
20
-1.12236
11
5.92589
21
-1.12455
0
LINE
8
BLACK
6
CONTINUOUS
10
5.26929
20
-1.04027
11
5.24857
21
-1.04832
0
LINE
8
BLACK
6
CONTINUOUS
10
5.24857
20
-1.04832
11
5.2298
21
-1.06025
0
LINE
8
BLACK
6
CONTINUOUS
10
5.2298
20
-1.06025
11
5.2137
21
-1.0756
0
LINE
8
BLACK
6
CONTINUOUS
10
5.2137
20
-1.0756
11
5.20089
21
-1.09377
0
LINE
8
BLACK
6
CONTINUOUS
10
5.20089
20
-1.09377
11
5.19186
21
-1.1141
0
LINE
8
BLACK
6
CONTINUOUS
10
5.19186
20
-1.1141
11
5.18694
21
-1.13578
0
LINE
8
BLACK
6
CONTINUOUS
10
5.18694
20
-1.13578
11
5.18634
21
-1.15801
0
LINE
8
BLACK
6
CONTINUOUS
10
5.18634
20
-1.15801
11
5.19006
21
-1.17994
0
LINE
8
BLACK
6
CONTINUOUS
10
5.19006
20
-1.17994
11
5.19807
21
-1.20099
0
LINE
8
BLACK
6
CONTINUOUS
10
5.19807
20
-1.20099
11
5.19808
21
-1.20103
0
LINE
8
BLACK
6
CONTINUOUS
10
5.19808
20
-1.20103
11
5.19823
21
-1.20159
0
LINE
8
BLACK
6
CONTINUOUS
10
5.19823
20
-1.20159
11
5.19826
21
-1.20217
0
LINE
8
BLACK
6
CONTINUOUS
10
5.19826
20
-1.20217
11
5.19818
21
-1.20274
0
LINE
8
BLACK
6
CONTINUOUS
10
5.19818
20
-1.20274
11
5.19799
21
-1.20328
0
LINE
8
BLACK
6
CONTINUOUS
10
5.19799
20
-1.20328
11
5.19797
21
-1.20331
0
LINE
8
BLACK
6
CONTINUOUS
10
5.19797
20
-1.20331
11
5.19906
21
-1.2044
0
LINE
8
BLACK
6
CONTINUOUS
10
5.19906
20
-1.2044
11
5.20252
21
-1.20554
0
LINE
8
BLACK
6
CONTINUOUS
10
5.20252
20
-1.20554
11
5.20255
21
-1.20555
0
LINE
8
BLACK
6
CONTINUOUS
10
5.20255
20
-1.20555
11
5.20274
21
-1.20562
0
LINE
8
BLACK
6
CONTINUOUS
10
5.20274
20
-1.20562
11
5.20292
21
-1.2057
0
LINE
8
BLACK
6
CONTINUOUS
10
5.20292
20
-1.2057
11
5.2031
21
-1.2058
0
LINE
8
BLACK
6
CONTINUOUS
10
5.2031
20
-1.2058
11
5.20327
21
-1.2059
0
LINE
8
BLACK
6
CONTINUOUS
10
5.20327
20
-1.2059
11
5.20343
21
-1.20602
0
LINE
8
BLACK
6
CONTINUOUS
10
5.20343
20
-1.20602
11
5.20358
21
-1.20615
0
LINE
8
BLACK
6
CONTINUOUS
10
5.20358
20
-1.20615
11
5.20373
21
-1.20629
0
LINE
8
BLACK
6
CONTINUOUS
10
5.20373
20
-1.20629
11
5.20386
21
-1.20644
0
LINE
8
BLACK
6
CONTINUOUS
10
5.20386
20
-1.20644
11
5.20399
21
-1.2066
0
LINE
8
BLACK
6
CONTINUOUS
10
5.20399
20
-1.2066
11
5.2041
21
-1.20676
0
LINE
8
BLACK
6
CONTINUOUS
10
5.2041
20
-1.20676
11
5.2042
21
-1.20694
0
LINE
8
BLACK
6
CONTINUOUS
10
5.2042
20
-1.20694
11
5.20429
21
-1.20712
0
LINE
8
BLACK
6
CONTINUOUS
10
5.20429
20
-1.20712
11
5.20437
21
-1.2073
0
LINE
8
BLACK
6
CONTINUOUS
10
5.20437
20
-1.2073
11
5.20443
21
-1.20749
0
LINE
8
BLACK
6
CONTINUOUS
10
5.20443
20
-1.20749
11
5.20448
21
-1.20769
0
LINE
8
BLACK
6
CONTINUOUS
10
5.20448
20
-1.20769
11
5.20452
21
-1.20789
0
LINE
8
BLACK
6
CONTINUOUS
10
5.20452
20
-1.20789
11
5.20455
21
-1.20808
0
LINE
8
BLACK
6
CONTINUOUS
10
5.20455
20
-1.20808
11
5.20456
21
-1.20829
0
LINE
8
BLACK
6
CONTINUOUS
10
5.20456
20
-1.20829
11
5.20455
21
-1.20849
0
LINE
8
BLACK
6
CONTINUOUS
10
5.20455
20
-1.20849
11
5.20454
21
-1.20869
0
LINE
8
BLACK
6
CONTINUOUS
10
5.20454
20
-1.20869
11
5.20451
21
-1.20889
0
LINE
8
BLACK
6
CONTINUOUS
10
5.20451
20
-1.20889
11
5.20446
21
-1.20908
0
LINE
8
BLACK
6
CONTINUOUS
10
5.20446
20
-1.20908
11
5.20441
21
-1.20927
0
LINE
8
BLACK
6
CONTINUOUS
10
5.20441
20
-1.20927
11
5.20434
21
-1.20946
0
LINE
8
BLACK
6
CONTINUOUS
10
5.20434
20
-1.20946
11
5.20425
21
-1.20965
0
LINE
8
BLACK
6
CONTINUOUS
10
5.20425
20
-1.20965
11
5.20416
21
-1.20982
0
LINE
8
BLACK
6
CONTINUOUS
10
5.20416
20
-1.20982
11
5.20405
21
-1.20999
0
LINE
8
BLACK
6
CONTINUOUS
10
5.20405
20
-1.20999
11
5.20393
21
-1.21016
0
LINE
8
BLACK
6
CONTINUOUS
10
5.20393
20
-1.21016
11
5.20381
21
-1.21031
0
LINE
8
BLACK
6
CONTINUOUS
10
5.20381
20
-1.21031
11
5.20367
21
-1.21046
0
LINE
8
BLACK
6
CONTINUOUS
10
5.20367
20
-1.21046
11
5.20352
21
-1.21059
0
LINE
8
BLACK
6
CONTINUOUS
10
5.20352
20
-1.21059
11
5.20336
21
-1.21072
0
LINE
8
BLACK
6
CONTINUOUS
10
5.20336
20
-1.21072
11
5.2032
21
-1.21083
0
LINE
8
BLACK
6
CONTINUOUS
10
5.2032
20
-1.21083
11
5.20302
21
-1.21093
0
LINE
8
BLACK
6
CONTINUOUS
10
5.20302
20
-1.21093
11
5.20284
21
-1.21102
0
LINE
8
BLACK
6
CONTINUOUS
10
5.20284
20
-1.21102
11
5.20266
21
-1.2111
0
LINE
8
BLACK
6
CONTINUOUS
10
5.20266
20
-1.2111
11
5.20247
21
-1.21117
0
LINE
8
BLACK
6
CONTINUOUS
10
5.20247
20
-1.21117
11
5.20227
21
-1.21122
0
LINE
8
BLACK
6
CONTINUOUS
10
5.20227
20
-1.21122
11
5.20208
21
-1.21126
0
LINE
8
BLACK
6
CONTINUOUS
10
5.20208
20
-1.21126
11
5.20188
21
-1.21128
0
LINE
8
BLACK
6
CONTINUOUS
10
5.20188
20
-1.21128
11
5.20168
21
-1.21129
0
LINE
8
BLACK
6
CONTINUOUS
10
5.20168
20
-1.21129
11
5.20148
21
-1.21129
0
LINE
8
BLACK
6
CONTINUOUS
10
5.20148
20
-1.21129
11
5.20128
21
-1.21128
0
LINE
8
BLACK
6
CONTINUOUS
10
5.20128
20
-1.21128
11
5.20108
21
-1.21125
0
LINE
8
BLACK
6
CONTINUOUS
10
5.20108
20
-1.21125
11
5.20088
21
-1.2112
0
LINE
8
BLACK
6
CONTINUOUS
10
5.20088
20
-1.2112
11
5.20069
21
-1.21115
0
LINE
8
BLACK
6
CONTINUOUS
10
5.20069
20
-1.21115
11
5.12585
21
-1.18669
0
LINE
8
BLACK
6
CONTINUOUS
10
5.12585
20
-1.18669
11
5.03849
21
-1.16418
0
LINE
8
BLACK
6
CONTINUOUS
10
5.03849
20
-1.16418
11
4.9498
21
-1.14766
0
LINE
8
BLACK
6
CONTINUOUS
10
4.9498
20
-1.14766
11
4.86019
21
-1.13722
0
LINE
8
BLACK
6
CONTINUOUS
10
4.86019
20
-1.13722
11
4.77009
21
-1.13289
0
LINE
8
BLACK
6
CONTINUOUS
10
4.77009
20
-1.13289
11
4.67989
21
-1.1347
0
LINE
8
BLACK
6
CONTINUOUS
10
4.67989
20
-1.1347
11
4.59003
21
-1.14265
0
LINE
8
BLACK
6
CONTINUOUS
10
4.59003
20
-1.14265
11
4.50359
21
-1.15626
0
LINE
8
BLACK
6
CONTINUOUS
10
4.50359
20
-1.15626
11
4.50214
21
-1.20254
0
LINE
8
BLACK
6
CONTINUOUS
10
4.50214
20
-1.20254
11
4.50498
21
-1.27791
0
LINE
8
BLACK
6
CONTINUOUS
10
4.50498
20
-1.27791
11
4.51411
21
-1.35276
0
LINE
8
BLACK
6
CONTINUOUS
10
4.51411
20
-1.35276
11
4.52947
21
-1.42657
0
LINE
8
BLACK
6
CONTINUOUS
10
4.52947
20
-1.42657
11
4.55043
21
-1.49708
0
LINE
8
BLACK
6
CONTINUOUS
10
4.55043
20
-1.49708
11
4.55043
21
-1.49708
0
LINE
8
BLACK
6
CONTINUOUS
10
4.55043
20
-1.49708
11
4.55062
21
-1.49711
0
LINE
8
BLACK
6
CONTINUOUS
10
4.55062
20
-1.49711
11
4.55081
21
-1.49716
0
LINE
8
BLACK
6
CONTINUOUS
10
4.55081
20
-1.49716
11
4.55099
21
-1.49722
0
LINE
8
BLACK
6
CONTINUOUS
10
4.55099
20
-1.49722
11
4.55117
21
-1.49729
0
LINE
8
BLACK
6
CONTINUOUS
10
4.55117
20
-1.49729
11
4.55134
21
-1.49737
0
LINE
8
BLACK
6
CONTINUOUS
10
4.55134
20
-1.49737
11
4.55151
21
-1.49746
0
LINE
8
BLACK
6
CONTINUOUS
10
4.55151
20
-1.49746
11
4.55167
21
-1.49756
0
LINE
8
BLACK
6
CONTINUOUS
10
4.55167
20
-1.49756
11
4.55182
21
-1.49767
0
LINE
8
BLACK
6
CONTINUOUS
10
4.55182
20
-1.49767
11
4.55197
21
-1.4978
0
LINE
8
BLACK
6
CONTINUOUS
10
4.55197
20
-1.4978
11
4.5521
21
-1.49793
0
LINE
8
BLACK
6
CONTINUOUS
10
4.5521
20
-1.49793
11
4.61778
21
-1.56465
0
LINE
8
BLACK
6
CONTINUOUS
10
4.61778
20
-1.56465
11
4.61778
21
-1.56465
0
LINE
8
BLACK
6
CONTINUOUS
10
4.61778
20
-1.56465
11
4.61778
21
-1.56465
0
LINE
8
BLACK
6
CONTINUOUS
10
4.61778
20
-1.56465
11
4.61786
21
-1.56474
0
LINE
8
BLACK
6
CONTINUOUS
10
4.61786
20
-1.56474
11
4.61789
21
-1.56476
0
LINE
8
BLACK
6
CONTINUOUS
10
4.61789
20
-1.56476
11
4.61791
21
-1.56479
0
LINE
8
BLACK
6
CONTINUOUS
10
4.61791
20
-1.56479
11
4.67914
21
-1.63561
0
LINE
8
BLACK
6
CONTINUOUS
10
4.67914
20
-1.63561
11
4.67921
21
-1.6357
0
LINE
8
BLACK
6
CONTINUOUS
10
4.67921
20
-1.6357
11
4.67922
21
-1.6357
0
LINE
8
BLACK
6
CONTINUOUS
10
4.67922
20
-1.6357
11
4.69404
21
-1.65434
0
LINE
8
BLACK
6
CONTINUOUS
10
4.69404
20
-1.65434
11
4.87467
21
-1.64706
0
LINE
8
BLACK
6
CONTINUOUS
10
4.87467
20
-1.64706
11
4.87476
21
-1.64704
0
LINE
8
BLACK
6
CONTINUOUS
10
4.87476
20
-1.64704
11
4.87496
21
-1.64705
0
LINE
8
BLACK
6
CONTINUOUS
10
4.87496
20
-1.64705
11
4.87503
21
-1.64704
0
LINE
8
BLACK
6
CONTINUOUS
10
4.87503
20
-1.64704
11
4.87511
21
-1.64705
0
LINE
8
BLACK
6
CONTINUOUS
10
4.87511
20
-1.64705
11
4.87534
21
-1.64705
0
LINE
8
BLACK
6
CONTINUOUS
10
4.87534
20
-1.64705
11
4.8754
21
-1.64707
0
LINE
8
BLACK
6
CONTINUOUS
10
4.8754
20
-1.64707
11
4.87546
21
-1.64707
0
LINE
8
BLACK
6
CONTINUOUS
10
4.87546
20
-1.64707
11
4.87568
21
-1.64713
0
LINE
8
BLACK
6
CONTINUOUS
10
4.87568
20
-1.64713
11
4.87591
21
-1.64718
0
LINE
8
BLACK
6
CONTINUOUS
10
4.87591
20
-1.64718
11
4.87596
21
-1.6472
0
LINE
8
BLACK
6
CONTINUOUS
10
4.87596
20
-1.6472
11
4.87602
21
-1.64722
0
LINE
8
BLACK
6
CONTINUOUS
10
4.87602
20
-1.64722
11
4.87623
21
-1.64731
0
LINE
8
BLACK
6
CONTINUOUS
10
4.87623
20
-1.64731
11
4.87644
21
-1.64741
0
LINE
8
BLACK
6
CONTINUOUS
10
4.87644
20
-1.64741
11
4.87649
21
-1.64744
0
LINE
8
BLACK
6
CONTINUOUS
10
4.87649
20
-1.64744
11
4.87655
21
-1.64747
0
LINE
8
BLACK
6
CONTINUOUS
10
4.87655
20
-1.64747
11
4.87673
21
-1.64761
0
LINE
8
BLACK
6
CONTINUOUS
10
4.87673
20
-1.64761
11
4.87692
21
-1.64774
0
LINE
8
BLACK
6
CONTINUOUS
10
4.87692
20
-1.64774
11
4.87696
21
-1.64778
0
LINE
8
BLACK
6
CONTINUOUS
10
4.87696
20
-1.64778
11
4.87701
21
-1.64782
0
LINE
8
BLACK
6
CONTINUOUS
10
4.87701
20
-1.64782
11
4.87716
21
-1.64799
0
LINE
8
BLACK
6
CONTINUOUS
10
4.87716
20
-1.64799
11
4.87732
21
-1.64816
0
LINE
8
BLACK
6
CONTINUOUS
10
4.87732
20
-1.64816
11
4.87736
21
-1.64821
0
LINE
8
BLACK
6
CONTINUOUS
10
4.87736
20
-1.64821
11
4.8774
21
-1.64825
0
LINE
8
BLACK
6
CONTINUOUS
10
4.8774
20
-1.64825
11
4.87751
21
-1.64845
0
LINE
8
BLACK
6
CONTINUOUS
10
4.87751
20
-1.64845
11
4.87764
21
-1.64864
0
LINE
8
BLACK
6
CONTINUOUS
10
4.87764
20
-1.64864
11
4.87766
21
-1.6487
0
LINE
8
BLACK
6
CONTINUOUS
10
4.87766
20
-1.6487
11
4.87769
21
-1.64876
0
LINE
8
BLACK
6
CONTINUOUS
10
4.87769
20
-1.64876
11
4.87777
21
-1.64897
0
LINE
8
BLACK
6
CONTINUOUS
10
4.87777
20
-1.64897
11
4.87785
21
-1.64918
0
LINE
8
BLACK
6
CONTINUOUS
10
4.87785
20
-1.64918
11
4.87786
21
-1.64925
0
LINE
8
BLACK
6
CONTINUOUS
10
4.87786
20
-1.64925
11
4.87788
21
-1.6493
0
LINE
8
BLACK
6
CONTINUOUS
10
4.87788
20
-1.6493
11
4.87792
21
-1.64953
0
LINE
8
BLACK
6
CONTINUOUS
10
4.87792
20
-1.64953
11
4.87796
21
-1.64976
0
LINE
8
BLACK
6
CONTINUOUS
10
4.87796
20
-1.64976
11
4.87796
21
-1.64982
0
LINE
8
BLACK
6
CONTINUOUS
10
4.87796
20
-1.64982
11
4.87796
21
-1.64988
0
LINE
8
BLACK
6
CONTINUOUS
10
4.87796
20
-1.64988
11
4.87795
21
-1.65011
0
LINE
8
BLACK
6
CONTINUOUS
10
4.87795
20
-1.65011
11
4.87795
21
-1.65034
0
LINE
8
BLACK
6
CONTINUOUS
10
4.87795
20
-1.65034
11
4.87793
21
-1.6504
0
LINE
8
BLACK
6
CONTINUOUS
10
4.87793
20
-1.6504
11
4.87793
21
-1.65046
0
LINE
8
BLACK
6
CONTINUOUS
10
4.87793
20
-1.65046
11
4.87787
21
-1.65068
0
LINE
8
BLACK
6
CONTINUOUS
10
4.87787
20
-1.65068
11
4.87782
21
-1.65091
0
LINE
8
BLACK
6
CONTINUOUS
10
4.87782
20
-1.65091
11
4.8778
21
-1.65096
0
LINE
8
BLACK
6
CONTINUOUS
10
4.8778
20
-1.65096
11
4.87778
21
-1.65102
0
LINE
8
BLACK
6
CONTINUOUS
10
4.87778
20
-1.65102
11
4.87768
21
-1.65123
0
LINE
8
BLACK
6
CONTINUOUS
10
4.87768
20
-1.65123
11
4.87759
21
-1.65144
0
LINE
8
BLACK
6
CONTINUOUS
10
4.87759
20
-1.65144
11
4.87756
21
-1.65149
0
LINE
8
BLACK
6
CONTINUOUS
10
4.87756
20
-1.65149
11
4.87753
21
-1.65155
0
LINE
8
BLACK
6
CONTINUOUS
10
4.87753
20
-1.65155
11
4.87739
21
-1.65173
0
LINE
8
BLACK
6
CONTINUOUS
10
4.87739
20
-1.65173
11
4.87726
21
-1.65192
0
LINE
8
BLACK
6
CONTINUOUS
10
4.87726
20
-1.65192
11
4.87722
21
-1.65196
0
LINE
8
BLACK
6
CONTINUOUS
10
4.87722
20
-1.65196
11
4.87718
21
-1.65201
0
LINE
8
BLACK
6
CONTINUOUS
10
4.87718
20
-1.65201
11
4.87701
21
-1.65216
0
LINE
8
BLACK
6
CONTINUOUS
10
4.87701
20
-1.65216
11
4.87684
21
-1.65232
0
LINE
8
BLACK
6
CONTINUOUS
10
4.87684
20
-1.65232
11
4.87679
21
-1.65236
0
LINE
8
BLACK
6
CONTINUOUS
10
4.87679
20
-1.65236
11
4.87675
21
-1.6524
0
LINE
8
BLACK
6
CONTINUOUS
10
4.87675
20
-1.6524
11
4.87655
21
-1.65251
0
LINE
8
BLACK
6
CONTINUOUS
10
4.87655
20
-1.65251
11
4.87636
21
-1.65264
0
LINE
8
BLACK
6
CONTINUOUS
10
4.87636
20
-1.65264
11
4.8763
21
-1.65266
0
LINE
8
BLACK
6
CONTINUOUS
10
4.8763
20
-1.65266
11
4.87624
21
-1.65269
0
LINE
8
BLACK
6
CONTINUOUS
10
4.87624
20
-1.65269
11
4.87603
21
-1.65277
0
LINE
8
BLACK
6
CONTINUOUS
10
4.87603
20
-1.65277
11
4.87595
21
-1.6528
0
LINE
8
BLACK
6
CONTINUOUS
10
4.87595
20
-1.6528
11
4.87589
21
-1.65282
0
LINE
8
BLACK
6
CONTINUOUS
10
4.87589
20
-1.65282
11
4.8757
21
-1.65288
0
LINE
8
BLACK
6
CONTINUOUS
10
4.8757
20
-1.65288
11
4.87561
21
-1.6529
0
LINE
8
BLACK
6
CONTINUOUS
10
4.87561
20
-1.6529
11
4.70429
21
-1.70184
0
LINE
8
BLACK
6
CONTINUOUS
10
4.70429
20
-1.70184
11
4.72787
21
-1.747
0
LINE
8
BLACK
6
CONTINUOUS
10
4.72787
20
-1.747
11
4.77749
21
-1.8317
0
LINE
8
BLACK
6
CONTINUOUS
10
4.77749
20
-1.8317
11
4.83176
21
-1.91227
0
LINE
8
BLACK
6
CONTINUOUS
10
4.83176
20
-1.91227
11
4.88764
21
-1.93887
0
LINE
8
BLACK
6
CONTINUOUS
10
4.88764
20
-1.93887
11
4.96258
21
-1.96834
0
LINE
8
BLACK
6
CONTINUOUS
10
4.96258
20
-1.96834
11
5.0396
21
-1.99183
0
LINE
8
BLACK
6
CONTINUOUS
10
5.0396
20
-1.99183
11
5.11822
21
-2.0092
0
LINE
8
BLACK
6
CONTINUOUS
10
5.11822
20
-2.0092
11
5.19721
21
-2.02025
0
LINE
8
BLACK
6
CONTINUOUS
10
5.19721
20
-2.02025
11
5.29848
21
-1.97245
0
LINE
8
BLACK
6
CONTINUOUS
10
5.29848
20
-1.97245
11
5.29848
21
-1.97245
0
LINE
8
BLACK
6
CONTINUOUS
10
5.29848
20
-1.97245
11
5.29864
21
-1.97238
0
LINE
8
BLACK
6
CONTINUOUS
10
5.29864
20
-1.97238
11
5.29887
21
-1.97227
0
LINE
8
BLACK
6
CONTINUOUS
10
5.29887
20
-1.97227
11
5.29887
21
-1.97227
0
LINE
8
BLACK
6
CONTINUOUS
10
5.29887
20
-1.97227
11
5.299
21
-1.97221
0
LINE
8
BLACK
6
CONTINUOUS
10
5.299
20
-1.97221
11
5.29914
21
-1.97217
0
LINE
8
BLACK
6
CONTINUOUS
10
5.29914
20
-1.97217
11
5.29928
21
-1.97212
0
LINE
8
BLACK
6
CONTINUOUS
10
5.29928
20
-1.97212
11
5.29943
21
-1.9721
0
LINE
8
BLACK
6
CONTINUOUS
10
5.29943
20
-1.9721
11
5.29957
21
-1.97206
0
LINE
8
BLACK
6
CONTINUOUS
10
5.29957
20
-1.97206
11
5.29971
21
-1.97206
0
LINE
8
BLACK
6
CONTINUOUS
10
5.29971
20
-1.97206
11
5.29986
21
-1.97204
0
LINE
8
BLACK
6
CONTINUOUS
10
5.29986
20
-1.97204
11
5.3
21
-1.97204
0
LINE
8
BLACK
6
CONTINUOUS
10
5.3
20
-1.97204
11
5.30015
21
-1.97204
0
LINE
8
BLACK
6
CONTINUOUS
10
5.30015
20
-1.97204
11
5.30029
21
-1.97206
0
LINE
8
BLACK
6
CONTINUOUS
10
5.30029
20
-1.97206
11
5.30044
21
-1.97207
0
LINE
8
BLACK
6
CONTINUOUS
10
5.30044
20
-1.97207
11
5.30058
21
-1.9721
0
LINE
8
BLACK
6
CONTINUOUS
10
5.30058
20
-1.9721
11
5.30072
21
-1.97212
0
LINE
8
BLACK
6
CONTINUOUS
10
5.30072
20
-1.97212
11
5.30086
21
-1.97217
0
LINE
8
BLACK
6
CONTINUOUS
10
5.30086
20
-1.97217
11
5.301
21
-1.97221
0
LINE
8
BLACK
6
CONTINUOUS
10
5.301
20
-1.97221
11
5.30113
21
-1.97227
0
LINE
8
BLACK
6
CONTINUOUS
10
5.30113
20
-1.97227
11
5.30114
21
-1.97227
0
LINE
8
BLACK
6
CONTINUOUS
10
5.30114
20
-1.97227
11
5.30127
21
-1.97233
0
LINE
8
BLACK
6
CONTINUOUS
10
5.30127
20
-1.97233
11
5.30153
21
-1.97246
0
LINE
8
BLACK
6
CONTINUOUS
10
5.30153
20
-1.97246
11
5.30153
21
-1.97246
0
LINE
8
BLACK
6
CONTINUOUS
10
5.30153
20
-1.97246
11
5.40256
21
-2.02041
0
LINE
8
BLACK
6
CONTINUOUS
10
5.40256
20
-2.02041
11
5.46388
21
-2.0124
0
LINE
8
BLACK
6
CONTINUOUS
10
5.46388
20
-2.0124
11
5.54282
21
-1.99642
0
LINE
8
BLACK
6
CONTINUOUS
10
5.54282
20
-1.99642
11
5.62025
21
-1.97429
0
LINE
8
BLACK
6
CONTINUOUS
10
5.62025
20
-1.97429
11
5.69571
21
-1.94616
0
LINE
8
BLACK
6
CONTINUOUS
10
5.69571
20
-1.94616
11
5.7681
21
-1.91249
0
LINE
8
BLACK
6
CONTINUOUS
10
5.7681
20
-1.91249
11
5.79876
21
-1.86832
0
LINE
8
BLACK
6
CONTINUOUS
10
5.79876
20
-1.86832
11
5.85073
21
-1.78504
0
LINE
8
BLACK
6
CONTINUOUS
10
5.85073
20
-1.78504
11
5.89573
21
-1.70169
0
LINE
8
BLACK
6
CONTINUOUS
10
5.89573
20
-1.70169
11
5.74932
21
-1.65289
0
LINE
8
BLACK
6
CONTINUOUS
10
5.74932
20
-1.65289
11
5.7493
21
-1.65288
0
LINE
8
BLACK
6
CONTINUOUS
10
5.7493
20
-1.65288
11
5.74905
21
-1.6528
0
LINE
8
BLACK
6
CONTINUOUS
10
5.74905
20
-1.6528
11
5.74893
21
-1.65276
0
LINE
8
BLACK
6
CONTINUOUS
10
5.74893
20
-1.65276
11
5.74891
21
-1.65275
0
LINE
8
BLACK
6
CONTINUOUS
10
5.74891
20
-1.65275
11
5.74876
21
-1.65269
0
LINE
8
BLACK
6
CONTINUOUS
10
5.74876
20
-1.65269
11
5.74865
21
-1.65263
0
LINE
8
BLACK
6
CONTINUOUS
10
5.74865
20
-1.65263
11
5.74853
21
-1.65258
0
LINE
8
BLACK
6
CONTINUOUS
10
5.74853
20
-1.65258
11
5.7484
21
-1.65248
0
LINE
8
BLACK
6
CONTINUOUS
10
5.7484
20
-1.65248
11
5.74825
21
-1.6524
0
LINE
8
BLACK
6
CONTINUOUS
10
5.74825
20
-1.6524
11
5.74816
21
-1.65231
0
LINE
8
BLACK
6
CONTINUOUS
10
5.74816
20
-1.65231
11
5.74806
21
-1.65224
0
LINE
8
BLACK
6
CONTINUOUS
10
5.74806
20
-1.65224
11
5.74794
21
-1.65212
0
LINE
8
BLACK
6
CONTINUOUS
10
5.74794
20
-1.65212
11
5.74782
21
-1.65201
0
LINE
8
BLACK
6
CONTINUOUS
10
5.74782
20
-1.65201
11
5.74774
21
-1.65191
0
LINE
8
BLACK
6
CONTINUOUS
10
5.74774
20
-1.65191
11
5.74766
21
-1.65182
0
LINE
8
BLACK
6
CONTINUOUS
10
5.74766
20
-1.65182
11
5.74757
21
-1.65168
0
LINE
8
BLACK
6
CONTINUOUS
10
5.74757
20
-1.65168
11
5.74747
21
-1.65155
0
LINE
8
BLACK
6
CONTINUOUS
10
5.74747
20
-1.65155
11
5.74741
21
-1.65143
0
LINE
8
BLACK
6
CONTINUOUS
10
5.74741
20
-1.65143
11
5.74735
21
-1.65133
0
LINE
8
BLACK
6
CONTINUOUS
10
5.74735
20
-1.65133
11
5.74729
21
-1.65117
0
LINE
8
BLACK
6
CONTINUOUS
10
5.74729
20
-1.65117
11
5.74722
21
-1.65102
0
LINE
8
BLACK
6
CONTINUOUS
10
5.74722
20
-1.65102
11
5.74718
21
-1.6509
0
LINE
8
BLACK
6
CONTINUOUS
10
5.74718
20
-1.6509
11
5.74714
21
-1.65078
0
LINE
8
BLACK
6
CONTINUOUS
10
5.74714
20
-1.65078
11
5.74711
21
-1.65062
0
LINE
8
BLACK
6
CONTINUOUS
10
5.74711
20
-1.65062
11
5.74707
21
-1.65046
0
LINE
8
BLACK
6
CONTINUOUS
10
5.74707
20
-1.65046
11
5.74706
21
-1.65034
0
LINE
8
BLACK
6
CONTINUOUS
10
5.74706
20
-1.65034
11
5.74704
21
-1.65021
0
LINE
8
BLACK
6
CONTINUOUS
10
5.74704
20
-1.65021
11
5.74704
21
-1.65005
0
LINE
8
BLACK
6
CONTINUOUS
10
5.74704
20
-1.65005
11
5.74704
21
-1.64988
0
LINE
8
BLACK
6
CONTINUOUS
10
5.74704
20
-1.64988
11
5.74705
21
-1.64976
0
LINE
8
BLACK
6
CONTINUOUS
10
5.74705
20
-1.64976
11
5.74706
21
-1.64963
0
LINE
8
BLACK
6
CONTINUOUS
10
5.74706
20
-1.64963
11
5.74709
21
-1.64947
0
LINE
8
BLACK
6
CONTINUOUS
10
5.74709
20
-1.64947
11
5.74712
21
-1.6493
0
LINE
8
BLACK
6
CONTINUOUS
10
5.74712
20
-1.6493
11
5.74716
21
-1.64918
0
LINE
8
BLACK
6
CONTINUOUS
10
5.74716
20
-1.64918
11
5.74719
21
-1.64906
0
LINE
8
BLACK
6
CONTINUOUS
10
5.74719
20
-1.64906
11
5.74725
21
-1.64891
0
LINE
8
BLACK
6
CONTINUOUS
10
5.74725
20
-1.64891
11
5.74731
21
-1.64876
0
LINE
8
BLACK
6
CONTINUOUS
10
5.74731
20
-1.64876
11
5.74737
21
-1.64865
0
LINE
8
BLACK
6
CONTINUOUS
10
5.74737
20
-1.64865
11
5.74742
21
-1.64853
0
LINE
8
BLACK
6
CONTINUOUS
10
5.74742
20
-1.64853
11
5.74752
21
-1.6484
0
LINE
8
BLACK
6
CONTINUOUS
10
5.74752
20
-1.6484
11
5.7476
21
-1.64825
0
LINE
8
BLACK
6
CONTINUOUS
10
5.7476
20
-1.64825
11
5.74769
21
-1.64816
0
LINE
8
BLACK
6
CONTINUOUS
10
5.74769
20
-1.64816
11
5.74776
21
-1.64806
0
LINE
8
BLACK
6
CONTINUOUS
10
5.74776
20
-1.64806
11
5.74788
21
-1.64794
0
LINE
8
BLACK
6
CONTINUOUS
10
5.74788
20
-1.64794
11
5.74799
21
-1.64782
0
LINE
8
BLACK
6
CONTINUOUS
10
5.74799
20
-1.64782
11
5.74809
21
-1.64774
0
LINE
8
BLACK
6
CONTINUOUS
10
5.74809
20
-1.64774
11
5.74818
21
-1.64766
0
LINE
8
BLACK
6
CONTINUOUS
10
5.74818
20
-1.64766
11
5.74832
21
-1.64757
0
LINE
8
BLACK
6
CONTINUOUS
10
5.74832
20
-1.64757
11
5.74845
21
-1.64747
0
LINE
8
BLACK
6
CONTINUOUS
10
5.74845
20
-1.64747
11
5.74857
21
-1.64741
0
LINE
8
BLACK
6
CONTINUOUS
10
5.74857
20
-1.64741
11
5.74867
21
-1.64735
0
LINE
8
BLACK
6
CONTINUOUS
10
5.74867
20
-1.64735
11
5.74883
21
-1.64729
0
LINE
8
BLACK
6
CONTINUOUS
10
5.74883
20
-1.64729
11
5.74898
21
-1.64722
0
LINE
8
BLACK
6
CONTINUOUS
10
5.74898
20
-1.64722
11
5.7491
21
-1.64718
0
LINE
8
BLACK
6
CONTINUOUS
10
5.7491
20
-1.64718
11
5.74922
21
-1.64714
0
LINE
8
BLACK
6
CONTINUOUS
10
5.74922
20
-1.64714
11
5.74938
21
-1.64711
0
LINE
8
BLACK
6
CONTINUOUS
10
5.74938
20
-1.64711
11
5.74954
21
-1.64707
0
LINE
8
BLACK
6
CONTINUOUS
10
5.74954
20
-1.64707
11
5.74966
21
-1.64706
0
LINE
8
BLACK
6
CONTINUOUS
10
5.74966
20
-1.64706
11
5.74979
21
-1.64704
0
LINE
8
BLACK
6
CONTINUOUS
10
5.74979
20
-1.64704
11
5.74995
21
-1.64704
0
LINE
8
BLACK
6
CONTINUOUS
10
5.74995
20
-1.64704
11
5.74997
21
-1.64704
0
LINE
8
BLACK
6
CONTINUOUS
10
5.74997
20
-1.64704
11
5.7501
21
-1.64705
0
LINE
8
BLACK
6
CONTINUOUS
10
5.7501
20
-1.64705
11
5.75037
21
-1.64706
0
LINE
8
BLACK
6
CONTINUOUS
10
5.75037
20
-1.64706
11
5.75039
21
-1.64706
0
LINE
8
BLACK
6
CONTINUOUS
10
5.75039
20
-1.64706
11
5.90683
21
-1.65335
0
LINE
8
BLACK
6
CONTINUOUS
10
5.90683
20
-1.65335
11
5.96506
21
-1.58358
0
LINE
8
BLACK
6
CONTINUOUS
10
5.96506
20
-1.58358
11
5.96506
21
-1.58358
0
LINE
8
BLACK
6
CONTINUOUS
10
5.96506
20
-1.58358
11
5.96506
21
-1.58358
0
LINE
8
BLACK
6
CONTINUOUS
10
5.96506
20
-1.58358
11
5.96514
21
-1.58348
0
LINE
8
BLACK
6
CONTINUOUS
10
5.96514
20
-1.58348
11
5.96516
21
-1.58346
0
LINE
8
BLACK
6
CONTINUOUS
10
5.96516
20
-1.58346
11
5.96519
21
-1.58343
0
LINE
8
BLACK
6
CONTINUOUS
10
5.96519
20
-1.58343
11
6.02969
21
-1.51558
0
LINE
8
BLACK
6
CONTINUOUS
10
6.02969
20
-1.51558
11
6.02977
21
-1.5155
0
LINE
8
BLACK
6
CONTINUOUS
10
6.02977
20
-1.5155
11
6.02977
21
-1.51549
0
LINE
8
BLACK
6
CONTINUOUS
10
6.02977
20
-1.51549
11
6.04795
21
-1.49788
0
LINE
8
BLACK
6
CONTINUOUS
10
6.04795
20
-1.49788
11
6.04804
21
-1.4978
0
LINE
8
BLACK
6
CONTINUOUS
10
6.04804
20
-1.4978
11
6.04818
21
-1.49767
0
LINE
8
BLACK
6
CONTINUOUS
10
6.04818
20
-1.49767
11
6.04834
21
-1.49756
0
LINE
8
BLACK
6
CONTINUOUS
10
6.04834
20
-1.49756
11
6.0485
21
-1.49746
0
LINE
8
BLACK
6
CONTINUOUS
10
6.0485
20
-1.49746
11
6.04866
21
-1.49737
0
LINE
8
BLACK
6
CONTINUOUS
10
6.04866
20
-1.49737
11
6.04884
21
-1.49729
0
LINE
8
BLACK
6
CONTINUOUS
10
6.04884
20
-1.49729
11
6.04901
21
-1.49722
0
LINE
8
BLACK
6
CONTINUOUS
10
6.04901
20
-1.49722
11
6.0492
21
-1.49716
0
LINE
8
BLACK
6
CONTINUOUS
10
6.0492
20
-1.49716
11
6.04938
21
-1.49711
0
LINE
8
BLACK
6
CONTINUOUS
10
6.04938
20
-1.49711
11
6.04957
21
-1.49708
0
LINE
8
BLACK
6
CONTINUOUS
10
6.04957
20
-1.49708
11
6.04976
21
-1.49706
0
LINE
8
BLACK
6
CONTINUOUS
10
6.04976
20
-1.49706
11
6.04995
21
-1.49705
0
LINE
8
BLACK
6
CONTINUOUS
10
6.04995
20
-1.49705
11
6.05014
21
-1.49705
0
LINE
8
BLACK
6
CONTINUOUS
10
6.05014
20
-1.49705
11
6.05033
21
-1.49707
0
LINE
8
BLACK
6
CONTINUOUS
10
6.05033
20
-1.49707
11
6.05052
21
-1.49709
0
LINE
8
BLACK
6
CONTINUOUS
10
6.05052
20
-1.49709
11
6.0507
21
-1.49713
0
LINE
8
BLACK
6
CONTINUOUS
10
6.0507
20
-1.49713
11
6.05089
21
-1.49718
0
LINE
8
BLACK
6
CONTINUOUS
10
6.05089
20
-1.49718
11
6.05106
21
-1.49725
0
LINE
8
BLACK
6
CONTINUOUS
10
6.05106
20
-1.49725
11
6.06636
21
-1.44793
0
LINE
8
BLACK
6
CONTINUOUS
10
6.06636
20
-1.44793
11
6.08338
21
-1.37471
0
LINE
8
BLACK
6
CONTINUOUS
10
6.08338
20
-1.37471
11
6.09421
21
-1.30034
0
LINE
8
BLACK
6
CONTINUOUS
10
6.09421
20
-1.30034
11
6.09878
21
-1.22532
0
LINE
8
BLACK
6
CONTINUOUS
10
6.09878
20
-1.22532
11
6.0971
21
-1.15252
0
LINE
8
BLACK
6
CONTINUOUS
10
6.0971
20
-1.15252
11
6.01402
21
-1.13882
0
LINE
8
BLACK
6
CONTINUOUS
10
6.01402
20
-1.13882
11
5.92565
21
-1.13045
0
LINE
8
BLACK
6
CONTINUOUS
10
5.92565
20
-1.13045
11
5.8369
21
-1.12827
0
LINE
8
BLACK
6
CONTINUOUS
10
5.8369
20
-1.12827
11
5.74822
21
-1.13228
0
LINE
8
BLACK
6
CONTINUOUS
10
5.74822
20
-1.13228
11
5.66004
21
-1.14247
0
LINE
8
BLACK
6
CONTINUOUS
10
5.66004
20
-1.14247
11
5.57278
21
-1.15878
0
LINE
8
BLACK
6
CONTINUOUS
10
5.57278
20
-1.15878
11
5.48687
21
-1.18114
0
LINE
8
BLACK
6
CONTINUOUS
10
5.48687
20
-1.18114
11
5.40264
21
-1.20947
0
LINE
8
BLACK
6
CONTINUOUS
10
5.40264
20
-1.20947
11
5.40244
21
-1.20953
0
LINE
8
BLACK
6
CONTINUOUS
10
5.40244
20
-1.20953
11
5.40224
21
-1.20958
0
LINE
8
BLACK
6
CONTINUOUS
10
5.40224
20
-1.20958
11
5.40203
21
-1.20961
0
LINE
8
BLACK
6
CONTINUOUS
10
5.40203
20
-1.20961
11
5.40183
21
-1.20963
0
LINE
8
BLACK
6
CONTINUOUS
10
5.40183
20
-1.20963
11
5.40162
21
-1.20963
0
LINE
8
BLACK
6
CONTINUOUS
10
5.40162
20
-1.20963
11
5.40142
21
-1.20962
0
LINE
8
BLACK
6
CONTINUOUS
10
5.40142
20
-1.20962
11
5.40121
21
-1.20959
0
LINE
8
BLACK
6
CONTINUOUS
10
5.40121
20
-1.20959
11
5.40101
21
-1.20955
0
LINE
8
BLACK
6
CONTINUOUS
10
5.40101
20
-1.20955
11
5.40081
21
-1.20949
0
LINE
8
BLACK
6
CONTINUOUS
10
5.40081
20
-1.20949
11
5.40062
21
-1.20942
0
LINE
8
BLACK
6
CONTINUOUS
10
5.40062
20
-1.20942
11
5.40043
21
-1.20934
0
LINE
8
BLACK
6
CONTINUOUS
10
5.40043
20
-1.20934
11
5.40025
21
-1.20925
0
LINE
8
BLACK
6
CONTINUOUS
10
5.40025
20
-1.20925
11
5.40007
21
-1.20914
0
LINE
8
BLACK
6
CONTINUOUS
10
5.40007
20
-1.20914
11
5.3999
21
-1.20902
0
LINE
8
BLACK
6
CONTINUOUS
10
5.3999
20
-1.20902
11
5.39974
21
-1.20889
0
LINE
8
BLACK
6
CONTINUOUS
10
5.39974
20
-1.20889
11
5.39959
21
-1.20875
0
LINE
8
BLACK
6
CONTINUOUS
10
5.39959
20
-1.20875
11
5.39945
21
-1.2086
0
LINE
8
BLACK
6
CONTINUOUS
10
5.39945
20
-1.2086
11
5.39932
21
-1.20844
0
LINE
8
BLACK
6
CONTINUOUS
10
5.39932
20
-1.20844
11
5.39921
21
-1.20827
0
LINE
8
BLACK
6
CONTINUOUS
10
5.39921
20
-1.20827
11
5.3991
21
-1.20809
0
LINE
8
BLACK
6
CONTINUOUS
10
5.3991
20
-1.20809
11
5.39901
21
-1.2079
0
LINE
8
BLACK
6
CONTINUOUS
10
5.39901
20
-1.2079
11
5.39893
21
-1.20771
0
LINE
8
BLACK
6
CONTINUOUS
10
5.39893
20
-1.20771
11
5.39887
21
-1.20752
0
LINE
8
BLACK
6
CONTINUOUS
10
5.39887
20
-1.20752
11
5.39881
21
-1.20732
0
LINE
8
BLACK
6
CONTINUOUS
10
5.39881
20
-1.20732
11
5.39878
21
-1.20712
0
LINE
8
BLACK
6
CONTINUOUS
10
5.39878
20
-1.20712
11
5.39875
21
-1.20691
0
LINE
8
BLACK
6
CONTINUOUS
10
5.39875
20
-1.20691
11
5.39874
21
-1.20671
0
LINE
8
BLACK
6
CONTINUOUS
10
5.39874
20
-1.20671
11
5.39875
21
-1.2065
0
LINE
8
BLACK
6
CONTINUOUS
10
5.39875
20
-1.2065
11
5.39877
21
-1.20629
0
LINE
8
BLACK
6
CONTINUOUS
10
5.39877
20
-1.20629
11
5.3988
21
-1.20609
0
LINE
8
BLACK
6
CONTINUOUS
10
5.3988
20
-1.20609
11
5.39885
21
-1.20589
0
LINE
8
BLACK
6
CONTINUOUS
10
5.39885
20
-1.20589
11
5.39891
21
-1.20569
0
LINE
8
BLACK
6
CONTINUOUS
10
5.39891
20
-1.20569
11
5.39899
21
-1.2055
0
LINE
8
BLACK
6
CONTINUOUS
10
5.39899
20
-1.2055
11
5.39907
21
-1.20532
0
LINE
8
BLACK
6
CONTINUOUS
10
5.39907
20
-1.20532
11
5.39917
21
-1.20514
0
LINE
8
BLACK
6
CONTINUOUS
10
5.39917
20
-1.20514
11
5.39929
21
-1.20496
0
LINE
8
BLACK
6
CONTINUOUS
10
5.39929
20
-1.20496
11
5.39941
21
-1.2048
0
LINE
8
BLACK
6
CONTINUOUS
10
5.39941
20
-1.2048
11
5.39955
21
-1.20465
0
LINE
8
BLACK
6
CONTINUOUS
10
5.39955
20
-1.20465
11
5.3997
21
-1.2045
0
LINE
8
BLACK
6
CONTINUOUS
10
5.3997
20
-1.2045
11
5.39985
21
-1.20437
0
LINE
8
BLACK
6
CONTINUOUS
10
5.39985
20
-1.20437
11
5.40002
21
-1.20425
0
LINE
8
BLACK
6
CONTINUOUS
10
5.40002
20
-1.20425
11
5.40018
21
-1.20414
0
LINE
8
BLACK
6
CONTINUOUS
10
5.40018
20
-1.20414
11
5.40863
21
-1.18439
0
LINE
8
BLACK
6
CONTINUOUS
10
5.40863
20
-1.18439
11
5.41324
21
-1.16264
0
LINE
8
BLACK
6
CONTINUOUS
10
5.41324
20
-1.16264
11
5.41354
21
-1.1404
0
LINE
8
BLACK
6
CONTINUOUS
10
5.41354
20
-1.1404
11
5.40951
21
-1.11853
0
LINE
8
BLACK
6
CONTINUOUS
10
5.40951
20
-1.11853
11
5.40132
21
-1.09786
0
LINE
8
BLACK
6
CONTINUOUS
10
5.40132
20
-1.09786
11
5.38926
21
-1.07917
0
LINE
8
BLACK
6
CONTINUOUS
10
5.38926
20
-1.07917
11
5.3738
21
-1.06318
0
LINE
8
BLACK
6
CONTINUOUS
10
5.3738
20
-1.06318
11
5.35553
21
-1.0505
0
LINE
8
BLACK
6
CONTINUOUS
10
5.35553
20
-1.0505
11
5.33515
21
-1.04161
0
LINE
8
BLACK
6
CONTINUOUS
10
5.33515
20
-1.04161
11
5.31343
21
-1.03685
0
LINE
8
BLACK
6
CONTINUOUS
10
5.31343
20
-1.03685
11
5.29119
21
-1.0364
0
LINE
8
BLACK
6
CONTINUOUS
10
5.29119
20
-1.0364
11
5.26929
21
-1.04027
  0
ENDSEC
  0
EOF
