<?xml version="1.0" standalone="no"?>
 <!DOCTYPE svg PUBLIC "-//W3C//DTD SVG 1.1//EN" 
 "http://www.w3.org/Graphics/SVG/1.1/DTD/svg11.dtd"> 
<svg xmlns="http://www.w3.org/2000/svg" version="1.1" 
    width="29.7002cm" height="21.0007cm" viewBox="0 0 116930 82680 ">
<title>SVG Picture created as ButterflyJewel-B_Cu.svg date 2020/02/10 12:20:28 </title>
  <desc>Picture generated by PCBNEW </desc>
<g style="fill:#000000; fill-opacity:1;stroke:#000000; stroke-opacity:1;
stroke-linecap:round; stroke-linejoin:round; "
 transform="translate(0 0) scale(1 1)">
</g>
<g style="fill:#000000; fill-opacity:0.0; 
stroke:#000000; stroke-width:-0.000393701; stroke-opacity:1; 
stroke-linecap:round; stroke-linejoin:round;">
<g >
</g>
<g >
</g>
<g >
</g>
<g style="fill:#000000; fill-opacity:0.0; 
stroke:#000000; stroke-width:-0.000393701; stroke-opacity:1; 
stroke-linecap:round; stroke-linejoin:round;">
</g>
<g style="fill:#000000; fill-opacity:0.0; 
stroke:#000000; stroke-width:0; stroke-opacity:1; 
stroke-linecap:round; stroke-linejoin:round;">
</g>
<g style="fill:#000000; fill-opacity:1.0; 
stroke:#000000; stroke-width:0; stroke-opacity:1; 
stroke-linecap:round; stroke-linejoin:round;">
<path style="fill:#000000; fill-opacity:1.0; 
stroke:#000000; stroke-width:0; stroke-opacity:1; 
stroke-linecap:round; stroke-linejoin:round;fill-rule:evenodd;"
d="M 59966.7,12735.1
59284.8,13128.8
58497.4,11764.9
59179.3,11371.2
Z" /> 
<path style="fill:#000000; fill-opacity:1.0; 
stroke:#000000; stroke-width:0; stroke-opacity:1; 
stroke-linecap:round; stroke-linejoin:round;fill-rule:evenodd;"
d="M 55504.8,13569.3
55543.2,13573.8
55580.9,13581.9
55617.7,13593.7
55653.2,13609.1
55686.9,13627.9
55718.7,13649.9
55748.2,13674.8
55775,13702.6
55799.1,13732.9
55820,13765.3
56213.7,14447.3
56231.3,14481.6
56245.5,14517.6
56256.2,14554.7
56263.1,14592.7
56266.2,14631.2
56265.6,14669.9
56261.2,14708.2
56253,14746
56241.2,14782.8
56225.8,14818.2
56207.1,14852
56185.1,14883.8
56160.1,14913.2
56132.3,14940.1
56102.1,14964.1
56069.6,14985.1
55387.7,15378.8
55353.3,15396.4
55317.4,15410.6
55280.2,15421.2
55242.2,15428.1
55203.7,15431.3
55165.1,15430.7
55126.7,15426.2
55088.9,15418.1
55052.2,15406.3
55016.7,15390.9
54982.9,15372.1
54951.2,15350.1
54921.7,15325.2
54894.8,15297.4
54870.8,15267.1
54849.9,15234.7
54456.2,14552.7
54438.5,14518.4
54424.3,14482.4
54413.7,14445.3
54406.8,14407.3
54403.6,14368.8
54404.3,14330.1
54408.7,14291.8
54416.8,14254
54428.7,14217.2
54444,14181.8
54462.8,14148
54484.8,14116.2
54509.8,14086.8
54537.5,14059.9
54567.8,14035.9
54600.3,14014.9
55282.2,13621.2
55316.6,13603.6
55352.5,13589.4
55389.6,13578.8
55427.7,13571.9
55466.2,13568.7
Z" /> 
</g>
<g >
</g>
<g style="fill:#000000; fill-opacity:1.0; 
stroke:#000000; stroke-width:0; stroke-opacity:1; 
stroke-linecap:round; stroke-linejoin:round;">
<circle cx="48500" cy="13250" r="1279.53" /> 
</g>
<g style="fill:#000000; fill-opacity:1.0; 
stroke:#000000; stroke-width:39.3701; stroke-opacity:1; 
stroke-linecap:round; stroke-linejoin:round;">
</g>
<g >
</g>
<g >
</g>
<g >
</g>
<g style="fill:#000000; fill-opacity:1.0; 
stroke:#000000; stroke-width:39.3701; stroke-opacity:1; 
stroke-linecap:round; stroke-linejoin:round;">
</g>
<g style="fill:#000000; fill-opacity:1.0; 
stroke:#000000; stroke-width:0; stroke-opacity:1; 
stroke-linecap:round; stroke-linejoin:round;">
<circle cx="57500" cy="13250" r="1279.53" /> 
</g>
<g style="fill:#000000; fill-opacity:1.0; 
stroke:#000000; stroke-width:39.3701; stroke-opacity:1; 
stroke-linecap:round; stroke-linejoin:round;">
</g>
<g >
</g>
<g style="fill:#000000; fill-opacity:1.0; 
stroke:#000000; stroke-width:39.3701; stroke-opacity:1; 
stroke-linecap:round; stroke-linejoin:round;">
</g>
<g style="fill:#000000; fill-opacity:1.0; 
stroke:#000000; stroke-width:0; stroke-opacity:1; 
stroke-linecap:round; stroke-linejoin:round;">
<circle cx="53000" cy="11500" r="629.921" /> 
</g>
<g style="fill:#000000; fill-opacity:1.0; 
stroke:#000000; stroke-width:39.3701; stroke-opacity:1; 
stroke-linecap:round; stroke-linejoin:round;">
</g>
<g >
</g>
<g style="fill:#000000; fill-opacity:1.0; 
stroke:#000000; stroke-width:39.3701; stroke-opacity:1; 
stroke-linecap:round; stroke-linejoin:round;">
</g>
<g style="fill:#000000; fill-opacity:1.0; 
stroke:#000000; stroke-width:0; stroke-opacity:1; 
stroke-linecap:round; stroke-linejoin:round;">
<path style="fill:#000000; fill-opacity:1.0; 
stroke:#000000; stroke-width:0; stroke-opacity:1; 
stroke-linecap:round; stroke-linejoin:round;fill-rule:evenodd;"
d="M 52212.6,18143.7
52212.6,17356.3
53787.4,17356.3
53787.4,18143.7
Z" /> 
<path style="fill:#000000; fill-opacity:1.0; 
stroke:#000000; stroke-width:0; stroke-opacity:1; 
stroke-linecap:round; stroke-linejoin:round;fill-rule:evenodd;"
d="M 53432.3,12464.5
53470.5,12470.2
53508,12479.6
53544.4,12492.6
53579.3,12509.1
53612.4,12528.9
53643.5,12552
53672.1,12577.9
53698,12606.5
53721.1,12637.6
53740.9,12670.7
53757.4,12705.6
53770.4,12742
53779.8,12779.5
53785.5,12817.7
53787.4,12856.3
53787.4,13643.7
53785.5,13682.3
53779.8,13720.5
53770.4,13758
53757.4,13794.4
53740.9,13829.3
53721.1,13862.4
53698,13893.5
53672.1,13922.1
53643.5,13948
53612.4,13971.1
53579.3,13990.9
53544.4,14007.4
53508,14020.4
53470.5,14029.8
53432.3,14035.5
53393.7,14037.4
52606.3,14037.4
52567.7,14035.5
52529.5,14029.8
52492,14020.4
52455.6,14007.4
52420.7,13990.9
52387.6,13971.1
52356.5,13948
52327.9,13922.1
52302,13893.5
52278.9,13862.4
52259.1,13829.3
52242.6,13794.4
52229.6,13758
52220.2,13720.5
52214.5,13682.3
52212.6,13643.7
52212.6,12856.3
52214.5,12817.7
52220.2,12779.5
52229.6,12742
52242.6,12705.6
52259.1,12670.7
52278.9,12637.6
52302,12606.5
52327.9,12577.9
52356.5,12552
52387.6,12528.9
52420.7,12509.1
52455.6,12492.6
52492,12479.6
52529.5,12470.2
52567.7,12464.5
52606.3,12462.6
53393.7,12462.6
Z" /> 
</g>
<g >
</g>
<g style="fill:#000000; fill-opacity:1.0; 
stroke:#000000; stroke-width:0; stroke-opacity:1; 
stroke-linecap:round; stroke-linejoin:round;">
<path style="fill:#000000; fill-opacity:1.0; 
stroke:#000000; stroke-width:0; stroke-opacity:1; 
stroke-linecap:round; stroke-linejoin:round;fill-rule:evenodd;"
d="M 46820.7,11371.2
47502.6,11764.9
46715.2,13128.8
46033.3,12735.1
Z" /> 
<path style="fill:#000000; fill-opacity:1.0; 
stroke:#000000; stroke-width:0; stroke-opacity:1; 
stroke-linecap:round; stroke-linejoin:round;fill-rule:evenodd;"
d="M 50572.3,13571.9
50610.4,13578.8
50647.5,13589.4
50683.4,13603.6
50717.8,13621.2
51399.7,14014.9
51432.2,14035.9
51462.5,14059.9
51490.2,14086.8
51515.2,14116.2
51537.2,14148
51556,14181.8
51571.3,14217.2
51583.2,14254
51591.3,14291.8
51595.7,14330.1
51596.4,14368.8
51593.2,14407.3
51586.3,14445.3
51575.7,14482.4
51561.5,14518.4
51543.8,14552.7
51150.1,15234.7
51129.2,15267.1
51105.2,15297.4
51078.3,15325.2
51048.8,15350.1
51017.1,15372.1
50983.3,15390.9
50947.8,15406.3
50911.1,15418.1
50873.3,15426.2
50834.9,15430.7
50796.3,15431.3
50757.8,15428.1
50719.8,15421.2
50682.6,15410.6
50646.7,15396.4
50612.3,15378.8
49930.4,14985.1
49897.9,14964.1
49867.7,14940.1
49839.9,14913.2
49814.9,14883.8
49792.9,14852
49774.2,14818.2
49758.8,14782.8
49747,14746
49738.8,14708.2
49734.4,14669.9
49733.8,14631.2
49736.9,14592.7
49743.8,14554.7
49754.5,14517.6
49768.7,14481.6
49786.3,14447.3
50180,13765.3
50200.9,13732.9
50225,13702.6
50251.8,13674.8
50281.3,13649.9
50313.1,13627.9
50346.8,13609.1
50382.3,13593.7
50419.1,13581.9
50456.8,13573.8
50495.2,13569.3
50533.8,13568.7
Z" /> 
</g>
<g >
</g>
<g >
</g>
<g >
</g>
<g >
</g>
<g >
</g>
<g >
</g>
<g style="fill:#000000; fill-opacity:1.0; 
stroke:#000000; stroke-width:0; stroke-opacity:1; 
stroke-linecap:round; stroke-linejoin:round;">
<circle cx="51250" cy="18000" r="393.701" /> 
</g>
<g style="fill:#000000; fill-opacity:1.0; 
stroke:#000000; stroke-width:39.3701; stroke-opacity:1; 
stroke-linecap:round; stroke-linejoin:round;">
</g>
<g style="fill:#000000; fill-opacity:1.0; 
stroke:#000000; stroke-width:0; stroke-opacity:1; 
stroke-linecap:round; stroke-linejoin:round;">
<circle cx="54250" cy="19750" r="393.701" /> 
</g>
<g style="fill:#000000; fill-opacity:1.0; 
stroke:#000000; stroke-width:39.3701; stroke-opacity:1; 
stroke-linecap:round; stroke-linejoin:round;">
</g>
<g >
</g>
<g style="fill:#000000; fill-opacity:1.0; 
stroke:#000000; stroke-width:39.3701; stroke-opacity:1; 
stroke-linecap:round; stroke-linejoin:round;">
</g>
<g style="fill:#000000; fill-opacity:1.0; 
stroke:#000000; stroke-width:98.4252; stroke-opacity:1; 
stroke-linecap:round; stroke-linejoin:round;">
</g>
<g style="fill:#000000; fill-opacity:0.0; 
stroke:#000000; stroke-width:98.4252; stroke-opacity:1; 
stroke-linecap:round; stroke-linejoin:round;">
<path d="M58655 11673
L59232 12250
" />
<path d="M55915 12334
L56576 11673
" />
<path d="M56576 11673
L58655 11673
" />
<path d="M47250 12250
L47750 11750
" />
<path d="M46767 12250
L47250 12250
" />
<path d="M47750 11750
L49500 11750
" />
<path d="M49500 11750
L50084 12334
" />
<path d="M50084 12334
L55915 12334
" />
</g>
<g style="fill:#000000; fill-opacity:0.0; 
stroke:#000000; stroke-width:196.85; stroke-opacity:1; 
stroke-linecap:round; stroke-linejoin:round;">
<path d="M50665 14500
L50088 15076
" />
<path d="M50088 15076
L50088 16838
" />
<path d="M50088 16838
L51092 17842
" />
<path d="M51092 17842
L51250 18000
" />
</g>
<g style="fill:#000000; fill-opacity:0.0; 
stroke:#000000; stroke-width:98.4252; stroke-opacity:1; 
stroke-linecap:round; stroke-linejoin:round;">
<path d="M53000 18500
L54250 19750
" />
<path d="M53000 17750
L53000 18500
" />
</g>
<g >
</g>
</g> 
</svg>
