<?xml version="1.0" standalone="no"?>
 <!DOCTYPE svg PUBLIC "-//W3C//DTD SVG 1.1//EN" 
 "http://www.w3.org/Graphics/SVG/1.1/DTD/svg11.dtd"> 
<svg xmlns="http://www.w3.org/2000/svg" version="1.1" 
    width="29.7002cm" height="21.0007cm" viewBox="0 0 116930 82680 ">
<title>SVG Picture created as ButterflyJewel-F_Cu.svg date 2020/02/10 12:20:28 </title>
  <desc>Picture generated by PCBNEW </desc>
<g style="fill:#000000; fill-opacity:1;stroke:#000000; stroke-opacity:1;
stroke-linecap:round; stroke-linejoin:round; "
 transform="translate(0 0) scale(1 1)">
</g>
<g style="fill:#000000; fill-opacity:0.0; 
stroke:#000000; stroke-width:-0.000393701; stroke-opacity:1; 
stroke-linecap:round; stroke-linejoin:round;">
<g >
</g>
<g style="fill:#000000; fill-opacity:0.0; 
stroke:#000000; stroke-width:0; stroke-opacity:1; 
stroke-linecap:round; stroke-linejoin:round;">
</g>
<g style="fill:#000000; fill-opacity:1.0; 
stroke:#000000; stroke-width:0; stroke-opacity:1; 
stroke-linecap:round; stroke-linejoin:round;">
<path style="fill:#000000; fill-opacity:1.0; 
stroke:#000000; stroke-width:0; stroke-opacity:1; 
stroke-linecap:round; stroke-linejoin:round;fill-rule:evenodd;"
d="M 55505.7,17055.6
55515.3,17057
55524.6,17059.4
55533.7,17062.6
55542.5,17066.7
55550.7,17071.7
55558.5,17077.5
55565.7,17083.9
55572.1,17091.1
55577.9,17098.9
55582.9,17107.1
55587,17115.9
55590.2,17125
55592.6,17134.3
55594,17143.9
55594.5,17153.5
55594.5,17517.7
55594,17527.4
55592.6,17536.9
55590.2,17546.3
55587,17555.4
55582.9,17564.1
55577.9,17572.4
55572.1,17580.2
55565.7,17587.3
55558.5,17593.8
55550.7,17599.6
55542.5,17604.5
55533.7,17608.6
55524.6,17611.9
55515.3,17614.3
55505.7,17615.7
55496.1,17616.1
55003.9,17616.1
54994.3,17615.7
54984.7,17614.3
54975.4,17611.9
54966.3,17608.6
54957.5,17604.5
54949.3,17599.6
54941.5,17593.8
54934.3,17587.3
54927.9,17580.2
54922.1,17572.4
54917.1,17564.1
54913,17555.4
54909.8,17546.3
54907.4,17536.9
54906,17527.4
54905.5,17517.7
54905.5,17153.5
54906,17143.9
54907.4,17134.3
54909.8,17125
54913,17115.9
54917.1,17107.1
54922.1,17098.9
54927.9,17091.1
54934.3,17083.9
54941.5,17077.5
54949.3,17071.7
54957.5,17066.7
54966.3,17062.6
54975.4,17059.4
54984.7,17057
54994.3,17055.6
55003.9,17055.1
55496.1,17055.1
Z" /> 
<path style="fill:#000000; fill-opacity:1.0; 
stroke:#000000; stroke-width:0; stroke-opacity:1; 
stroke-linecap:round; stroke-linejoin:round;fill-rule:evenodd;"
d="M 55505.7,15884.3
55515.3,15885.7
55524.6,15888.1
55533.7,15891.4
55542.5,15895.5
55550.7,15900.4
55558.5,15906.2
55565.7,15912.7
55572.1,15919.8
55577.9,15927.6
55582.9,15935.9
55587,15944.6
55590.2,15953.7
55592.6,15963.1
55594,15972.6
55594.5,15982.3
55594.5,16346.5
55594,16356.1
55592.6,16365.7
55590.2,16375
55587,16384.1
55582.9,16392.9
55577.9,16401.1
55572.1,16408.9
55565.7,16416.1
55558.5,16422.5
55550.7,16428.3
55542.5,16433.3
55533.7,16437.4
55524.6,16440.6
55515.3,16443
55505.7,16444.4
55496.1,16444.9
55003.9,16444.9
54994.3,16444.4
54984.7,16443
54975.4,16440.6
54966.3,16437.4
54957.5,16433.3
54949.3,16428.3
54941.5,16422.5
54934.3,16416.1
54927.9,16408.9
54922.1,16401.1
54917.1,16392.9
54913,16384.1
54909.8,16375
54907.4,16365.7
54906,16356.1
54905.5,16346.5
54905.5,15982.3
54906,15972.6
54907.4,15963.1
54909.8,15953.7
54913,15944.6
54917.1,15935.9
54922.1,15927.6
54927.9,15919.8
54934.3,15912.7
54941.5,15906.2
54949.3,15900.4
54957.5,15895.5
54966.3,15891.4
54975.4,15888.1
54984.7,15885.7
54994.3,15884.3
55003.9,15883.9
55496.1,15883.9
Z" /> 
</g>
<g >
</g>
<g >
</g>
<g style="fill:#000000; fill-opacity:1.0; 
stroke:#000000; stroke-width:0; stroke-opacity:1; 
stroke-linecap:round; stroke-linejoin:round;">
<path style="fill:#000000; fill-opacity:1.0; 
stroke:#000000; stroke-width:0; stroke-opacity:1; 
stroke-linecap:round; stroke-linejoin:round;fill-rule:evenodd;"
d="M 55504.8,13569.3
55543.2,13573.8
55580.9,13581.9
55617.7,13593.7
55653.2,13609.1
55686.9,13627.9
55718.7,13649.9
55748.2,13674.8
55775,13702.6
55799.1,13732.9
55820,13765.3
56213.7,14447.3
56231.3,14481.6
56245.5,14517.6
56256.2,14554.7
56263.1,14592.7
56266.2,14631.2
56265.6,14669.9
56261.2,14708.2
56253,14746
56241.2,14782.8
56225.8,14818.2
56207.1,14852
56185.1,14883.8
56160.1,14913.2
56132.3,14940.1
56102.1,14964.1
56069.6,14985.1
55387.7,15378.8
55353.3,15396.4
55317.4,15410.6
55280.2,15421.2
55242.2,15428.1
55203.7,15431.3
55165.1,15430.7
55126.7,15426.2
55088.9,15418.1
55052.2,15406.3
55016.7,15390.9
54982.9,15372.1
54951.2,15350.1
54921.7,15325.2
54894.8,15297.4
54870.8,15267.1
54849.9,15234.7
54456.2,14552.7
54438.5,14518.4
54424.3,14482.4
54413.7,14445.3
54406.8,14407.3
54403.6,14368.8
54404.3,14330.1
54408.7,14291.8
54416.8,14254
54428.7,14217.2
54444,14181.8
54462.8,14148
54484.8,14116.2
54509.8,14086.8
54537.5,14059.9
54567.8,14035.9
54600.3,14014.9
55282.2,13621.2
55316.6,13603.6
55352.5,13589.4
55389.6,13578.8
55427.7,13571.9
55466.2,13568.7
Z" /> 
</g>
<g >
</g>
<g style="fill:#000000; fill-opacity:1.0; 
stroke:#000000; stroke-width:0; stroke-opacity:1; 
stroke-linecap:round; stroke-linejoin:round;">
<circle cx="48500" cy="13250" r="1279.53" /> 
</g>
<g style="fill:#000000; fill-opacity:1.0; 
stroke:#000000; stroke-width:39.3701; stroke-opacity:1; 
stroke-linecap:round; stroke-linejoin:round;">
</g>
<g >
</g>
<g style="fill:#000000; fill-opacity:1.0; 
stroke:#000000; stroke-width:39.3701; stroke-opacity:1; 
stroke-linecap:round; stroke-linejoin:round;">
</g>
<g style="fill:#000000; fill-opacity:1.0; 
stroke:#000000; stroke-width:0; stroke-opacity:1; 
stroke-linecap:round; stroke-linejoin:round;">
<path style="fill:#000000; fill-opacity:1.0; 
stroke:#000000; stroke-width:0; stroke-opacity:1; 
stroke-linecap:round; stroke-linejoin:round;fill-rule:evenodd;"
d="M 52104.6,18349.7
52107,18350
52109.3,18350.6
52111.6,18351.4
52113.8,18352.5
52115.9,18353.7
52117.8,18355.2
52119.6,18356.8
52321.4,18558.6
52323,18560.4
52324.5,18562.3
52325.7,18564.4
52326.8,18566.6
52327.6,18568.9
52328.2,18571.2
52328.5,18573.6
52328.6,18576
52328.5,18578.4
52328.2,18580.8
52327.6,18583.2
52326.8,18585.4
52325.7,18587.6
52324.5,18589.7
52323,18591.6
52321.4,18593.4
52286.6,18628.2
52284.8,18629.8
52282.9,18631.3
52280.8,18632.5
52278.6,18633.5
52276.4,18634.4
52274,18634.9
52271.6,18635.3
52269.2,18635.4
52266.8,18635.3
52264.4,18634.9
52262.1,18634.4
52259.8,18633.5
52257.6,18632.5
52255.6,18631.3
52253.6,18629.8
52251.8,18628.2
52050,18426.4
52048.4,18424.6
52046.9,18422.6
52045.7,18420.6
52044.7,18418.4
52043.9,18416.1
52043.3,18413.8
52042.9,18411.4
52042.8,18409
52042.9,18406.6
52043.3,18404.2
52043.9,18401.8
52044.7,18399.6
52045.7,18397.4
52046.9,18395.3
52048.4,18393.4
52050,18391.6
52084.8,18356.8
52086.6,18355.2
52088.5,18353.7
52090.6,18352.5
52092.8,18351.4
52095.1,18350.6
52097.4,18350
52099.8,18349.7
52102.2,18349.6
Z" /> 
<path style="fill:#000000; fill-opacity:1.0; 
stroke:#000000; stroke-width:0; stroke-opacity:1; 
stroke-linecap:round; stroke-linejoin:round;fill-rule:evenodd;"
d="M 52243.8,18210.5
52246.2,18210.8
52248.5,18211.4
52250.8,18212.2
52253,18213.3
52255.1,18214.5
52257,18216
52258.8,18217.6
52460.6,18419.4
52462.2,18421.2
52463.7,18423.1
52464.9,18425.2
52466,18427.4
52466.8,18429.7
52467.4,18432
52467.7,18434.4
52467.8,18436.8
52467.7,18439.2
52467.4,18441.6
52466.8,18444
52466,18446.2
52464.9,18448.4
52463.7,18450.5
52462.2,18452.4
52460.6,18454.2
52425.8,18489
52424,18490.6
52422.1,18492.1
52420,18493.3
52417.8,18494.3
52415.6,18495.2
52413.2,18495.7
52410.8,18496.1
52408.4,18496.2
52406,18496.1
52403.6,18495.7
52401.3,18495.2
52399,18494.3
52396.8,18493.3
52394.8,18492.1
52392.8,18490.6
52391,18489
52189.2,18287.2
52187.6,18285.4
52186.1,18283.5
52184.9,18281.4
52183.9,18279.2
52183,18276.9
52182.5,18274.6
52182.1,18272.2
52182,18269.8
52182.1,18267.4
52182.5,18265
52183,18262.6
52183.9,18260.4
52184.9,18258.2
52186.1,18256.1
52187.6,18254.2
52189.2,18252.4
52224,18217.6
52225.8,18216
52227.7,18214.5
52229.8,18213.3
52232,18212.2
52234.2,18211.4
52236.6,18210.8
52239,18210.5
52241.4,18210.4
Z" /> 
<path style="fill:#000000; fill-opacity:1.0; 
stroke:#000000; stroke-width:0; stroke-opacity:1; 
stroke-linecap:round; stroke-linejoin:round;fill-rule:evenodd;"
d="M 52383,18071.3
52385.4,18071.7
52387.7,18072.2
52390,18073.1
52392.2,18074.1
52394.3,18075.3
52396.2,18076.8
52398,18078.4
52599.8,18280.2
52601.4,18282
52602.9,18283.9
52604.1,18286
52605.2,18288.2
52606,18290.5
52606.6,18292.8
52606.9,18295.2
52607,18297.6
52606.9,18300
52606.6,18302.4
52606,18304.8
52605.2,18307
52604.1,18309.2
52602.9,18311.3
52601.4,18313.2
52599.8,18315
52565,18349.8
52563.2,18351.4
52561.3,18352.9
52559.2,18354.1
52557,18355.2
52554.8,18356
52552.4,18356.6
52550,18356.9
52547.6,18357
52545.2,18356.9
52542.8,18356.6
52540.5,18356
52538.2,18355.2
52536,18354.1
52533.9,18352.9
52532,18351.4
52530.2,18349.8
52328.4,18148
52326.8,18146.2
52325.3,18144.3
52324.1,18142.2
52323.1,18140
52322.2,18137.7
52321.7,18135.4
52321.3,18133
52321.2,18130.6
52321.3,18128.2
52321.7,18125.8
52322.2,18123.4
52323.1,18121.2
52324.1,18119
52325.3,18116.9
52326.8,18115
52328.4,18113.2
52363.2,18078.4
52365,18076.8
52366.9,18075.3
52369,18074.1
52371.2,18073.1
52373.4,18072.2
52375.8,18071.7
52378.2,18071.3
52380.6,18071.2
Z" /> 
<path style="fill:#000000; fill-opacity:1.0; 
stroke:#000000; stroke-width:0; stroke-opacity:1; 
stroke-linecap:round; stroke-linejoin:round;fill-rule:evenodd;"
d="M 52522.2,17932.1
52524.6,17932.5
52526.9,17933
52529.2,17933.9
52531.4,17934.9
52533.5,17936.1
52535.4,17937.6
52537.2,17939.2
52739,18141
52740.6,18142.8
52742.1,18144.8
52743.3,18146.8
52744.3,18149
52745.2,18151.3
52745.7,18153.6
52746.1,18156
52746.2,18158.4
52746.1,18160.8
52745.7,18163.2
52745.2,18165.6
52744.3,18167.8
52743.3,18170
52742.1,18172.1
52740.6,18174
52739,18175.8
52704.2,18210.6
52702.4,18212.2
52700.5,18213.7
52698.4,18214.9
52696.2,18216
52694,18216.8
52691.6,18217.4
52689.2,18217.7
52686.8,18217.8
52684.4,18217.7
52682,18217.4
52679.7,18216.8
52677.4,18216
52675.2,18214.9
52673.1,18213.7
52671.2,18212.2
52669.4,18210.6
52467.6,18008.8
52466,18007
52464.5,18005.1
52463.3,18003
52462.2,18000.8
52461.4,17998.5
52460.8,17996.2
52460.5,17993.8
52460.4,17991.4
52460.5,17989
52460.8,17986.6
52461.4,17984.2
52462.2,17982
52463.3,17979.8
52464.5,17977.7
52466,17975.8
52467.6,17974
52502.4,17939.2
52504.2,17937.6
52506.1,17936.1
52508.2,17934.9
52510.4,17933.9
52512.6,17933
52515,17932.5
52517.4,17932.1
52519.8,17932
Z" /> 
<path style="fill:#000000; fill-opacity:1.0; 
stroke:#000000; stroke-width:0; stroke-opacity:1; 
stroke-linecap:round; stroke-linejoin:round;fill-rule:evenodd;"
d="M 52661.4,17792.9
52663.8,17793.3
52666.1,17793.9
52668.4,17794.7
52670.6,17795.7
52672.6,17796.9
52674.6,17798.4
52676.4,17800
52878.2,18001.8
52879.8,18003.6
52881.3,18005.6
52882.5,18007.6
52883.5,18009.8
52884.4,18012.1
52884.9,18014.4
52885.3,18016.8
52885.4,18019.2
52885.3,18021.6
52884.9,18024
52884.4,18026.4
52883.5,18028.6
52882.5,18030.8
52881.3,18032.9
52879.8,18034.8
52878.2,18036.6
52843.4,18071.4
52841.6,18073
52839.7,18074.5
52837.6,18075.7
52835.4,18076.8
52833.2,18077.6
52830.8,18078.2
52828.4,18078.5
52826,18078.6
52823.6,18078.5
52821.2,18078.2
52818.9,18077.6
52816.6,18076.8
52814.4,18075.7
52812.3,18074.5
52810.4,18073
52808.6,18071.4
52606.8,17869.6
52605.2,17867.8
52603.7,17865.9
52602.5,17863.8
52601.4,17861.6
52600.6,17859.3
52600,17857
52599.7,17854.6
52599.6,17852.2
52599.7,17849.8
52600,17847.4
52600.6,17845.1
52601.4,17842.8
52602.5,17840.6
52603.7,17838.5
52605.2,17836.6
52606.8,17834.8
52641.6,17800
52643.4,17798.4
52645.3,17796.9
52647.4,17795.7
52649.6,17794.7
52651.8,17793.9
52654.2,17793.3
52656.6,17792.9
52659,17792.8
Z" /> 
<path style="fill:#000000; fill-opacity:1.0; 
stroke:#000000; stroke-width:0; stroke-opacity:1; 
stroke-linecap:round; stroke-linejoin:round;fill-rule:evenodd;"
d="M 53343.4,17792.9
53345.8,17793.3
53348.2,17793.9
53350.4,17794.7
53352.6,17795.7
53354.7,17796.9
53356.6,17798.4
53358.4,17800
53393.2,17834.8
53394.8,17836.6
53396.3,17838.5
53397.5,17840.6
53398.6,17842.8
53399.4,17845.1
53400,17847.4
53400.3,17849.8
53400.4,17852.2
53400.3,17854.6
53400,17857
53399.4,17859.3
53398.6,17861.6
53397.5,17863.8
53396.3,17865.9
53394.8,17867.8
53393.2,17869.6
53191.4,18071.4
53189.6,18073
53187.7,18074.5
53185.6,18075.7
53183.4,18076.8
53181.1,18077.6
53178.8,18078.2
53176.4,18078.5
53174,18078.6
53171.6,18078.5
53169.2,18078.2
53166.8,18077.6
53164.6,18076.8
53162.4,18075.7
53160.3,18074.5
53158.4,18073
53156.6,18071.4
53121.8,18036.6
53120.2,18034.8
53118.7,18032.9
53117.5,18030.8
53116.5,18028.6
53115.6,18026.4
53115.1,18024
53114.7,18021.6
53114.6,18019.2
53114.7,18016.8
53115.1,18014.4
53115.6,18012.1
53116.5,18009.8
53117.5,18007.6
53118.7,18005.6
53120.2,18003.6
53121.8,18001.8
53323.6,17800
53325.4,17798.4
53327.4,17796.9
53329.4,17795.7
53331.6,17794.7
53333.9,17793.9
53336.2,17793.3
53338.6,17792.9
53341,17792.8
Z" /> 
<path style="fill:#000000; fill-opacity:1.0; 
stroke:#000000; stroke-width:0; stroke-opacity:1; 
stroke-linecap:round; stroke-linejoin:round;fill-rule:evenodd;"
d="M 53482.6,17932.1
53485,17932.5
53487.4,17933
53489.6,17933.9
53491.8,17934.9
53493.9,17936.1
53495.8,17937.6
53497.6,17939.2
53532.4,17974
53534,17975.8
53535.5,17977.7
53536.7,17979.8
53537.8,17982
53538.6,17984.2
53539.2,17986.6
53539.5,17989
53539.6,17991.4
53539.5,17993.8
53539.2,17996.2
53538.6,17998.5
53537.8,18000.8
53536.7,18003
53535.5,18005.1
53534,18007
53532.4,18008.8
53330.6,18210.6
53328.8,18212.2
53326.9,18213.7
53324.8,18214.9
53322.6,18216
53320.3,18216.8
53318,18217.4
53315.6,18217.7
53313.2,18217.8
53310.8,18217.7
53308.4,18217.4
53306,18216.8
53303.8,18216
53301.6,18214.9
53299.5,18213.7
53297.6,18212.2
53295.8,18210.6
53261,18175.8
53259.4,18174
53257.9,18172.1
53256.7,18170
53255.7,18167.8
53254.8,18165.6
53254.3,18163.2
53253.9,18160.8
53253.8,18158.4
53253.9,18156
53254.3,18153.6
53254.8,18151.3
53255.7,18149
53256.7,18146.8
53257.9,18144.8
53259.4,18142.8
53261,18141
53462.8,17939.2
53464.6,17937.6
53466.5,17936.1
53468.6,17934.9
53470.8,17933.9
53473.1,17933
53475.4,17932.5
53477.8,17932.1
53480.2,17932
Z" /> 
<path style="fill:#000000; fill-opacity:1.0; 
stroke:#000000; stroke-width:0; stroke-opacity:1; 
stroke-linecap:round; stroke-linejoin:round;fill-rule:evenodd;"
d="M 53621.8,18071.3
53624.2,18071.7
53626.6,18072.2
53628.8,18073.1
53631,18074.1
53633.1,18075.3
53635,18076.8
53636.8,18078.4
53671.6,18113.2
53673.2,18115
53674.7,18116.9
53675.9,18119
53676.9,18121.2
53677.8,18123.4
53678.3,18125.8
53678.7,18128.2
53678.8,18130.6
53678.7,18133
53678.3,18135.4
53677.8,18137.7
53676.9,18140
53675.9,18142.2
53674.7,18144.3
53673.2,18146.2
53671.6,18148
53469.8,18349.8
53468,18351.4
53466.1,18352.9
53464,18354.1
53461.8,18355.2
53459.5,18356
53457.2,18356.6
53454.8,18356.9
53452.4,18357
53450,18356.9
53447.6,18356.6
53445.2,18356
53443,18355.2
53440.8,18354.1
53438.7,18352.9
53436.8,18351.4
53435,18349.8
53400.2,18315
53398.6,18313.2
53397.1,18311.3
53395.9,18309.2
53394.8,18307
53394,18304.8
53393.4,18302.4
53393.1,18300
53393,18297.6
53393.1,18295.2
53393.4,18292.8
53394,18290.5
53394.8,18288.2
53395.9,18286
53397.1,18283.9
53398.6,18282
53400.2,18280.2
53602,18078.4
53603.8,18076.8
53605.7,18075.3
53607.8,18074.1
53610,18073.1
53612.3,18072.2
53614.6,18071.7
53617,18071.3
53619.4,18071.2
Z" /> 
<path style="fill:#000000; fill-opacity:1.0; 
stroke:#000000; stroke-width:0; stroke-opacity:1; 
stroke-linecap:round; stroke-linejoin:round;fill-rule:evenodd;"
d="M 53761,18210.5
53763.4,18210.8
53765.8,18211.4
53768,18212.2
53770.2,18213.3
53772.3,18214.5
53774.2,18216
53776,18217.6
53810.8,18252.4
53812.4,18254.2
53813.9,18256.1
53815.1,18258.2
53816.1,18260.4
53817,18262.6
53817.5,18265
53817.9,18267.4
53818,18269.8
53817.9,18272.2
53817.5,18274.6
53817,18276.9
53816.1,18279.2
53815.1,18281.4
53813.9,18283.5
53812.4,18285.4
53810.8,18287.2
53609,18489
53607.2,18490.6
53605.2,18492.1
53603.2,18493.3
53601,18494.3
53598.7,18495.2
53596.4,18495.7
53594,18496.1
53591.6,18496.2
53589.2,18496.1
53586.8,18495.7
53584.4,18495.2
53582.2,18494.3
53580,18493.3
53577.9,18492.1
53576,18490.6
53574.2,18489
53539.4,18454.2
53537.8,18452.4
53536.3,18450.5
53535.1,18448.4
53534,18446.2
53533.2,18444
53532.6,18441.6
53532.3,18439.2
53532.2,18436.8
53532.3,18434.4
53532.6,18432
53533.2,18429.7
53534,18427.4
53535.1,18425.2
53536.3,18423.1
53537.8,18421.2
53539.4,18419.4
53741.2,18217.6
53743,18216
53744.9,18214.5
53747,18213.3
53749.2,18212.2
53751.5,18211.4
53753.8,18210.8
53756.2,18210.5
53758.6,18210.4
Z" /> 
<path style="fill:#000000; fill-opacity:1.0; 
stroke:#000000; stroke-width:0; stroke-opacity:1; 
stroke-linecap:round; stroke-linejoin:round;fill-rule:evenodd;"
d="M 53900.2,18349.7
53902.6,18350
53904.9,18350.6
53907.2,18351.4
53909.4,18352.5
53911.5,18353.7
53913.4,18355.2
53915.2,18356.8
53950,18391.6
53951.6,18393.4
53953.1,18395.3
53954.3,18397.4
53955.3,18399.6
53956.1,18401.8
53956.7,18404.2
53957.1,18406.6
53957.2,18409
53957.1,18411.4
53956.7,18413.8
53956.1,18416.1
53955.3,18418.4
53954.3,18420.6
53953.1,18422.6
53951.6,18424.6
53950,18426.4
53748.2,18628.2
53746.4,18629.8
53744.4,18631.3
53742.4,18632.5
53740.2,18633.5
53737.9,18634.4
53735.6,18634.9
53733.2,18635.3
53730.8,18635.4
53728.4,18635.3
53726,18634.9
53723.6,18634.4
53721.4,18633.5
53719.2,18632.5
53717.1,18631.3
53715.2,18629.8
53713.4,18628.2
53678.6,18593.4
53677,18591.6
53675.5,18589.7
53674.3,18587.6
53673.2,18585.4
53672.4,18583.2
53671.8,18580.8
53671.5,18578.4
53671.4,18576
53671.5,18573.6
53671.8,18571.2
53672.4,18568.9
53673.2,18566.6
53674.3,18564.4
53675.5,18562.3
53677,18560.4
53678.6,18558.6
53880.4,18356.8
53882.2,18355.2
53884.1,18353.7
53886.2,18352.5
53888.4,18351.4
53890.7,18350.6
53893,18350
53895.4,18349.7
53897.8,18349.6
Z" /> 
<path style="fill:#000000; fill-opacity:1.0; 
stroke:#000000; stroke-width:0; stroke-opacity:1; 
stroke-linecap:round; stroke-linejoin:round;fill-rule:evenodd;"
d="M 53733.2,18864.7
53735.6,18865.1
53737.9,18865.6
53740.2,18866.5
53742.4,18867.5
53744.4,18868.7
53746.4,18870.2
53748.2,18871.8
53950,19073.6
53951.6,19075.4
53953.1,19077.4
53954.3,19079.4
53955.3,19081.6
53956.1,19083.9
53956.7,19086.2
53957.1,19088.6
53957.2,19091
53957.1,19093.4
53956.7,19095.8
53956.1,19098.2
53955.3,19100.4
53954.3,19102.6
53953.1,19104.7
53951.6,19106.6
53950,19108.4
53915.2,19143.2
53913.4,19144.8
53911.5,19146.3
53909.4,19147.5
53907.2,19148.6
53904.9,19149.4
53902.6,19150
53900.2,19150.3
53897.8,19150.4
53895.4,19150.3
53893,19150
53890.7,19149.4
53888.4,19148.6
53886.2,19147.5
53884.1,19146.3
53882.2,19144.8
53880.4,19143.2
53678.6,18941.4
53677,18939.6
53675.5,18937.7
53674.3,18935.6
53673.2,18933.4
53672.4,18931.1
53671.8,18928.8
53671.5,18926.4
53671.4,18924
53671.5,18921.6
53671.8,18919.2
53672.4,18916.8
53673.2,18914.6
53674.3,18912.4
53675.5,18910.3
53677,18908.4
53678.6,18906.6
53713.4,18871.8
53715.2,18870.2
53717.1,18868.7
53719.2,18867.5
53721.4,18866.5
53723.6,18865.6
53726,18865.1
53728.4,18864.7
53730.8,18864.6
Z" /> 
<path style="fill:#000000; fill-opacity:1.0; 
stroke:#000000; stroke-width:0; stroke-opacity:1; 
stroke-linecap:round; stroke-linejoin:round;fill-rule:evenodd;"
d="M 53594,19003.9
53596.4,19004.3
53598.7,19004.8
53601,19005.7
53603.2,19006.7
53605.2,19007.9
53607.2,19009.4
53609,19011
53810.8,19212.8
53812.4,19214.6
53813.9,19216.5
53815.1,19218.6
53816.1,19220.8
53817,19223.1
53817.5,19225.4
53817.9,19227.8
53818,19230.2
53817.9,19232.6
53817.5,19235
53817,19237.4
53816.1,19239.6
53815.1,19241.8
53813.9,19243.9
53812.4,19245.8
53810.8,19247.6
53776,19282.4
53774.2,19284
53772.3,19285.5
53770.2,19286.7
53768,19287.8
53765.8,19288.6
53763.4,19289.2
53761,19289.5
53758.6,19289.6
53756.2,19289.5
53753.8,19289.2
53751.5,19288.6
53749.2,19287.8
53747,19286.7
53744.9,19285.5
53743,19284
53741.2,19282.4
53539.4,19080.6
53537.8,19078.8
53536.3,19076.9
53535.1,19074.8
53534,19072.6
53533.2,19070.3
53532.6,19068
53532.3,19065.6
53532.2,19063.2
53532.3,19060.8
53532.6,19058.4
53533.2,19056
53534,19053.8
53535.1,19051.6
53536.3,19049.5
53537.8,19047.6
53539.4,19045.8
53574.2,19011
53576,19009.4
53577.9,19007.9
53580,19006.7
53582.2,19005.7
53584.4,19004.8
53586.8,19004.3
53589.2,19003.9
53591.6,19003.8
Z" /> 
<path style="fill:#000000; fill-opacity:1.0; 
stroke:#000000; stroke-width:0; stroke-opacity:1; 
stroke-linecap:round; stroke-linejoin:round;fill-rule:evenodd;"
d="M 53454.8,19143.1
53457.2,19143.4
53459.5,19144
53461.8,19144.8
53464,19145.9
53466.1,19147.1
53468,19148.6
53469.8,19150.2
53671.6,19352
53673.2,19353.8
53674.7,19355.7
53675.9,19357.8
53676.9,19360
53677.8,19362.3
53678.3,19364.6
53678.7,19367
53678.8,19369.4
53678.7,19371.8
53678.3,19374.2
53677.8,19376.6
53676.9,19378.8
53675.9,19381
53674.7,19383.1
53673.2,19385
53671.6,19386.8
53636.8,19421.6
53635,19423.2
53633.1,19424.7
53631,19425.9
53628.8,19426.9
53626.6,19427.8
53624.2,19428.3
53621.8,19428.7
53619.4,19428.8
53617,19428.7
53614.6,19428.3
53612.3,19427.8
53610,19426.9
53607.8,19425.9
53605.7,19424.7
53603.8,19423.2
53602,19421.6
53400.2,19219.8
53398.6,19218
53397.1,19216.1
53395.9,19214
53394.8,19211.8
53394,19209.5
53393.4,19207.2
53393.1,19204.8
53393,19202.4
53393.1,19200
53393.4,19197.6
53394,19195.2
53394.8,19193
53395.9,19190.8
53397.1,19188.7
53398.6,19186.8
53400.2,19185
53435,19150.2
53436.8,19148.6
53438.7,19147.1
53440.8,19145.9
53443,19144.8
53445.2,19144
53447.6,19143.4
53450,19143.1
53452.4,19143
Z" /> 
<path style="fill:#000000; fill-opacity:1.0; 
stroke:#000000; stroke-width:0; stroke-opacity:1; 
stroke-linecap:round; stroke-linejoin:round;fill-rule:evenodd;"
d="M 53315.6,19282.3
53318,19282.6
53320.3,19283.2
53322.6,19284
53324.8,19285.1
53326.9,19286.3
53328.8,19287.8
53330.6,19289.4
53532.4,19491.2
53534,19493
53535.5,19494.9
53536.7,19497
53537.8,19499.2
53538.6,19501.5
53539.2,19503.8
53539.5,19506.2
53539.6,19508.6
53539.5,19511
53539.2,19513.4
53538.6,19515.8
53537.8,19518
53536.7,19520.2
53535.5,19522.3
53534,19524.2
53532.4,19526
53497.6,19560.8
53495.8,19562.4
53493.9,19563.9
53491.8,19565.1
53489.6,19566.1
53487.4,19567
53485,19567.5
53482.6,19567.9
53480.2,19568
53477.8,19567.9
53475.4,19567.5
53473.1,19567
53470.8,19566.1
53468.6,19565.1
53466.5,19563.9
53464.6,19562.4
53462.8,19560.8
53261,19359
53259.4,19357.2
53257.9,19355.2
53256.7,19353.2
53255.7,19351
53254.8,19348.7
53254.3,19346.4
53253.9,19344
53253.8,19341.6
53253.9,19339.2
53254.3,19336.8
53254.8,19334.4
53255.7,19332.2
53256.7,19330
53257.9,19327.9
53259.4,19326
53261,19324.2
53295.8,19289.4
53297.6,19287.8
53299.5,19286.3
53301.6,19285.1
53303.8,19284
53306,19283.2
53308.4,19282.6
53310.8,19282.3
53313.2,19282.2
Z" /> 
<path style="fill:#000000; fill-opacity:1.0; 
stroke:#000000; stroke-width:0; stroke-opacity:1; 
stroke-linecap:round; stroke-linejoin:round;fill-rule:evenodd;"
d="M 53176.4,19421.5
53178.8,19421.8
53181.1,19422.4
53183.4,19423.2
53185.6,19424.3
53187.7,19425.5
53189.6,19427
53191.4,19428.6
53393.2,19630.4
53394.8,19632.2
53396.3,19634.1
53397.5,19636.2
53398.6,19638.4
53399.4,19640.7
53400,19643
53400.3,19645.4
53400.4,19647.8
53400.3,19650.2
53400,19652.6
53399.4,19654.9
53398.6,19657.2
53397.5,19659.4
53396.3,19661.5
53394.8,19663.4
53393.2,19665.2
53358.4,19700
53356.6,19701.6
53354.7,19703.1
53352.6,19704.3
53350.4,19705.3
53348.2,19706.1
53345.8,19706.7
53343.4,19707.1
53341,19707.2
53338.6,19707.1
53336.2,19706.7
53333.9,19706.1
53331.6,19705.3
53329.4,19704.3
53327.4,19703.1
53325.4,19701.6
53323.6,19700
53121.8,19498.2
53120.2,19496.4
53118.7,19494.4
53117.5,19492.4
53116.5,19490.2
53115.6,19487.9
53115.1,19485.6
53114.7,19483.2
53114.6,19480.8
53114.7,19478.4
53115.1,19476
53115.6,19473.6
53116.5,19471.4
53117.5,19469.2
53118.7,19467.1
53120.2,19465.2
53121.8,19463.4
53156.6,19428.6
53158.4,19427
53160.3,19425.5
53162.4,19424.3
53164.6,19423.2
53166.8,19422.4
53169.2,19421.8
53171.6,19421.5
53174,19421.4
Z" /> 
<path style="fill:#000000; fill-opacity:1.0; 
stroke:#000000; stroke-width:0; stroke-opacity:1; 
stroke-linecap:round; stroke-linejoin:round;fill-rule:evenodd;"
d="M 52828.4,19421.5
52830.8,19421.8
52833.2,19422.4
52835.4,19423.2
52837.6,19424.3
52839.7,19425.5
52841.6,19427
52843.4,19428.6
52878.2,19463.4
52879.8,19465.2
52881.3,19467.1
52882.5,19469.2
52883.5,19471.4
52884.4,19473.6
52884.9,19476
52885.3,19478.4
52885.4,19480.8
52885.3,19483.2
52884.9,19485.6
52884.4,19487.9
52883.5,19490.2
52882.5,19492.4
52881.3,19494.4
52879.8,19496.4
52878.2,19498.2
52676.4,19700
52674.6,19701.6
52672.6,19703.1
52670.6,19704.3
52668.4,19705.3
52666.1,19706.1
52663.8,19706.7
52661.4,19707.1
52659,19707.2
52656.6,19707.1
52654.2,19706.7
52651.8,19706.1
52649.6,19705.3
52647.4,19704.3
52645.3,19703.1
52643.4,19701.6
52641.6,19700
52606.8,19665.2
52605.2,19663.4
52603.7,19661.5
52602.5,19659.4
52601.4,19657.2
52600.6,19654.9
52600,19652.6
52599.7,19650.2
52599.6,19647.8
52599.7,19645.4
52600,19643
52600.6,19640.7
52601.4,19638.4
52602.5,19636.2
52603.7,19634.1
52605.2,19632.2
52606.8,19630.4
52808.6,19428.6
52810.4,19427
52812.3,19425.5
52814.4,19424.3
52816.6,19423.2
52818.9,19422.4
52821.2,19421.8
52823.6,19421.5
52826,19421.4
Z" /> 
<path style="fill:#000000; fill-opacity:1.0; 
stroke:#000000; stroke-width:0; stroke-opacity:1; 
stroke-linecap:round; stroke-linejoin:round;fill-rule:evenodd;"
d="M 52689.2,19282.3
52691.6,19282.6
52694,19283.2
52696.2,19284
52698.4,19285.1
52700.5,19286.3
52702.4,19287.8
52704.2,19289.4
52739,19324.2
52740.6,19326
52742.1,19327.9
52743.3,19330
52744.3,19332.2
52745.2,19334.4
52745.7,19336.8
52746.1,19339.2
52746.2,19341.6
52746.1,19344
52745.7,19346.4
52745.2,19348.7
52744.3,19351
52743.3,19353.2
52742.1,19355.2
52740.6,19357.2
52739,19359
52537.2,19560.8
52535.4,19562.4
52533.5,19563.9
52531.4,19565.1
52529.2,19566.1
52526.9,19567
52524.6,19567.5
52522.2,19567.9
52519.8,19568
52517.4,19567.9
52515,19567.5
52512.6,19567
52510.4,19566.1
52508.2,19565.1
52506.1,19563.9
52504.2,19562.4
52502.4,19560.8
52467.6,19526
52466,19524.2
52464.5,19522.3
52463.3,19520.2
52462.2,19518
52461.4,19515.8
52460.8,19513.4
52460.5,19511
52460.4,19508.6
52460.5,19506.2
52460.8,19503.8
52461.4,19501.5
52462.2,19499.2
52463.3,19497
52464.5,19494.9
52466,19493
52467.6,19491.2
52669.4,19289.4
52671.2,19287.8
52673.1,19286.3
52675.2,19285.1
52677.4,19284
52679.7,19283.2
52682,19282.6
52684.4,19282.3
52686.8,19282.2
Z" /> 
<path style="fill:#000000; fill-opacity:1.0; 
stroke:#000000; stroke-width:0; stroke-opacity:1; 
stroke-linecap:round; stroke-linejoin:round;fill-rule:evenodd;"
d="M 52550,19143.1
52552.4,19143.4
52554.8,19144
52557,19144.8
52559.2,19145.9
52561.3,19147.1
52563.2,19148.6
52565,19150.2
52599.8,19185
52601.4,19186.8
52602.9,19188.7
52604.1,19190.8
52605.2,19193
52606,19195.2
52606.6,19197.6
52606.9,19200
52607,19202.4
52606.9,19204.8
52606.6,19207.2
52606,19209.5
52605.2,19211.8
52604.1,19214
52602.9,19216.1
52601.4,19218
52599.8,19219.8
52398,19421.6
52396.2,19423.2
52394.3,19424.7
52392.2,19425.9
52390,19426.9
52387.7,19427.8
52385.4,19428.3
52383,19428.7
52380.6,19428.8
52378.2,19428.7
52375.8,19428.3
52373.4,19427.8
52371.2,19426.9
52369,19425.9
52366.9,19424.7
52365,19423.2
52363.2,19421.6
52328.4,19386.8
52326.8,19385
52325.3,19383.1
52324.1,19381
52323.1,19378.8
52322.2,19376.6
52321.7,19374.2
52321.3,19371.8
52321.2,19369.4
52321.3,19367
52321.7,19364.6
52322.2,19362.3
52323.1,19360
52324.1,19357.8
52325.3,19355.7
52326.8,19353.8
52328.4,19352
52530.2,19150.2
52532,19148.6
52533.9,19147.1
52536,19145.9
52538.2,19144.8
52540.5,19144
52542.8,19143.4
52545.2,19143.1
52547.6,19143
Z" /> 
<path style="fill:#000000; fill-opacity:1.0; 
stroke:#000000; stroke-width:0; stroke-opacity:1; 
stroke-linecap:round; stroke-linejoin:round;fill-rule:evenodd;"
d="M 52410.8,19003.9
52413.2,19004.3
52415.6,19004.8
52417.8,19005.7
52420,19006.7
52422.1,19007.9
52424,19009.4
52425.8,19011
52460.6,19045.8
52462.2,19047.6
52463.7,19049.5
52464.9,19051.6
52466,19053.8
52466.8,19056
52467.4,19058.4
52467.7,19060.8
52467.8,19063.2
52467.7,19065.6
52467.4,19068
52466.8,19070.3
52466,19072.6
52464.9,19074.8
52463.7,19076.9
52462.2,19078.8
52460.6,19080.6
52258.8,19282.4
52257,19284
52255.1,19285.5
52253,19286.7
52250.8,19287.8
52248.5,19288.6
52246.2,19289.2
52243.8,19289.5
52241.4,19289.6
52239,19289.5
52236.6,19289.2
52234.2,19288.6
52232,19287.8
52229.8,19286.7
52227.7,19285.5
52225.8,19284
52224,19282.4
52189.2,19247.6
52187.6,19245.8
52186.1,19243.9
52184.9,19241.8
52183.9,19239.6
52183,19237.4
52182.5,19235
52182.1,19232.6
52182,19230.2
52182.1,19227.8
52182.5,19225.4
52183,19223.1
52183.9,19220.8
52184.9,19218.6
52186.1,19216.5
52187.6,19214.6
52189.2,19212.8
52391,19011
52392.8,19009.4
52394.8,19007.9
52396.8,19006.7
52399,19005.7
52401.3,19004.8
52403.6,19004.3
52406,19003.9
52408.4,19003.8
Z" /> 
<path style="fill:#000000; fill-opacity:1.0; 
stroke:#000000; stroke-width:0; stroke-opacity:1; 
stroke-linecap:round; stroke-linejoin:round;fill-rule:evenodd;"
d="M 52271.6,18864.7
52274,18865.1
52276.4,18865.6
52278.6,18866.5
52280.8,18867.5
52282.9,18868.7
52284.8,18870.2
52286.6,18871.8
52321.4,18906.6
52323,18908.4
52324.5,18910.3
52325.7,18912.4
52326.8,18914.6
52327.6,18916.8
52328.2,18919.2
52328.5,18921.6
52328.6,18924
52328.5,18926.4
52328.2,18928.8
52327.6,18931.1
52326.8,18933.4
52325.7,18935.6
52324.5,18937.7
52323,18939.6
52321.4,18941.4
52119.6,19143.2
52117.8,19144.8
52115.9,19146.3
52113.8,19147.5
52111.6,19148.6
52109.3,19149.4
52107,19150
52104.6,19150.3
52102.2,19150.4
52099.8,19150.3
52097.4,19150
52095.1,19149.4
52092.8,19148.6
52090.6,19147.5
52088.5,19146.3
52086.6,19144.8
52084.8,19143.2
52050,19108.4
52048.4,19106.6
52046.9,19104.7
52045.7,19102.6
52044.7,19100.4
52043.9,19098.2
52043.3,19095.8
52042.9,19093.4
52042.8,19091
52042.9,19088.6
52043.3,19086.2
52043.9,19083.9
52044.7,19081.6
52045.7,19079.4
52046.9,19077.4
52048.4,19075.4
52050,19073.6
52251.8,18871.8
52253.6,18870.2
52255.6,18868.7
52257.6,18867.5
52259.8,18866.5
52262.1,18865.6
52264.4,18865.1
52266.8,18864.7
52269.2,18864.6
Z" /> 
<path style="fill:#000000; fill-opacity:1.0; 
stroke:#000000; stroke-width:0; stroke-opacity:1; 
stroke-linecap:round; stroke-linejoin:round;fill-rule:evenodd;"
d="M 53009.6,18067.4
53019.2,18068.9
53028.6,18071.2
53037.7,18074.5
53046.4,18078.6
53054.7,18083.5
53062.4,18089.3
53069.6,18095.8
53654.2,18680.4
53660.7,18687.6
53666.5,18695.3
53671.4,18703.6
53675.5,18712.3
53678.8,18721.4
53681.1,18730.8
53682.6,18740.4
53683,18750
53682.6,18759.6
53681.1,18769.2
53678.8,18778.6
53675.5,18787.7
53671.4,18796.4
53666.5,18804.7
53660.7,18812.4
53654.2,18819.6
53069.6,19404.2
53062.4,19410.7
53054.7,19416.5
53046.4,19421.4
53037.7,19425.5
53028.6,19428.8
53019.2,19431.1
53009.6,19432.6
53000,19433
52990.4,19432.6
52980.8,19431.1
52971.4,19428.8
52962.3,19425.5
52953.6,19421.4
52945.3,19416.5
52937.6,19410.7
52930.4,19404.2
52345.8,18819.6
52339.3,18812.4
52333.5,18804.7
52328.6,18796.4
52324.5,18787.7
52321.2,18778.6
52318.9,18769.2
52317.4,18759.6
52317,18750
52317.4,18740.4
52318.9,18730.8
52321.2,18721.4
52324.5,18712.3
52328.6,18703.6
52333.5,18695.3
52339.3,18687.6
52345.8,18680.4
52930.4,18095.8
52937.6,18089.3
52945.3,18083.5
52953.6,18078.6
52962.3,18074.5
52971.4,18071.2
52980.8,18068.9
52990.4,18067.4
53000,18067
Z" /> 
</g>
<g >
</g>
<g style="fill:#000000; fill-opacity:1.0; 
stroke:#000000; stroke-width:0; stroke-opacity:1; 
stroke-linecap:round; stroke-linejoin:round;">
<path style="fill:#000000; fill-opacity:1.0; 
stroke:#000000; stroke-width:0; stroke-opacity:1; 
stroke-linecap:round; stroke-linejoin:round;fill-rule:evenodd;"
d="M 60505.7,11634.3
60515.3,11635.7
60524.6,11638.1
60533.7,11641.4
60542.5,11645.5
60550.7,11650.4
60558.5,11656.2
60565.7,11662.7
60572.1,11669.8
60577.9,11677.6
60582.9,11685.9
60587,11694.6
60590.2,11703.7
60592.6,11713.1
60594,11722.6
60594.5,11732.3
60594.5,12096.5
60594,12106.1
60592.6,12115.7
60590.2,12125
60587,12134.1
60582.9,12142.9
60577.9,12151.1
60572.1,12158.9
60565.7,12166.1
60558.5,12172.5
60550.7,12178.3
60542.5,12183.3
60533.7,12187.4
60524.6,12190.6
60515.3,12193
60505.7,12194.4
60496.1,12194.9
60003.9,12194.9
59994.3,12194.4
59984.7,12193
59975.4,12190.6
59966.3,12187.4
59957.5,12183.3
59949.3,12178.3
59941.5,12172.5
59934.3,12166.1
59927.9,12158.9
59922.1,12151.1
59917.1,12142.9
59913,12134.1
59909.8,12125
59907.4,12115.7
59906,12106.1
59905.5,12096.5
59905.5,11732.3
59906,11722.6
59907.4,11713.1
59909.8,11703.7
59913,11694.6
59917.1,11685.9
59922.1,11677.6
59927.9,11669.8
59934.3,11662.7
59941.5,11656.2
59949.3,11650.4
59957.5,11645.5
59966.3,11641.4
59975.4,11638.1
59984.7,11635.7
59994.3,11634.3
60003.9,11633.9
60496.1,11633.9
Z" /> 
<path style="fill:#000000; fill-opacity:1.0; 
stroke:#000000; stroke-width:0; stroke-opacity:1; 
stroke-linecap:round; stroke-linejoin:round;fill-rule:evenodd;"
d="M 60505.7,12805.6
60515.3,12807
60524.6,12809.4
60533.7,12812.6
60542.5,12816.7
60550.7,12821.7
60558.5,12827.5
60565.7,12833.9
60572.1,12841.1
60577.9,12848.9
60582.9,12857.1
60587,12865.9
60590.2,12875
60592.6,12884.3
60594,12893.9
60594.5,12903.5
60594.5,13267.7
60594,13277.4
60592.6,13286.9
60590.2,13296.3
60587,13305.4
60582.9,13314.1
60577.9,13322.4
60572.1,13330.2
60565.7,13337.3
60558.5,13343.8
60550.7,13349.6
60542.5,13354.5
60533.7,13358.6
60524.6,13361.9
60515.3,13364.3
60505.7,13365.7
60496.1,13366.1
60003.9,13366.1
59994.3,13365.7
59984.7,13364.3
59975.4,13361.9
59966.3,13358.6
59957.5,13354.5
59949.3,13349.6
59941.5,13343.8
59934.3,13337.3
59927.9,13330.2
59922.1,13322.4
59917.1,13314.1
59913,13305.4
59909.8,13296.3
59907.4,13286.9
59906,13277.4
59905.5,13267.7
59905.5,12903.5
59906,12893.9
59907.4,12884.3
59909.8,12875
59913,12865.9
59917.1,12857.1
59922.1,12848.9
59927.9,12841.1
59934.3,12833.9
59941.5,12827.5
59949.3,12821.7
59957.5,12816.7
59966.3,12812.6
59975.4,12809.4
59984.7,12807
59994.3,12805.6
60003.9,12805.1
60496.1,12805.1
Z" /> 
</g>
<g >
</g>
<g style="fill:#000000; fill-opacity:1.0; 
stroke:#000000; stroke-width:0; stroke-opacity:1; 
stroke-linecap:round; stroke-linejoin:round;">
<circle cx="57500" cy="13250" r="1279.53" /> 
</g>
<g style="fill:#000000; fill-opacity:1.0; 
stroke:#000000; stroke-width:39.3701; stroke-opacity:1; 
stroke-linecap:round; stroke-linejoin:round;">
</g>
<g >
</g>
<g style="fill:#000000; fill-opacity:1.0; 
stroke:#000000; stroke-width:39.3701; stroke-opacity:1; 
stroke-linecap:round; stroke-linejoin:round;">
</g>
<g style="fill:#000000; fill-opacity:1.0; 
stroke:#000000; stroke-width:0; stroke-opacity:1; 
stroke-linecap:round; stroke-linejoin:round;">
<circle cx="53000" cy="11500" r="629.921" /> 
</g>
<g style="fill:#000000; fill-opacity:1.0; 
stroke:#000000; stroke-width:39.3701; stroke-opacity:1; 
stroke-linecap:round; stroke-linejoin:round;">
</g>
<g >
</g>
<g style="fill:#000000; fill-opacity:1.0; 
stroke:#000000; stroke-width:39.3701; stroke-opacity:1; 
stroke-linecap:round; stroke-linejoin:round;">
</g>
<g style="fill:#000000; fill-opacity:1.0; 
stroke:#000000; stroke-width:0; stroke-opacity:1; 
stroke-linecap:round; stroke-linejoin:round;">
<path style="fill:#000000; fill-opacity:1.0; 
stroke:#000000; stroke-width:0; stroke-opacity:1; 
stroke-linecap:round; stroke-linejoin:round;fill-rule:evenodd;"
d="M 53432.3,12464.5
53470.5,12470.2
53508,12479.6
53544.4,12492.6
53579.3,12509.1
53612.4,12528.9
53643.5,12552
53672.1,12577.9
53698,12606.5
53721.1,12637.6
53740.9,12670.7
53757.4,12705.6
53770.4,12742
53779.8,12779.5
53785.5,12817.7
53787.4,12856.3
53787.4,13643.7
53785.5,13682.3
53779.8,13720.5
53770.4,13758
53757.4,13794.4
53740.9,13829.3
53721.1,13862.4
53698,13893.5
53672.1,13922.1
53643.5,13948
53612.4,13971.1
53579.3,13990.9
53544.4,14007.4
53508,14020.4
53470.5,14029.8
53432.3,14035.5
53393.7,14037.4
52606.3,14037.4
52567.7,14035.5
52529.5,14029.8
52492,14020.4
52455.6,14007.4
52420.7,13990.9
52387.6,13971.1
52356.5,13948
52327.9,13922.1
52302,13893.5
52278.9,13862.4
52259.1,13829.3
52242.6,13794.4
52229.6,13758
52220.2,13720.5
52214.5,13682.3
52212.6,13643.7
52212.6,12856.3
52214.5,12817.7
52220.2,12779.5
52229.6,12742
52242.6,12705.6
52259.1,12670.7
52278.9,12637.6
52302,12606.5
52327.9,12577.9
52356.5,12552
52387.6,12528.9
52420.7,12509.1
52455.6,12492.6
52492,12479.6
52529.5,12470.2
52567.7,12464.5
52606.3,12462.6
53393.7,12462.6
Z" /> 
</g>
<g >
</g>
<g style="fill:#000000; fill-opacity:1.0; 
stroke:#000000; stroke-width:0; stroke-opacity:1; 
stroke-linecap:round; stroke-linejoin:round;">
<path style="fill:#000000; fill-opacity:1.0; 
stroke:#000000; stroke-width:0; stroke-opacity:1; 
stroke-linecap:round; stroke-linejoin:round;fill-rule:evenodd;"
d="M 50572.3,13571.9
50610.4,13578.8
50647.5,13589.4
50683.4,13603.6
50717.8,13621.2
51399.7,14014.9
51432.2,14035.9
51462.5,14059.9
51490.2,14086.8
51515.2,14116.2
51537.2,14148
51556,14181.8
51571.3,14217.2
51583.2,14254
51591.3,14291.8
51595.7,14330.1
51596.4,14368.8
51593.2,14407.3
51586.3,14445.3
51575.7,14482.4
51561.5,14518.4
51543.8,14552.7
51150.1,15234.7
51129.2,15267.1
51105.2,15297.4
51078.3,15325.2
51048.8,15350.1
51017.1,15372.1
50983.3,15390.9
50947.8,15406.3
50911.1,15418.1
50873.3,15426.2
50834.9,15430.7
50796.3,15431.3
50757.8,15428.1
50719.8,15421.2
50682.6,15410.6
50646.7,15396.4
50612.3,15378.8
49930.4,14985.1
49897.9,14964.1
49867.7,14940.1
49839.9,14913.2
49814.9,14883.8
49792.9,14852
49774.2,14818.2
49758.8,14782.8
49747,14746
49738.8,14708.2
49734.4,14669.9
49733.8,14631.2
49736.9,14592.7
49743.8,14554.7
49754.5,14517.6
49768.7,14481.6
49786.3,14447.3
50180,13765.3
50200.9,13732.9
50225,13702.6
50251.8,13674.8
50281.3,13649.9
50313.1,13627.9
50346.8,13609.1
50382.3,13593.7
50419.1,13581.9
50456.8,13573.8
50495.2,13569.3
50533.8,13568.7
Z" /> 
</g>
<g >
</g>
<g style="fill:#000000; fill-opacity:1.0; 
stroke:#000000; stroke-width:0; stroke-opacity:1; 
stroke-linecap:round; stroke-linejoin:round;">
<path style="fill:#000000; fill-opacity:1.0; 
stroke:#000000; stroke-width:0; stroke-opacity:1; 
stroke-linecap:round; stroke-linejoin:round;fill-rule:evenodd;"
d="M 59277.4,15156
59286.9,15157.4
59296.3,15159.8
59305.4,15163
59314.1,15167.1
59322.4,15172.1
59330.2,15177.9
59337.3,15184.3
59343.8,15191.5
59349.6,15199.3
59354.5,15207.5
59358.6,15216.3
59361.9,15225.4
59364.3,15234.7
59365.7,15244.3
59366.1,15253.9
59366.1,15746.1
59365.7,15755.7
59364.3,15765.3
59361.9,15774.6
59358.6,15783.7
59354.5,15792.5
59349.6,15800.7
59343.8,15808.5
59337.3,15815.7
59330.2,15822.1
59322.4,15827.9
59314.1,15832.9
59305.4,15837
59296.3,15840.2
59286.9,15842.6
59277.4,15844
59267.7,15844.5
58903.5,15844.5
58893.9,15844
58884.3,15842.6
58875,15840.2
58865.9,15837
58857.1,15832.9
58848.9,15827.9
58841.1,15822.1
58833.9,15815.7
58827.5,15808.5
58821.7,15800.7
58816.7,15792.5
58812.6,15783.7
58809.4,15774.6
58807,15765.3
58805.6,15755.7
58805.1,15746.1
58805.1,15253.9
58805.6,15244.3
58807,15234.7
58809.4,15225.4
58812.6,15216.3
58816.7,15207.5
58821.7,15199.3
58827.5,15191.5
58833.9,15184.3
58841.1,15177.9
58848.9,15172.1
58857.1,15167.1
58865.9,15163
58875,15159.8
58884.3,15157.4
58893.9,15156
58903.5,15155.5
59267.7,15155.5
Z" /> 
<path style="fill:#000000; fill-opacity:1.0; 
stroke:#000000; stroke-width:0; stroke-opacity:1; 
stroke-linecap:round; stroke-linejoin:round;fill-rule:evenodd;"
d="M 58106.1,15156
58115.7,15157.4
58125,15159.8
58134.1,15163
58142.9,15167.1
58151.1,15172.1
58158.9,15177.9
58166.1,15184.3
58172.5,15191.5
58178.3,15199.3
58183.3,15207.5
58187.4,15216.3
58190.6,15225.4
58193,15234.7
58194.4,15244.3
58194.9,15253.9
58194.9,15746.1
58194.4,15755.7
58193,15765.3
58190.6,15774.6
58187.4,15783.7
58183.3,15792.5
58178.3,15800.7
58172.5,15808.5
58166.1,15815.7
58158.9,15822.1
58151.1,15827.9
58142.9,15832.9
58134.1,15837
58125,15840.2
58115.7,15842.6
58106.1,15844
58096.5,15844.5
57732.3,15844.5
57722.6,15844
57713.1,15842.6
57703.7,15840.2
57694.6,15837
57685.9,15832.9
57677.6,15827.9
57669.8,15822.1
57662.7,15815.7
57656.2,15808.5
57650.4,15800.7
57645.5,15792.5
57641.4,15783.7
57638.1,15774.6
57635.7,15765.3
57634.3,15755.7
57633.9,15746.1
57633.9,15253.9
57634.3,15244.3
57635.7,15234.7
57638.1,15225.4
57641.4,15216.3
57645.5,15207.5
57650.4,15199.3
57656.2,15191.5
57662.7,15184.3
57669.8,15177.9
57677.6,15172.1
57685.9,15167.1
57694.6,15163
57703.7,15159.8
57713.1,15157.4
57722.6,15156
57732.3,15155.5
58096.5,15155.5
Z" /> 
</g>
<g >
</g>
<g style="fill:#000000; fill-opacity:1.0; 
stroke:#000000; stroke-width:0; stroke-opacity:1; 
stroke-linecap:round; stroke-linejoin:round;">
<path style="fill:#000000; fill-opacity:1.0; 
stroke:#000000; stroke-width:0; stroke-opacity:1; 
stroke-linecap:round; stroke-linejoin:round;fill-rule:evenodd;"
d="M 46005.7,11634.3
46015.3,11635.7
46024.6,11638.1
46033.7,11641.4
46042.5,11645.5
46050.7,11650.4
46058.5,11656.2
46065.7,11662.7
46072.1,11669.8
46077.9,11677.6
46082.9,11685.9
46087,11694.6
46090.2,11703.7
46092.6,11713.1
46094,11722.6
46094.5,11732.3
46094.5,12096.5
46094,12106.1
46092.6,12115.7
46090.2,12125
46087,12134.1
46082.9,12142.9
46077.9,12151.1
46072.1,12158.9
46065.7,12166.1
46058.5,12172.5
46050.7,12178.3
46042.5,12183.3
46033.7,12187.4
46024.6,12190.6
46015.3,12193
46005.7,12194.4
45996.1,12194.9
45503.9,12194.9
45494.3,12194.4
45484.7,12193
45475.4,12190.6
45466.3,12187.4
45457.5,12183.3
45449.3,12178.3
45441.5,12172.5
45434.3,12166.1
45427.9,12158.9
45422.1,12151.1
45417.1,12142.9
45413,12134.1
45409.8,12125
45407.4,12115.7
45406,12106.1
45405.5,12096.5
45405.5,11732.3
45406,11722.6
45407.4,11713.1
45409.8,11703.7
45413,11694.6
45417.1,11685.9
45422.1,11677.6
45427.9,11669.8
45434.3,11662.7
45441.5,11656.2
45449.3,11650.4
45457.5,11645.5
45466.3,11641.4
45475.4,11638.1
45484.7,11635.7
45494.3,11634.3
45503.9,11633.9
45996.1,11633.9
Z" /> 
<path style="fill:#000000; fill-opacity:1.0; 
stroke:#000000; stroke-width:0; stroke-opacity:1; 
stroke-linecap:round; stroke-linejoin:round;fill-rule:evenodd;"
d="M 46005.7,12805.6
46015.3,12807
46024.6,12809.4
46033.7,12812.6
46042.5,12816.7
46050.7,12821.7
46058.5,12827.5
46065.7,12833.9
46072.1,12841.1
46077.9,12848.9
46082.9,12857.1
46087,12865.9
46090.2,12875
46092.6,12884.3
46094,12893.9
46094.5,12903.5
46094.5,13267.7
46094,13277.4
46092.6,13286.9
46090.2,13296.3
46087,13305.4
46082.9,13314.1
46077.9,13322.4
46072.1,13330.2
46065.7,13337.3
46058.5,13343.8
46050.7,13349.6
46042.5,13354.5
46033.7,13358.6
46024.6,13361.9
46015.3,13364.3
46005.7,13365.7
45996.1,13366.1
45503.9,13366.1
45494.3,13365.7
45484.7,13364.3
45475.4,13361.9
45466.3,13358.6
45457.5,13354.5
45449.3,13349.6
45441.5,13343.8
45434.3,13337.3
45427.9,13330.2
45422.1,13322.4
45417.1,13314.1
45413,13305.4
45409.8,13296.3
45407.4,13286.9
45406,13277.4
45405.5,13267.7
45405.5,12903.5
45406,12893.9
45407.4,12884.3
45409.8,12875
45413,12865.9
45417.1,12857.1
45422.1,12848.9
45427.9,12841.1
45434.3,12833.9
45441.5,12827.5
45449.3,12821.7
45457.5,12816.7
45466.3,12812.6
45475.4,12809.4
45484.7,12807
45494.3,12805.6
45503.9,12805.1
45996.1,12805.1
Z" /> 
</g>
<g >
</g>
<g style="fill:#000000; fill-opacity:1.0; 
stroke:#000000; stroke-width:0; stroke-opacity:1; 
stroke-linecap:round; stroke-linejoin:round;">
<path style="fill:#000000; fill-opacity:1.0; 
stroke:#000000; stroke-width:0; stroke-opacity:1; 
stroke-linecap:round; stroke-linejoin:round;fill-rule:evenodd;"
d="M 48527.4,15156
48536.9,15157.4
48546.3,15159.8
48555.4,15163
48564.1,15167.1
48572.4,15172.1
48580.2,15177.9
48587.3,15184.3
48593.8,15191.5
48599.6,15199.3
48604.5,15207.5
48608.6,15216.3
48611.9,15225.4
48614.3,15234.7
48615.7,15244.3
48616.1,15253.9
48616.1,15746.1
48615.7,15755.7
48614.3,15765.3
48611.9,15774.6
48608.6,15783.7
48604.5,15792.5
48599.6,15800.7
48593.8,15808.5
48587.3,15815.7
48580.2,15822.1
48572.4,15827.9
48564.1,15832.9
48555.4,15837
48546.3,15840.2
48536.9,15842.6
48527.4,15844
48517.7,15844.5
48153.5,15844.5
48143.9,15844
48134.3,15842.6
48125,15840.2
48115.9,15837
48107.1,15832.9
48098.9,15827.9
48091.1,15822.1
48083.9,15815.7
48077.5,15808.5
48071.7,15800.7
48066.7,15792.5
48062.6,15783.7
48059.4,15774.6
48057,15765.3
48055.6,15755.7
48055.1,15746.1
48055.1,15253.9
48055.6,15244.3
48057,15234.7
48059.4,15225.4
48062.6,15216.3
48066.7,15207.5
48071.7,15199.3
48077.5,15191.5
48083.9,15184.3
48091.1,15177.9
48098.9,15172.1
48107.1,15167.1
48115.9,15163
48125,15159.8
48134.3,15157.4
48143.9,15156
48153.5,15155.5
48517.7,15155.5
Z" /> 
<path style="fill:#000000; fill-opacity:1.0; 
stroke:#000000; stroke-width:0; stroke-opacity:1; 
stroke-linecap:round; stroke-linejoin:round;fill-rule:evenodd;"
d="M 47356.1,15156
47365.7,15157.4
47375,15159.8
47384.1,15163
47392.9,15167.1
47401.1,15172.1
47408.9,15177.9
47416.1,15184.3
47422.5,15191.5
47428.3,15199.3
47433.3,15207.5
47437.4,15216.3
47440.6,15225.4
47443,15234.7
47444.4,15244.3
47444.9,15253.9
47444.9,15746.1
47444.4,15755.7
47443,15765.3
47440.6,15774.6
47437.4,15783.7
47433.3,15792.5
47428.3,15800.7
47422.5,15808.5
47416.1,15815.7
47408.9,15822.1
47401.1,15827.9
47392.9,15832.9
47384.1,15837
47375,15840.2
47365.7,15842.6
47356.1,15844
47346.5,15844.5
46982.3,15844.5
46972.6,15844
46963.1,15842.6
46953.7,15840.2
46944.6,15837
46935.9,15832.9
46927.6,15827.9
46919.8,15822.1
46912.7,15815.7
46906.2,15808.5
46900.4,15800.7
46895.5,15792.5
46891.4,15783.7
46888.1,15774.6
46885.7,15765.3
46884.3,15755.7
46883.9,15746.1
46883.9,15253.9
46884.3,15244.3
46885.7,15234.7
46888.1,15225.4
46891.4,15216.3
46895.5,15207.5
46900.4,15199.3
46906.2,15191.5
46912.7,15184.3
46919.8,15177.9
46927.6,15172.1
46935.9,15167.1
46944.6,15163
46953.7,15159.8
46963.1,15157.4
46972.6,15156
46982.3,15155.5
47346.5,15155.5
Z" /> 
</g>
<g >
</g>
<g style="fill:#000000; fill-opacity:1.0; 
stroke:#000000; stroke-width:0; stroke-opacity:1; 
stroke-linecap:round; stroke-linejoin:round;">
<path style="fill:#000000; fill-opacity:1.0; 
stroke:#000000; stroke-width:0; stroke-opacity:1; 
stroke-linecap:round; stroke-linejoin:round;fill-rule:evenodd;"
d="M 56106.1,18406
56115.7,18407.4
56125,18409.8
56134.1,18413
56142.9,18417.1
56151.1,18422.1
56158.9,18427.9
56166.1,18434.3
56172.5,18441.5
56178.3,18449.3
56183.3,18457.5
56187.4,18466.3
56190.6,18475.4
56193,18484.7
56194.4,18494.3
56194.9,18503.9
56194.9,18996.1
56194.4,19005.7
56193,19015.3
56190.6,19024.6
56187.4,19033.7
56183.3,19042.5
56178.3,19050.7
56172.5,19058.5
56166.1,19065.7
56158.9,19072.1
56151.1,19077.9
56142.9,19082.9
56134.1,19087
56125,19090.2
56115.7,19092.6
56106.1,19094
56096.5,19094.5
55732.3,19094.5
55722.6,19094
55713.1,19092.6
55703.7,19090.2
55694.6,19087
55685.9,19082.9
55677.6,19077.9
55669.8,19072.1
55662.7,19065.7
55656.2,19058.5
55650.4,19050.7
55645.5,19042.5
55641.4,19033.7
55638.1,19024.6
55635.7,19015.3
55634.3,19005.7
55633.9,18996.1
55633.9,18503.9
55634.3,18494.3
55635.7,18484.7
55638.1,18475.4
55641.4,18466.3
55645.5,18457.5
55650.4,18449.3
55656.2,18441.5
55662.7,18434.3
55669.8,18427.9
55677.6,18422.1
55685.9,18417.1
55694.6,18413
55703.7,18409.8
55713.1,18407.4
55722.6,18406
55732.3,18405.5
56096.5,18405.5
Z" /> 
<path style="fill:#000000; fill-opacity:1.0; 
stroke:#000000; stroke-width:0; stroke-opacity:1; 
stroke-linecap:round; stroke-linejoin:round;fill-rule:evenodd;"
d="M 57277.4,18406
57286.9,18407.4
57296.3,18409.8
57305.4,18413
57314.1,18417.1
57322.4,18422.1
57330.2,18427.9
57337.3,18434.3
57343.8,18441.5
57349.6,18449.3
57354.5,18457.5
57358.6,18466.3
57361.9,18475.4
57364.3,18484.7
57365.7,18494.3
57366.1,18503.9
57366.1,18996.1
57365.7,19005.7
57364.3,19015.3
57361.9,19024.6
57358.6,19033.7
57354.5,19042.5
57349.6,19050.7
57343.8,19058.5
57337.3,19065.7
57330.2,19072.1
57322.4,19077.9
57314.1,19082.9
57305.4,19087
57296.3,19090.2
57286.9,19092.6
57277.4,19094
57267.7,19094.5
56903.5,19094.5
56893.9,19094
56884.3,19092.6
56875,19090.2
56865.9,19087
56857.1,19082.9
56848.9,19077.9
56841.1,19072.1
56833.9,19065.7
56827.5,19058.5
56821.7,19050.7
56816.7,19042.5
56812.6,19033.7
56809.4,19024.6
56807,19015.3
56805.6,19005.7
56805.1,18996.1
56805.1,18503.9
56805.6,18494.3
56807,18484.7
56809.4,18475.4
56812.6,18466.3
56816.7,18457.5
56821.7,18449.3
56827.5,18441.5
56833.9,18434.3
56841.1,18427.9
56848.9,18422.1
56857.1,18417.1
56865.9,18413
56875,18409.8
56884.3,18407.4
56893.9,18406
56903.5,18405.5
57267.7,18405.5
Z" /> 
</g>
<g >
</g>
<g style="fill:#000000; fill-opacity:1.0; 
stroke:#000000; stroke-width:0; stroke-opacity:1; 
stroke-linecap:round; stroke-linejoin:round;">
<path style="fill:#000000; fill-opacity:1.0; 
stroke:#000000; stroke-width:0; stroke-opacity:1; 
stroke-linecap:round; stroke-linejoin:round;fill-rule:evenodd;"
d="M 50527.4,18406
50536.9,18407.4
50546.3,18409.8
50555.4,18413
50564.1,18417.1
50572.4,18422.1
50580.2,18427.9
50587.3,18434.3
50593.8,18441.5
50599.6,18449.3
50604.5,18457.5
50608.6,18466.3
50611.9,18475.4
50614.3,18484.7
50615.7,18494.3
50616.1,18503.9
50616.1,18996.1
50615.7,19005.7
50614.3,19015.3
50611.9,19024.6
50608.6,19033.7
50604.5,19042.5
50599.6,19050.7
50593.8,19058.5
50587.3,19065.7
50580.2,19072.1
50572.4,19077.9
50564.1,19082.9
50555.4,19087
50546.3,19090.2
50536.9,19092.6
50527.4,19094
50517.7,19094.5
50153.5,19094.5
50143.9,19094
50134.3,19092.6
50125,19090.2
50115.9,19087
50107.1,19082.9
50098.9,19077.9
50091.1,19072.1
50083.9,19065.7
50077.5,19058.5
50071.7,19050.7
50066.7,19042.5
50062.6,19033.7
50059.4,19024.6
50057,19015.3
50055.6,19005.7
50055.1,18996.1
50055.1,18503.9
50055.6,18494.3
50057,18484.7
50059.4,18475.4
50062.6,18466.3
50066.7,18457.5
50071.7,18449.3
50077.5,18441.5
50083.9,18434.3
50091.1,18427.9
50098.9,18422.1
50107.1,18417.1
50115.9,18413
50125,18409.8
50134.3,18407.4
50143.9,18406
50153.5,18405.5
50517.7,18405.5
Z" /> 
<path style="fill:#000000; fill-opacity:1.0; 
stroke:#000000; stroke-width:0; stroke-opacity:1; 
stroke-linecap:round; stroke-linejoin:round;fill-rule:evenodd;"
d="M 49356.1,18406
49365.7,18407.4
49375,18409.8
49384.1,18413
49392.9,18417.1
49401.1,18422.1
49408.9,18427.9
49416.1,18434.3
49422.5,18441.5
49428.3,18449.3
49433.3,18457.5
49437.4,18466.3
49440.6,18475.4
49443,18484.7
49444.4,18494.3
49444.9,18503.9
49444.9,18996.1
49444.4,19005.7
49443,19015.3
49440.6,19024.6
49437.4,19033.7
49433.3,19042.5
49428.3,19050.7
49422.5,19058.5
49416.1,19065.7
49408.9,19072.1
49401.1,19077.9
49392.9,19082.9
49384.1,19087
49375,19090.2
49365.7,19092.6
49356.1,19094
49346.5,19094.5
48982.3,19094.5
48972.6,19094
48963.1,19092.6
48953.7,19090.2
48944.6,19087
48935.9,19082.9
48927.6,19077.9
48919.8,19072.1
48912.7,19065.7
48906.2,19058.5
48900.4,19050.7
48895.5,19042.5
48891.4,19033.7
48888.1,19024.6
48885.7,19015.3
48884.3,19005.7
48883.9,18996.1
48883.9,18503.9
48884.3,18494.3
48885.7,18484.7
48888.1,18475.4
48891.4,18466.3
48895.5,18457.5
48900.4,18449.3
48906.2,18441.5
48912.7,18434.3
48919.8,18427.9
48927.6,18422.1
48935.9,18417.1
48944.6,18413
48953.7,18409.8
48963.1,18407.4
48972.6,18406
48982.3,18405.5
49346.5,18405.5
Z" /> 
</g>
<g >
</g>
<g style="fill:#000000; fill-opacity:1.0; 
stroke:#000000; stroke-width:0; stroke-opacity:1; 
stroke-linecap:round; stroke-linejoin:round;">
<circle cx="51250" cy="18000" r="393.701" /> 
</g>
<g style="fill:#000000; fill-opacity:1.0; 
stroke:#000000; stroke-width:39.3701; stroke-opacity:1; 
stroke-linecap:round; stroke-linejoin:round;">
</g>
<g style="fill:#000000; fill-opacity:1.0; 
stroke:#000000; stroke-width:0; stroke-opacity:1; 
stroke-linecap:round; stroke-linejoin:round;">
<circle cx="54250" cy="19750" r="393.701" /> 
</g>
<g style="fill:#000000; fill-opacity:1.0; 
stroke:#000000; stroke-width:39.3701; stroke-opacity:1; 
stroke-linecap:round; stroke-linejoin:round;">
</g>
<g >
</g>
<g style="fill:#000000; fill-opacity:1.0; 
stroke:#000000; stroke-width:39.3701; stroke-opacity:1; 
stroke-linecap:round; stroke-linejoin:round;">
</g>
<g style="fill:#000000; fill-opacity:1.0; 
stroke:#000000; stroke-width:196.85; stroke-opacity:1; 
stroke-linecap:round; stroke-linejoin:round;">
</g>
<g style="fill:#000000; fill-opacity:0.0; 
stroke:#000000; stroke-width:196.85; stroke-opacity:1; 
stroke-linecap:round; stroke-linejoin:round;">
<path d="M53250 17500
L53257 17507
" />
<path d="M53257 17507
L53257 17935
" />
<path d="M52000 17500
L53250 17500
" />
<path d="M51500 18000
L52000 17500
" />
<path d="M51250 18000
L51500 18000
" />
</g>
<g style="fill:#000000; fill-opacity:0.0; 
stroke:#000000; stroke-width:393.701; stroke-opacity:1; 
stroke-linecap:round; stroke-linejoin:round;">
<path d="M54084 13250
L55334 14500
" />
<path d="M53000 13250
L54084 13250
" />
</g>
<g style="fill:#000000; fill-opacity:0.0; 
stroke:#000000; stroke-width:98.4252; stroke-opacity:1; 
stroke-linecap:round; stroke-linejoin:round;">
<path d="M54000 19750
L54250 19750
" />
<path d="M53535 19285
L54000 19750
" />
</g>
<g style="fill:#000000; fill-opacity:0.0; 
stroke:#000000; stroke-width:196.85; stroke-opacity:1; 
stroke-linecap:round; stroke-linejoin:round;">
<path d="M46094 11914
L46500 12319
" />
<path d="M47500 14750
L47930 14750
" />
<path d="M47930 14750
L48335 15155
" />
<path d="M48335 15155
L48335 15500
" />
<path d="M46500 13750
L47500 14750
" />
<path d="M46500 12319
L46500 13750
" />
<path d="M45750 11914
L46094 11914
" />
<path d="M50335 18405
L50335 18750
" />
<path d="M50335 17219
L50335 18405
" />
<path d="M48616 15500
L50335 17219
" />
<path d="M48335 15500
L48616 15500
" />
<path d="M60250 12194
L59250 13194
" />
<path d="M59250 13194
L59250 14444
" />
<path d="M59250 14444
L58194 15500
" />
<path d="M58194 15500
L57914 15500
" />
<path d="M60250 11914
L60250 12194
" />
<path d="M57633 15500
L57914 15500
" />
<path d="M56750 16250
L57633 15500
" />
<path d="M55914 18750
L55914 17219
" />
<path d="M55914 17219
L56750 16250
" />
<path d="M55250 16164
L56664 16164
" />
<path d="M56664 16164
L56750 16250
" />
<path d="M50335 17219
L54280 17219
" />
<path d="M54280 17219
L54280 16789
" />
<path d="M54280 16789
L54905 16164
" />
<path d="M54905 16164
L55250 16164
" />
<path d="M59366 15500
L59085 15500
" />
<path d="M60250 13085
L60250 14616
" />
<path d="M60250 14616
L59366 15500
" />
<path d="M57085 18405
L57085 18750
" />
<path d="M59085 15500
L59085 15844
" />
<path d="M58625 16304
L57454 16304
" />
<path d="M57454 16304
L57085 16673
" />
<path d="M59085 15844
L58625 16304
" />
<path d="M57085 16673
L57085 18405
" />
<path d="M53814 18564
L53814 18492
" />
<path d="M56655 19344
L56500 19500
" />
<path d="M56905 19344
L56655 19344
" />
<path d="M57085 18750
L57085 19164
" />
<path d="M57085 19164
L56905 19344
" />
<path d="M56500 19500
L54750 19500
" />
<path d="M54750 19500
L53814 18564
" />
</g>
<g style="fill:#000000; fill-opacity:0.0; 
stroke:#000000; stroke-width:98.4252; stroke-opacity:1; 
stroke-linecap:round; stroke-linejoin:round;">
<path d="M52193 19278
L51971 19278
" />
</g>
<g style="fill:#000000; fill-opacity:0.0; 
stroke:#000000; stroke-width:196.85; stroke-opacity:1; 
stroke-linecap:round; stroke-linejoin:round;">
<path d="M51750 19500
L49569 19500
" />
<path d="M49569 19500
L49164 19094
" />
</g>
<g style="fill:#000000; fill-opacity:0.0; 
stroke:#000000; stroke-width:98.4252; stroke-opacity:1; 
stroke-linecap:round; stroke-linejoin:round;">
<path d="M49164 19094
L49164 18750
" />
</g>
<g style="fill:#000000; fill-opacity:0.0; 
stroke:#000000; stroke-width:196.85; stroke-opacity:1; 
stroke-linecap:round; stroke-linejoin:round;">
<path d="M51971 19278
L51750 19500
" />
</g>
<g style="fill:#000000; fill-opacity:0.0; 
stroke:#000000; stroke-width:98.4252; stroke-opacity:1; 
stroke-linecap:round; stroke-linejoin:round;">
<path d="M52324 19146
L52193 19278
" />
</g>
<g style="fill:#000000; fill-opacity:0.0; 
stroke:#000000; stroke-width:196.85; stroke-opacity:1; 
stroke-linecap:round; stroke-linejoin:round;">
<path d="M49164 18405
L49164 18750
" />
<path d="M47164 15500
L47444 15500
" />
<path d="M47444 15500
L48284 16340
" />
<path d="M48284 16340
L48816 16340
" />
<path d="M48816 16340
L49164 16688
" />
<path d="M49164 16688
L49164 18405
" />
<path d="M46750 15500
L47164 15500
" />
<path d="M45750 14500
L46750 15500
" />
<path d="M45750 13085
L45750 14500
" />
<path d="M54905 17335
L54191 18050
" />
</g>
<g style="fill:#000000; fill-opacity:0.0; 
stroke:#000000; stroke-width:98.4252; stroke-opacity:1; 
stroke-linecap:round; stroke-linejoin:round;">
<path d="M55250 17335
L54905 17335
" />
</g>
<g style="fill:#000000; fill-opacity:0.0; 
stroke:#000000; stroke-width:196.85; stroke-opacity:1; 
stroke-linecap:round; stroke-linejoin:round;">
<path d="M54191 18050
L54000 18050
" />
</g>
<g style="fill:#000000; fill-opacity:0.0; 
stroke:#000000; stroke-width:98.4252; stroke-opacity:1; 
stroke-linecap:round; stroke-linejoin:round;">
<path d="M53783 18266
L53734 18266
" />
<path d="M54000 18050
L53783 18266
" />
</g>
<g >
</g>
</g> 
</svg>
