<?xml version="1.0" standalone="no"?>
 <!DOCTYPE svg PUBLIC "-//W3C//DTD SVG 1.1//EN" 
 "http://www.w3.org/Graphics/SVG/1.1/DTD/svg11.dtd"> 
<svg xmlns="http://www.w3.org/2000/svg" version="1.1" 
    width="29.7002cm" height="21.0007cm" viewBox="0 0 116930 82680 ">
<title>SVG Picture created as ButterflyJewel-Edge_Cuts.svg date 2020/02/10 12:20:28 </title>
  <desc>Picture generated by PCBNEW </desc>
<g style="fill:#000000; fill-opacity:1;stroke:#000000; stroke-opacity:1;
stroke-linecap:round; stroke-linejoin:round; "
 transform="translate(0 0) scale(1 1)">
</g>
<g style="fill:#000000; fill-opacity:0.0; 
stroke:#000000; stroke-width:-0.000393701; stroke-opacity:1; 
stroke-linecap:round; stroke-linejoin:round;">
</g>
<g style="fill:#000000; fill-opacity:0.0; 
stroke:#000000; stroke-width:19.685; stroke-opacity:1; 
stroke-linecap:round; stroke-linejoin:round;">
<path d="M45003 11537
L45007 11537
" />
<path d="M51994 12096
L52016 12083
" />
<path d="M51953 12020
L52016 12083
" />
<path d="M54024 12064
L54016 12066
" />
<path d="M59081 16563
L59073 16573
" />
<path d="M48297 19145
L48299 19148
" />
<path d="M45481 14998
L45499 15000
" />
<path d="M60529 15012
L60500 15000
" />
<path d="M51994 12096
L52016 12083
" />
</g>
<g style="fill:#000000; fill-opacity:0.0; 
stroke:#000000; stroke-width:59.0551; stroke-opacity:1; 
stroke-linecap:round; stroke-linejoin:round;">
<path d="M54024 12064.1 A1169.13 1169.13 0.0 1 0 51953.1 12020.4 " />
<path d="M60500 15000 A14500 14500 0.0 0 0 59073.4 16573.5 " />
<path d="M60529.2 15012.2 A9002.88 9002.88 0.0 0 0 61000 11500 " />
<path d="M46926.6 16573.5 A14500 14500 0.0 0 0 45500 15000 " />
<path d="M45007.1 11537.1 A9032.28 9032.28 0.0 0 0 45481.6 14998.1 " />
<path d="M48297.5 19145.8 A10284 10284 0.0 0 0 51976.6 20232.9 " />
<path d="M47000 17000 A15652.5 15652.5 0.0 0 0 48299.3 19148.3 " />
<path d="M54020.8 20234.6 A10285.3 10285.3 0.0 0 0 57700.7 19148.3 " />
<path d="M57700.7 19148.3 A15652.5 15652.5 0.0 0 0 59000 17000 " />
<path d="M53000 19750
L54020 20234
" />
<path d="M51976 20232
L53000 19750
" />
<path d="M57500 16500
L59000 17000
" />
<path d="M59081 16563
L57500 16500
" />
<path d="M48750 16500
L47000 17000
" />
<path d="M46926 16573
L48750 16500
" />
<path d="M52016 12083.4 A13285.3 13285.3 0.0 0 0 45003.6 11537.8 " />
<path d="M61000 11500 A12747.5 12747.5 0.0 0 0 54016.9 12066.8 " />
<g >
</g>
<g >
</g>
<g >
</g>
<g >
</g>
<g >
</g>
<g >
</g>
<g >
</g>
<g >
</g>
<g >
</g>
<g >
</g>
<g >
</g>
<g >
</g>
<g >
</g>
<g >
</g>
<g >
</g>
<g >
</g>
</g> 
</svg>
